<mxfile host="app.diagrams.net" modified="2022-07-24T11:01:53.857Z" agent="5.0 (Macintosh; Intel Mac OS X 10_15_7) AppleWebKit/537.36 (KHTML, like Gecko) Chrome/101.0.4951.54 Safari/537.36" etag="ePLIdAostoAQhn5Qe4ma" version="18.0.4" type="github" pages="14">
  <diagram id="ppnGdZdBtcBASEV0Zt2r" name="第 5 页">
    <mxGraphModel dx="3447" dy="1547" grid="1" gridSize="10" guides="1" tooltips="1" connect="1" arrows="1" fold="1" page="1" pageScale="1" pageWidth="827" pageHeight="1169" math="0" shadow="0">
      <root>
        <mxCell id="0" />
        <mxCell id="1" parent="0" />
        <mxCell id="lcKwfboJeOzXyrMwoJOj-54" value="" style="ellipse;whiteSpace=wrap;html=1;fontSize=18;fillColor=#dae8fc;strokeColor=#6c8ebf;" vertex="1" parent="1">
          <mxGeometry x="175" y="680" width="325" height="220" as="geometry" />
        </mxCell>
        <mxCell id="lcKwfboJeOzXyrMwoJOj-52" value="" style="ellipse;whiteSpace=wrap;html=1;fontSize=18;fillColor=#dae8fc;strokeColor=#6c8ebf;" vertex="1" parent="1">
          <mxGeometry x="-780" y="690" width="180" height="110" as="geometry" />
        </mxCell>
        <mxCell id="lcKwfboJeOzXyrMwoJOj-13" style="rounded=0;orthogonalLoop=1;jettySize=auto;html=1;fontSize=18;entryX=0.5;entryY=0;entryDx=0;entryDy=0;" edge="1" parent="1" source="lcKwfboJeOzXyrMwoJOj-2" target="lcKwfboJeOzXyrMwoJOj-3">
          <mxGeometry relative="1" as="geometry" />
        </mxCell>
        <mxCell id="lcKwfboJeOzXyrMwoJOj-14" style="edgeStyle=orthogonalEdgeStyle;rounded=0;orthogonalLoop=1;jettySize=auto;html=1;entryX=0.5;entryY=0;entryDx=0;entryDy=0;fontSize=18;" edge="1" parent="1" source="lcKwfboJeOzXyrMwoJOj-2" target="lcKwfboJeOzXyrMwoJOj-7">
          <mxGeometry relative="1" as="geometry" />
        </mxCell>
        <mxCell id="lcKwfboJeOzXyrMwoJOj-15" style="edgeStyle=none;rounded=0;orthogonalLoop=1;jettySize=auto;html=1;entryX=0.5;entryY=0;entryDx=0;entryDy=0;fontSize=18;" edge="1" parent="1" source="lcKwfboJeOzXyrMwoJOj-2" target="lcKwfboJeOzXyrMwoJOj-8">
          <mxGeometry relative="1" as="geometry" />
        </mxCell>
        <mxCell id="lcKwfboJeOzXyrMwoJOj-2" value="&lt;font style=&quot;font-size: 18px;&quot;&gt;纸质合同&lt;/font&gt;" style="rounded=1;whiteSpace=wrap;html=1;" vertex="1" parent="1">
          <mxGeometry x="-360" y="140" width="120" height="40" as="geometry" />
        </mxCell>
        <mxCell id="lcKwfboJeOzXyrMwoJOj-16" style="edgeStyle=none;rounded=0;orthogonalLoop=1;jettySize=auto;html=1;entryX=0.5;entryY=0;entryDx=0;entryDy=0;fontSize=18;" edge="1" parent="1" source="lcKwfboJeOzXyrMwoJOj-3" target="lcKwfboJeOzXyrMwoJOj-4">
          <mxGeometry relative="1" as="geometry" />
        </mxCell>
        <mxCell id="lcKwfboJeOzXyrMwoJOj-17" style="edgeStyle=none;rounded=0;orthogonalLoop=1;jettySize=auto;html=1;entryX=0.5;entryY=0;entryDx=0;entryDy=0;fontSize=18;" edge="1" parent="1" source="lcKwfboJeOzXyrMwoJOj-3" target="lcKwfboJeOzXyrMwoJOj-5">
          <mxGeometry relative="1" as="geometry" />
        </mxCell>
        <mxCell id="lcKwfboJeOzXyrMwoJOj-3" value="&lt;font style=&quot;font-size: 18px;&quot;&gt;基本信息&lt;/font&gt;" style="rounded=1;whiteSpace=wrap;html=1;" vertex="1" parent="1">
          <mxGeometry x="-620" y="250" width="120" height="40" as="geometry" />
        </mxCell>
        <mxCell id="lcKwfboJeOzXyrMwoJOj-4" value="&lt;font style=&quot;font-size: 18px;&quot;&gt;合同名称&lt;/font&gt;" style="rounded=1;whiteSpace=wrap;html=1;" vertex="1" parent="1">
          <mxGeometry x="-700" y="355" width="120" height="40" as="geometry" />
        </mxCell>
        <mxCell id="lcKwfboJeOzXyrMwoJOj-5" value="&lt;font style=&quot;font-size: 18px;&quot;&gt;签订日期&lt;/font&gt;" style="rounded=1;whiteSpace=wrap;html=1;" vertex="1" parent="1">
          <mxGeometry x="-560" y="355" width="120" height="40" as="geometry" />
        </mxCell>
        <mxCell id="lcKwfboJeOzXyrMwoJOj-18" style="edgeStyle=none;rounded=0;orthogonalLoop=1;jettySize=auto;html=1;entryX=0.5;entryY=0;entryDx=0;entryDy=0;fontSize=18;" edge="1" parent="1" source="lcKwfboJeOzXyrMwoJOj-7" target="lcKwfboJeOzXyrMwoJOj-9">
          <mxGeometry relative="1" as="geometry" />
        </mxCell>
        <mxCell id="lcKwfboJeOzXyrMwoJOj-19" style="edgeStyle=none;rounded=0;orthogonalLoop=1;jettySize=auto;html=1;entryX=0.5;entryY=0;entryDx=0;entryDy=0;fontSize=18;" edge="1" parent="1" source="lcKwfboJeOzXyrMwoJOj-7" target="lcKwfboJeOzXyrMwoJOj-10">
          <mxGeometry relative="1" as="geometry" />
        </mxCell>
        <mxCell id="lcKwfboJeOzXyrMwoJOj-7" value="&lt;font style=&quot;font-size: 18px;&quot;&gt;业务线信息&lt;/font&gt;" style="rounded=1;whiteSpace=wrap;html=1;" vertex="1" parent="1">
          <mxGeometry x="-360" y="250" width="120" height="40" as="geometry" />
        </mxCell>
        <mxCell id="lcKwfboJeOzXyrMwoJOj-20" style="edgeStyle=none;rounded=0;orthogonalLoop=1;jettySize=auto;html=1;entryX=0.5;entryY=0;entryDx=0;entryDy=0;fontSize=18;" edge="1" parent="1" source="lcKwfboJeOzXyrMwoJOj-8" target="lcKwfboJeOzXyrMwoJOj-11">
          <mxGeometry relative="1" as="geometry" />
        </mxCell>
        <mxCell id="lcKwfboJeOzXyrMwoJOj-21" style="edgeStyle=none;rounded=0;orthogonalLoop=1;jettySize=auto;html=1;entryX=0.5;entryY=0;entryDx=0;entryDy=0;fontSize=18;" edge="1" parent="1" source="lcKwfboJeOzXyrMwoJOj-8" target="lcKwfboJeOzXyrMwoJOj-12">
          <mxGeometry relative="1" as="geometry" />
        </mxCell>
        <mxCell id="lcKwfboJeOzXyrMwoJOj-8" value="&lt;span style=&quot;font-size: 18px;&quot;&gt;账户信息&lt;/span&gt;" style="rounded=1;whiteSpace=wrap;html=1;" vertex="1" parent="1">
          <mxGeometry x="-70" y="250" width="120" height="40" as="geometry" />
        </mxCell>
        <mxCell id="lcKwfboJeOzXyrMwoJOj-9" value="&lt;font style=&quot;font-size: 18px;&quot;&gt;合作模式&lt;/font&gt;" style="rounded=1;whiteSpace=wrap;html=1;" vertex="1" parent="1">
          <mxGeometry x="-420" y="355" width="120" height="40" as="geometry" />
        </mxCell>
        <mxCell id="lcKwfboJeOzXyrMwoJOj-10" value="&lt;font style=&quot;font-size: 18px;&quot;&gt;费率&lt;/font&gt;" style="rounded=1;whiteSpace=wrap;html=1;" vertex="1" parent="1">
          <mxGeometry x="-280" y="355" width="120" height="40" as="geometry" />
        </mxCell>
        <mxCell id="lcKwfboJeOzXyrMwoJOj-11" value="&lt;span style=&quot;font-size: 18px;&quot;&gt;银行账户&lt;/span&gt;" style="rounded=1;whiteSpace=wrap;html=1;" vertex="1" parent="1">
          <mxGeometry x="-140" y="355" width="120" height="40" as="geometry" />
        </mxCell>
        <mxCell id="lcKwfboJeOzXyrMwoJOj-12" value="&lt;span style=&quot;font-size: 18px;&quot;&gt;营业执照&lt;/span&gt;" style="rounded=1;whiteSpace=wrap;html=1;" vertex="1" parent="1">
          <mxGeometry y="355" width="120" height="40" as="geometry" />
        </mxCell>
        <mxCell id="lcKwfboJeOzXyrMwoJOj-22" style="rounded=0;orthogonalLoop=1;jettySize=auto;html=1;fontSize=18;entryX=0.5;entryY=0;entryDx=0;entryDy=0;" edge="1" parent="1" source="lcKwfboJeOzXyrMwoJOj-25" target="lcKwfboJeOzXyrMwoJOj-28">
          <mxGeometry relative="1" as="geometry" />
        </mxCell>
        <mxCell id="lcKwfboJeOzXyrMwoJOj-23" style="edgeStyle=orthogonalEdgeStyle;rounded=0;orthogonalLoop=1;jettySize=auto;html=1;entryX=0.5;entryY=0;entryDx=0;entryDy=0;fontSize=18;" edge="1" parent="1" source="lcKwfboJeOzXyrMwoJOj-25" target="lcKwfboJeOzXyrMwoJOj-33">
          <mxGeometry relative="1" as="geometry" />
        </mxCell>
        <mxCell id="lcKwfboJeOzXyrMwoJOj-24" style="edgeStyle=none;rounded=0;orthogonalLoop=1;jettySize=auto;html=1;entryX=0.5;entryY=0;entryDx=0;entryDy=0;fontSize=18;" edge="1" parent="1" source="lcKwfboJeOzXyrMwoJOj-25" target="lcKwfboJeOzXyrMwoJOj-36">
          <mxGeometry relative="1" as="geometry" />
        </mxCell>
        <mxCell id="lcKwfboJeOzXyrMwoJOj-51" style="edgeStyle=none;rounded=0;orthogonalLoop=1;jettySize=auto;html=1;entryX=0.5;entryY=0;entryDx=0;entryDy=0;fontSize=18;" edge="1" parent="1" source="lcKwfboJeOzXyrMwoJOj-25" target="lcKwfboJeOzXyrMwoJOj-46">
          <mxGeometry relative="1" as="geometry" />
        </mxCell>
        <mxCell id="lcKwfboJeOzXyrMwoJOj-25" value="&lt;font style=&quot;font-size: 18px;&quot;&gt;电子合同&lt;/font&gt;" style="rounded=1;whiteSpace=wrap;html=1;" vertex="1" parent="1">
          <mxGeometry x="-320" y="590" width="120" height="40" as="geometry" />
        </mxCell>
        <mxCell id="lcKwfboJeOzXyrMwoJOj-26" style="edgeStyle=none;rounded=0;orthogonalLoop=1;jettySize=auto;html=1;entryX=0.5;entryY=0;entryDx=0;entryDy=0;fontSize=18;" edge="1" parent="1" source="lcKwfboJeOzXyrMwoJOj-28" target="lcKwfboJeOzXyrMwoJOj-29">
          <mxGeometry relative="1" as="geometry" />
        </mxCell>
        <mxCell id="lcKwfboJeOzXyrMwoJOj-27" style="edgeStyle=none;rounded=0;orthogonalLoop=1;jettySize=auto;html=1;entryX=0.5;entryY=0;entryDx=0;entryDy=0;fontSize=18;" edge="1" parent="1" source="lcKwfboJeOzXyrMwoJOj-28" target="lcKwfboJeOzXyrMwoJOj-30">
          <mxGeometry relative="1" as="geometry" />
        </mxCell>
        <mxCell id="lcKwfboJeOzXyrMwoJOj-42" style="edgeStyle=none;rounded=0;orthogonalLoop=1;jettySize=auto;html=1;entryX=1;entryY=0.5;entryDx=0;entryDy=0;fontSize=18;" edge="1" parent="1" source="lcKwfboJeOzXyrMwoJOj-28" target="lcKwfboJeOzXyrMwoJOj-41">
          <mxGeometry relative="1" as="geometry" />
        </mxCell>
        <mxCell id="lcKwfboJeOzXyrMwoJOj-28" value="&lt;font style=&quot;font-size: 18px;&quot;&gt;基本信息&lt;/font&gt;" style="rounded=1;whiteSpace=wrap;html=1;" vertex="1" parent="1">
          <mxGeometry x="-580" y="700" width="120" height="40" as="geometry" />
        </mxCell>
        <mxCell id="lcKwfboJeOzXyrMwoJOj-29" value="&lt;font style=&quot;font-size: 18px;&quot;&gt;合同名称&lt;/font&gt;" style="rounded=1;whiteSpace=wrap;html=1;" vertex="1" parent="1">
          <mxGeometry x="-660" y="805" width="120" height="40" as="geometry" />
        </mxCell>
        <mxCell id="lcKwfboJeOzXyrMwoJOj-30" value="&lt;font style=&quot;font-size: 18px;&quot;&gt;签订日期&lt;/font&gt;" style="rounded=1;whiteSpace=wrap;html=1;" vertex="1" parent="1">
          <mxGeometry x="-520" y="805" width="120" height="40" as="geometry" />
        </mxCell>
        <mxCell id="lcKwfboJeOzXyrMwoJOj-31" style="edgeStyle=none;rounded=0;orthogonalLoop=1;jettySize=auto;html=1;entryX=0.5;entryY=0;entryDx=0;entryDy=0;fontSize=18;" edge="1" parent="1" source="lcKwfboJeOzXyrMwoJOj-33" target="lcKwfboJeOzXyrMwoJOj-37">
          <mxGeometry relative="1" as="geometry" />
        </mxCell>
        <mxCell id="lcKwfboJeOzXyrMwoJOj-32" style="edgeStyle=none;rounded=0;orthogonalLoop=1;jettySize=auto;html=1;entryX=0.5;entryY=0;entryDx=0;entryDy=0;fontSize=18;" edge="1" parent="1" source="lcKwfboJeOzXyrMwoJOj-33" target="lcKwfboJeOzXyrMwoJOj-38">
          <mxGeometry relative="1" as="geometry" />
        </mxCell>
        <mxCell id="lcKwfboJeOzXyrMwoJOj-33" value="&lt;font style=&quot;font-size: 18px;&quot;&gt;业务线信息&lt;/font&gt;" style="rounded=1;whiteSpace=wrap;html=1;" vertex="1" parent="1">
          <mxGeometry x="-320" y="700" width="120" height="40" as="geometry" />
        </mxCell>
        <mxCell id="lcKwfboJeOzXyrMwoJOj-34" style="edgeStyle=none;rounded=0;orthogonalLoop=1;jettySize=auto;html=1;entryX=0.5;entryY=0;entryDx=0;entryDy=0;fontSize=18;" edge="1" parent="1" source="lcKwfboJeOzXyrMwoJOj-36" target="lcKwfboJeOzXyrMwoJOj-39">
          <mxGeometry relative="1" as="geometry" />
        </mxCell>
        <mxCell id="lcKwfboJeOzXyrMwoJOj-35" style="edgeStyle=none;rounded=0;orthogonalLoop=1;jettySize=auto;html=1;entryX=0.5;entryY=0;entryDx=0;entryDy=0;fontSize=18;" edge="1" parent="1" source="lcKwfboJeOzXyrMwoJOj-36" target="lcKwfboJeOzXyrMwoJOj-40">
          <mxGeometry relative="1" as="geometry" />
        </mxCell>
        <mxCell id="lcKwfboJeOzXyrMwoJOj-36" value="&lt;span style=&quot;font-size: 18px;&quot;&gt;账户信息&lt;/span&gt;" style="rounded=1;whiteSpace=wrap;html=1;" vertex="1" parent="1">
          <mxGeometry x="-30" y="700" width="120" height="40" as="geometry" />
        </mxCell>
        <mxCell id="lcKwfboJeOzXyrMwoJOj-37" value="&lt;font style=&quot;font-size: 18px;&quot;&gt;合作模式&lt;/font&gt;" style="rounded=1;whiteSpace=wrap;html=1;" vertex="1" parent="1">
          <mxGeometry x="-380" y="805" width="120" height="40" as="geometry" />
        </mxCell>
        <mxCell id="lcKwfboJeOzXyrMwoJOj-38" value="&lt;font style=&quot;font-size: 18px;&quot;&gt;费率&lt;/font&gt;" style="rounded=1;whiteSpace=wrap;html=1;" vertex="1" parent="1">
          <mxGeometry x="-240" y="805" width="120" height="40" as="geometry" />
        </mxCell>
        <mxCell id="lcKwfboJeOzXyrMwoJOj-39" value="&lt;span style=&quot;font-size: 18px;&quot;&gt;银行账户&lt;/span&gt;" style="rounded=1;whiteSpace=wrap;html=1;" vertex="1" parent="1">
          <mxGeometry x="-100" y="805" width="120" height="40" as="geometry" />
        </mxCell>
        <mxCell id="lcKwfboJeOzXyrMwoJOj-40" value="&lt;span style=&quot;font-size: 18px;&quot;&gt;营业执照&lt;/span&gt;" style="rounded=1;whiteSpace=wrap;html=1;" vertex="1" parent="1">
          <mxGeometry x="40" y="805" width="120" height="40" as="geometry" />
        </mxCell>
        <mxCell id="lcKwfboJeOzXyrMwoJOj-41" value="&lt;font style=&quot;font-size: 18px;&quot;&gt;发起日期&lt;/font&gt;" style="rounded=1;whiteSpace=wrap;html=1;" vertex="1" parent="1">
          <mxGeometry x="-750" y="730" width="120" height="40" as="geometry" />
        </mxCell>
        <mxCell id="lcKwfboJeOzXyrMwoJOj-44" style="edgeStyle=none;rounded=0;orthogonalLoop=1;jettySize=auto;html=1;entryX=0.5;entryY=0;entryDx=0;entryDy=0;fontSize=18;" edge="1" parent="1" source="lcKwfboJeOzXyrMwoJOj-46" target="lcKwfboJeOzXyrMwoJOj-47">
          <mxGeometry relative="1" as="geometry" />
        </mxCell>
        <mxCell id="lcKwfboJeOzXyrMwoJOj-45" style="edgeStyle=none;rounded=0;orthogonalLoop=1;jettySize=auto;html=1;entryX=0.5;entryY=0;entryDx=0;entryDy=0;fontSize=18;" edge="1" parent="1" source="lcKwfboJeOzXyrMwoJOj-46" target="lcKwfboJeOzXyrMwoJOj-48">
          <mxGeometry relative="1" as="geometry" />
        </mxCell>
        <mxCell id="lcKwfboJeOzXyrMwoJOj-46" value="&lt;span style=&quot;font-size: 18px;&quot;&gt;签约人&lt;/span&gt;" style="rounded=1;whiteSpace=wrap;html=1;" vertex="1" parent="1">
          <mxGeometry x="270" y="700" width="120" height="40" as="geometry" />
        </mxCell>
        <mxCell id="lcKwfboJeOzXyrMwoJOj-47" value="&lt;span style=&quot;font-size: 18px;&quot;&gt;姓名&lt;/span&gt;" style="rounded=1;whiteSpace=wrap;html=1;" vertex="1" parent="1">
          <mxGeometry x="200" y="805" width="120" height="40" as="geometry" />
        </mxCell>
        <mxCell id="lcKwfboJeOzXyrMwoJOj-48" value="&lt;span style=&quot;font-size: 18px;&quot;&gt;证件&lt;/span&gt;" style="rounded=1;whiteSpace=wrap;html=1;" vertex="1" parent="1">
          <mxGeometry x="340" y="805" width="120" height="40" as="geometry" />
        </mxCell>
        <mxCell id="lcKwfboJeOzXyrMwoJOj-49" value="Q：同一数据模型处理纸质合同和电子合同的服务？" style="text;html=1;strokeColor=none;fillColor=none;align=left;verticalAlign=middle;whiteSpace=wrap;rounded=0;fontSize=18;" vertex="1" parent="1">
          <mxGeometry x="-633" y="990" width="440" height="30" as="geometry" />
        </mxCell>
        <mxCell id="lcKwfboJeOzXyrMwoJOj-50" value="A：复用！复用！复用！" style="text;html=1;strokeColor=none;fillColor=none;align=left;verticalAlign=middle;whiteSpace=wrap;rounded=0;fontSize=18;" vertex="1" parent="1">
          <mxGeometry x="-633" y="1040" width="440" height="30" as="geometry" />
        </mxCell>
        <mxCell id="lcKwfboJeOzXyrMwoJOj-55" value="&lt;b&gt;&lt;font style=&quot;font-size: 24px;&quot;&gt;纸质合同管理&lt;/font&gt;&lt;/b&gt;" style="text;html=1;strokeColor=none;fillColor=none;align=center;verticalAlign=middle;whiteSpace=wrap;rounded=0;fontSize=18;" vertex="1" parent="1">
          <mxGeometry x="-380" y="50" width="170" height="30" as="geometry" />
        </mxCell>
        <mxCell id="lcKwfboJeOzXyrMwoJOj-57" value="&lt;b&gt;&lt;font style=&quot;font-size: 24px;&quot;&gt;电子合同管理&lt;/font&gt;&lt;/b&gt;" style="text;html=1;strokeColor=none;fillColor=none;align=center;verticalAlign=middle;whiteSpace=wrap;rounded=0;fontSize=18;" vertex="1" parent="1">
          <mxGeometry x="-350" y="500" width="170" height="30" as="geometry" />
        </mxCell>
      </root>
    </mxGraphModel>
  </diagram>
  <diagram id="0AmCfEy5k39KkKas_6xw" name="第 6 页">
    <mxGraphModel dx="1310" dy="773" grid="1" gridSize="10" guides="1" tooltips="1" connect="1" arrows="1" fold="1" page="1" pageScale="1" pageWidth="827" pageHeight="1169" math="0" shadow="0">
      <root>
        <mxCell id="0" />
        <mxCell id="1" parent="0" />
        <mxCell id="YNbiY2BGkBK8d4dN4Reu-60" value="" style="rounded=0;whiteSpace=wrap;html=1;fontSize=14;" vertex="1" parent="1">
          <mxGeometry x="190" y="40" width="810" height="520" as="geometry" />
        </mxCell>
        <mxCell id="YNbiY2BGkBK8d4dN4Reu-59" value="" style="rounded=0;whiteSpace=wrap;html=1;fontSize=14;" vertex="1" parent="1">
          <mxGeometry x="190" y="40" width="530" height="260" as="geometry" />
        </mxCell>
        <mxCell id="YNbiY2BGkBK8d4dN4Reu-26" style="edgeStyle=none;rounded=0;orthogonalLoop=1;jettySize=auto;html=1;entryX=0;entryY=1;entryDx=0;entryDy=0;fontSize=14;" edge="1" parent="1" source="YNbiY2BGkBK8d4dN4Reu-1" target="YNbiY2BGkBK8d4dN4Reu-2">
          <mxGeometry relative="1" as="geometry" />
        </mxCell>
        <mxCell id="YNbiY2BGkBK8d4dN4Reu-27" style="edgeStyle=none;rounded=0;orthogonalLoop=1;jettySize=auto;html=1;entryX=0.05;entryY=0.733;entryDx=0;entryDy=0;entryPerimeter=0;fontSize=14;" edge="1" parent="1" source="YNbiY2BGkBK8d4dN4Reu-1" target="YNbiY2BGkBK8d4dN4Reu-5">
          <mxGeometry relative="1" as="geometry" />
        </mxCell>
        <mxCell id="YNbiY2BGkBK8d4dN4Reu-28" style="edgeStyle=none;rounded=0;orthogonalLoop=1;jettySize=auto;html=1;entryX=0;entryY=0.5;entryDx=0;entryDy=0;fontSize=14;" edge="1" parent="1" source="YNbiY2BGkBK8d4dN4Reu-1" target="YNbiY2BGkBK8d4dN4Reu-6">
          <mxGeometry relative="1" as="geometry" />
        </mxCell>
        <mxCell id="YNbiY2BGkBK8d4dN4Reu-31" style="edgeStyle=none;rounded=0;orthogonalLoop=1;jettySize=auto;html=1;entryX=0;entryY=0.5;entryDx=0;entryDy=0;fontSize=14;" edge="1" parent="1" source="YNbiY2BGkBK8d4dN4Reu-1" target="YNbiY2BGkBK8d4dN4Reu-9">
          <mxGeometry relative="1" as="geometry" />
        </mxCell>
        <mxCell id="YNbiY2BGkBK8d4dN4Reu-44" style="edgeStyle=none;rounded=0;orthogonalLoop=1;jettySize=auto;html=1;fontSize=14;" edge="1" parent="1" source="YNbiY2BGkBK8d4dN4Reu-1" target="YNbiY2BGkBK8d4dN4Reu-13">
          <mxGeometry relative="1" as="geometry" />
        </mxCell>
        <mxCell id="YNbiY2BGkBK8d4dN4Reu-50" style="edgeStyle=none;rounded=0;orthogonalLoop=1;jettySize=auto;html=1;entryX=0;entryY=0;entryDx=0;entryDy=0;fontSize=14;" edge="1" parent="1" source="YNbiY2BGkBK8d4dN4Reu-1" target="YNbiY2BGkBK8d4dN4Reu-14">
          <mxGeometry relative="1" as="geometry" />
        </mxCell>
        <mxCell id="YNbiY2BGkBK8d4dN4Reu-1" value="&lt;font style=&quot;font-size: 18px;&quot;&gt;同程旅行&lt;/font&gt;" style="shape=umlActor;verticalLabelPosition=bottom;verticalAlign=top;html=1;outlineConnect=0;fontSize=24;" vertex="1" parent="1">
          <mxGeometry x="80" y="160" width="40" height="80" as="geometry" />
        </mxCell>
        <mxCell id="YNbiY2BGkBK8d4dN4Reu-2" value="&lt;font style=&quot;font-size: 14px;&quot;&gt;检索合同&lt;/font&gt;" style="ellipse;whiteSpace=wrap;html=1;fontSize=18;" vertex="1" parent="1">
          <mxGeometry x="220" y="70" width="100" height="30" as="geometry" />
        </mxCell>
        <mxCell id="YNbiY2BGkBK8d4dN4Reu-5" value="&lt;font style=&quot;font-size: 14px;&quot;&gt;合同归档&lt;/font&gt;" style="ellipse;whiteSpace=wrap;html=1;fontSize=18;" vertex="1" parent="1">
          <mxGeometry x="280" y="120" width="100" height="30" as="geometry" />
        </mxCell>
        <mxCell id="YNbiY2BGkBK8d4dN4Reu-29" style="edgeStyle=none;rounded=0;orthogonalLoop=1;jettySize=auto;html=1;entryX=0.5;entryY=0;entryDx=0;entryDy=0;fontSize=14;" edge="1" parent="1" source="YNbiY2BGkBK8d4dN4Reu-6" target="YNbiY2BGkBK8d4dN4Reu-7">
          <mxGeometry relative="1" as="geometry" />
        </mxCell>
        <mxCell id="YNbiY2BGkBK8d4dN4Reu-30" style="edgeStyle=none;rounded=0;orthogonalLoop=1;jettySize=auto;html=1;entryX=0.43;entryY=0.033;entryDx=0;entryDy=0;entryPerimeter=0;fontSize=14;" edge="1" parent="1" source="YNbiY2BGkBK8d4dN4Reu-6" target="YNbiY2BGkBK8d4dN4Reu-8">
          <mxGeometry relative="1" as="geometry" />
        </mxCell>
        <mxCell id="YNbiY2BGkBK8d4dN4Reu-6" value="&lt;font style=&quot;font-size: 14px;&quot;&gt;更新资质&lt;/font&gt;" style="ellipse;whiteSpace=wrap;html=1;fontSize=18;" vertex="1" parent="1">
          <mxGeometry x="280" y="185" width="100" height="30" as="geometry" />
        </mxCell>
        <mxCell id="YNbiY2BGkBK8d4dN4Reu-7" value="&lt;font style=&quot;font-size: 14px;&quot;&gt;上传授权书&lt;/font&gt;" style="ellipse;whiteSpace=wrap;html=1;fontSize=18;" vertex="1" parent="1">
          <mxGeometry x="230" y="250" width="100" height="30" as="geometry" />
        </mxCell>
        <mxCell id="YNbiY2BGkBK8d4dN4Reu-8" value="&lt;font style=&quot;font-size: 14px;&quot;&gt;上传合作附件&lt;/font&gt;" style="ellipse;whiteSpace=wrap;html=1;fontSize=18;" vertex="1" parent="1">
          <mxGeometry x="364" y="250" width="100" height="30" as="geometry" />
        </mxCell>
        <mxCell id="YNbiY2BGkBK8d4dN4Reu-32" style="edgeStyle=none;rounded=0;orthogonalLoop=1;jettySize=auto;html=1;entryX=0;entryY=0.5;entryDx=0;entryDy=0;fontSize=14;" edge="1" parent="1" source="YNbiY2BGkBK8d4dN4Reu-9" target="YNbiY2BGkBK8d4dN4Reu-10">
          <mxGeometry relative="1" as="geometry" />
        </mxCell>
        <mxCell id="YNbiY2BGkBK8d4dN4Reu-33" style="edgeStyle=none;rounded=0;orthogonalLoop=1;jettySize=auto;html=1;entryX=0;entryY=0.5;entryDx=0;entryDy=0;fontSize=14;" edge="1" parent="1" source="YNbiY2BGkBK8d4dN4Reu-9" target="YNbiY2BGkBK8d4dN4Reu-11">
          <mxGeometry relative="1" as="geometry" />
        </mxCell>
        <mxCell id="YNbiY2BGkBK8d4dN4Reu-34" style="edgeStyle=none;rounded=0;orthogonalLoop=1;jettySize=auto;html=1;entryX=0;entryY=0.5;entryDx=0;entryDy=0;fontSize=14;" edge="1" parent="1" source="YNbiY2BGkBK8d4dN4Reu-9" target="YNbiY2BGkBK8d4dN4Reu-12">
          <mxGeometry relative="1" as="geometry" />
        </mxCell>
        <mxCell id="YNbiY2BGkBK8d4dN4Reu-9" value="&lt;font style=&quot;font-size: 14px;&quot;&gt;录入合同&lt;/font&gt;" style="ellipse;whiteSpace=wrap;html=1;fontSize=18;" vertex="1" parent="1">
          <mxGeometry x="440" y="140" width="100" height="30" as="geometry" />
        </mxCell>
        <mxCell id="YNbiY2BGkBK8d4dN4Reu-10" value="&lt;font style=&quot;font-size: 14px;&quot;&gt;设置基本信息&lt;/font&gt;" style="ellipse;whiteSpace=wrap;html=1;fontSize=18;" vertex="1" parent="1">
          <mxGeometry x="580" y="70" width="100" height="30" as="geometry" />
        </mxCell>
        <mxCell id="YNbiY2BGkBK8d4dN4Reu-11" value="&lt;font style=&quot;font-size: 14px;&quot;&gt;设置签约业务&lt;/font&gt;" style="ellipse;whiteSpace=wrap;html=1;fontSize=18;" vertex="1" parent="1">
          <mxGeometry x="600" y="130" width="100" height="30" as="geometry" />
        </mxCell>
        <mxCell id="YNbiY2BGkBK8d4dN4Reu-12" value="&lt;font style=&quot;font-size: 14px;&quot;&gt;提交正式合同&lt;/font&gt;" style="ellipse;whiteSpace=wrap;html=1;fontSize=18;" vertex="1" parent="1">
          <mxGeometry x="590" y="190" width="100" height="30" as="geometry" />
        </mxCell>
        <mxCell id="YNbiY2BGkBK8d4dN4Reu-51" style="edgeStyle=none;rounded=0;orthogonalLoop=1;jettySize=auto;html=1;entryX=0;entryY=0.5;entryDx=0;entryDy=0;fontSize=14;" edge="1" parent="1" source="YNbiY2BGkBK8d4dN4Reu-13" target="YNbiY2BGkBK8d4dN4Reu-15">
          <mxGeometry relative="1" as="geometry" />
        </mxCell>
        <mxCell id="YNbiY2BGkBK8d4dN4Reu-53" style="edgeStyle=none;rounded=0;orthogonalLoop=1;jettySize=auto;html=1;entryX=0.5;entryY=0;entryDx=0;entryDy=0;fontSize=14;" edge="1" parent="1" source="YNbiY2BGkBK8d4dN4Reu-13" target="YNbiY2BGkBK8d4dN4Reu-16">
          <mxGeometry relative="1" as="geometry" />
        </mxCell>
        <mxCell id="YNbiY2BGkBK8d4dN4Reu-55" style="edgeStyle=orthogonalEdgeStyle;rounded=0;orthogonalLoop=1;jettySize=auto;html=1;entryX=0.5;entryY=0;entryDx=0;entryDy=0;fontSize=14;curved=1;exitX=1;exitY=0.5;exitDx=0;exitDy=0;" edge="1" parent="1" source="YNbiY2BGkBK8d4dN4Reu-13" target="YNbiY2BGkBK8d4dN4Reu-18">
          <mxGeometry relative="1" as="geometry">
            <Array as="points">
              <mxPoint x="300" y="400" />
              <mxPoint x="550" y="400" />
            </Array>
          </mxGeometry>
        </mxCell>
        <mxCell id="YNbiY2BGkBK8d4dN4Reu-13" value="&lt;font style=&quot;font-size: 14px;&quot;&gt;发起合同签约&lt;/font&gt;" style="ellipse;whiteSpace=wrap;html=1;fontSize=18;" vertex="1" parent="1">
          <mxGeometry x="200" y="360" width="100" height="30" as="geometry" />
        </mxCell>
        <mxCell id="YNbiY2BGkBK8d4dN4Reu-52" style="edgeStyle=none;rounded=0;orthogonalLoop=1;jettySize=auto;html=1;entryX=0;entryY=0.5;entryDx=0;entryDy=0;fontSize=14;" edge="1" parent="1" source="YNbiY2BGkBK8d4dN4Reu-14" target="YNbiY2BGkBK8d4dN4Reu-16">
          <mxGeometry relative="1" as="geometry" />
        </mxCell>
        <mxCell id="YNbiY2BGkBK8d4dN4Reu-54" style="edgeStyle=none;rounded=0;orthogonalLoop=1;jettySize=auto;html=1;entryX=0;entryY=0.5;entryDx=0;entryDy=0;fontSize=14;" edge="1" parent="1" source="YNbiY2BGkBK8d4dN4Reu-14" target="YNbiY2BGkBK8d4dN4Reu-18">
          <mxGeometry relative="1" as="geometry" />
        </mxCell>
        <mxCell id="YNbiY2BGkBK8d4dN4Reu-14" value="&lt;span style=&quot;font-size: 14px;&quot;&gt;发起合同修订&lt;/span&gt;" style="ellipse;whiteSpace=wrap;html=1;fontSize=18;" vertex="1" parent="1">
          <mxGeometry x="200" y="430" width="100" height="30" as="geometry" />
        </mxCell>
        <mxCell id="YNbiY2BGkBK8d4dN4Reu-56" style="rounded=0;orthogonalLoop=1;jettySize=auto;html=1;entryX=0;entryY=0.267;entryDx=0;entryDy=0;entryPerimeter=0;fontSize=14;" edge="1" parent="1" source="YNbiY2BGkBK8d4dN4Reu-15" target="YNbiY2BGkBK8d4dN4Reu-17">
          <mxGeometry relative="1" as="geometry" />
        </mxCell>
        <mxCell id="YNbiY2BGkBK8d4dN4Reu-15" value="&lt;font style=&quot;font-size: 14px;&quot;&gt;设置签约信息&lt;/font&gt;" style="ellipse;whiteSpace=wrap;html=1;fontSize=18;" vertex="1" parent="1">
          <mxGeometry x="350" y="350" width="100" height="30" as="geometry" />
        </mxCell>
        <mxCell id="YNbiY2BGkBK8d4dN4Reu-16" value="&lt;font style=&quot;font-size: 14px;&quot;&gt;设置签约业务&lt;/font&gt;" style="ellipse;whiteSpace=wrap;html=1;fontSize=18;" vertex="1" parent="1">
          <mxGeometry x="330" y="420" width="100" height="30" as="geometry" />
        </mxCell>
        <mxCell id="YNbiY2BGkBK8d4dN4Reu-17" value="&lt;font style=&quot;font-size: 14px;&quot;&gt;设置合同有效期&lt;/font&gt;" style="ellipse;whiteSpace=wrap;html=1;fontSize=18;" vertex="1" parent="1">
          <mxGeometry x="490" y="370" width="120" height="30" as="geometry" />
        </mxCell>
        <mxCell id="YNbiY2BGkBK8d4dN4Reu-18" value="&lt;font style=&quot;font-size: 14px;&quot;&gt;发送签约链接&lt;/font&gt;" style="ellipse;whiteSpace=wrap;html=1;fontSize=18;" vertex="1" parent="1">
          <mxGeometry x="500" y="470" width="100" height="30" as="geometry" />
        </mxCell>
        <mxCell id="YNbiY2BGkBK8d4dN4Reu-37" style="edgeStyle=none;rounded=0;orthogonalLoop=1;jettySize=auto;html=1;entryX=1;entryY=0.5;entryDx=0;entryDy=0;fontSize=14;" edge="1" parent="1" source="YNbiY2BGkBK8d4dN4Reu-19" target="YNbiY2BGkBK8d4dN4Reu-12">
          <mxGeometry relative="1" as="geometry" />
        </mxCell>
        <mxCell id="YNbiY2BGkBK8d4dN4Reu-38" style="edgeStyle=none;rounded=0;orthogonalLoop=1;jettySize=auto;html=1;entryX=0.97;entryY=0.733;entryDx=0;entryDy=0;entryPerimeter=0;fontSize=14;" edge="1" parent="1" source="YNbiY2BGkBK8d4dN4Reu-19" target="YNbiY2BGkBK8d4dN4Reu-20">
          <mxGeometry relative="1" as="geometry" />
        </mxCell>
        <mxCell id="YNbiY2BGkBK8d4dN4Reu-39" style="edgeStyle=none;rounded=0;orthogonalLoop=1;jettySize=auto;html=1;entryX=1;entryY=0.5;entryDx=0;entryDy=0;fontSize=14;" edge="1" parent="1" source="YNbiY2BGkBK8d4dN4Reu-19" target="YNbiY2BGkBK8d4dN4Reu-21">
          <mxGeometry relative="1" as="geometry" />
        </mxCell>
        <mxCell id="YNbiY2BGkBK8d4dN4Reu-61" style="edgeStyle=none;rounded=0;orthogonalLoop=1;jettySize=auto;html=1;entryX=0.586;entryY=0.047;entryDx=0;entryDy=0;entryPerimeter=0;fontSize=14;" edge="1" parent="1" source="YNbiY2BGkBK8d4dN4Reu-19" target="YNbiY2BGkBK8d4dN4Reu-23">
          <mxGeometry relative="1" as="geometry" />
        </mxCell>
        <mxCell id="YNbiY2BGkBK8d4dN4Reu-19" value="&lt;font style=&quot;font-size: 14px;&quot;&gt;合同签约&lt;/font&gt;" style="ellipse;whiteSpace=wrap;html=1;fontSize=18;" vertex="1" parent="1">
          <mxGeometry x="860" y="360" width="100" height="30" as="geometry" />
        </mxCell>
        <mxCell id="YNbiY2BGkBK8d4dN4Reu-20" value="&lt;span style=&quot;font-size: 14px;&quot;&gt;商家实名认证&lt;/span&gt;" style="ellipse;whiteSpace=wrap;html=1;fontSize=18;" vertex="1" parent="1">
          <mxGeometry x="697" y="320" width="100" height="30" as="geometry" />
        </mxCell>
        <mxCell id="YNbiY2BGkBK8d4dN4Reu-21" value="&lt;font style=&quot;font-size: 14px;&quot;&gt;填写合同信息&lt;/font&gt;" style="ellipse;whiteSpace=wrap;html=1;fontSize=18;" vertex="1" parent="1">
          <mxGeometry x="680" y="380" width="100" height="30" as="geometry" />
        </mxCell>
        <mxCell id="YNbiY2BGkBK8d4dN4Reu-42" style="edgeStyle=none;rounded=0;orthogonalLoop=1;jettySize=auto;html=1;entryX=0.23;entryY=0.967;entryDx=0;entryDy=0;entryPerimeter=0;fontSize=14;" edge="1" parent="1" source="YNbiY2BGkBK8d4dN4Reu-22" target="YNbiY2BGkBK8d4dN4Reu-19">
          <mxGeometry relative="1" as="geometry" />
        </mxCell>
        <mxCell id="YNbiY2BGkBK8d4dN4Reu-22" value="&lt;font style=&quot;font-size: 14px;&quot;&gt;补充自动续期协议&lt;/font&gt;" style="ellipse;whiteSpace=wrap;html=1;fontSize=18;" vertex="1" parent="1">
          <mxGeometry x="690" y="440" width="130" height="30" as="geometry" />
        </mxCell>
        <mxCell id="YNbiY2BGkBK8d4dN4Reu-23" value="&lt;font style=&quot;font-size: 14px;&quot;&gt;签署合同&lt;/font&gt;" style="ellipse;whiteSpace=wrap;html=1;fontSize=18;" vertex="1" parent="1">
          <mxGeometry x="790" y="490" width="100" height="30" as="geometry" />
        </mxCell>
        <mxCell id="YNbiY2BGkBK8d4dN4Reu-24" value="&lt;font style=&quot;font-size: 14px;&quot;&gt;查看合同条款&lt;/font&gt;" style="ellipse;whiteSpace=wrap;html=1;fontSize=18;" vertex="1" parent="1">
          <mxGeometry x="860" y="130" width="100" height="30" as="geometry" />
        </mxCell>
        <mxCell id="YNbiY2BGkBK8d4dN4Reu-57" style="edgeStyle=none;rounded=0;orthogonalLoop=1;jettySize=auto;html=1;fontSize=14;" edge="1" parent="1" source="YNbiY2BGkBK8d4dN4Reu-25" target="YNbiY2BGkBK8d4dN4Reu-24">
          <mxGeometry relative="1" as="geometry" />
        </mxCell>
        <mxCell id="YNbiY2BGkBK8d4dN4Reu-58" style="edgeStyle=none;rounded=0;orthogonalLoop=1;jettySize=auto;html=1;entryX=1.02;entryY=0.233;entryDx=0;entryDy=0;entryPerimeter=0;fontSize=14;" edge="1" parent="1" source="YNbiY2BGkBK8d4dN4Reu-25" target="YNbiY2BGkBK8d4dN4Reu-19">
          <mxGeometry relative="1" as="geometry" />
        </mxCell>
        <mxCell id="YNbiY2BGkBK8d4dN4Reu-25" value="&lt;font style=&quot;font-size: 18px;&quot;&gt;商家&lt;/font&gt;" style="shape=umlActor;verticalLabelPosition=bottom;verticalAlign=top;html=1;outlineConnect=0;fontSize=24;" vertex="1" parent="1">
          <mxGeometry x="1090" y="225" width="40" height="80" as="geometry" />
        </mxCell>
        <mxCell id="YNbiY2BGkBK8d4dN4Reu-35" value="&lt;b&gt;合同管理&lt;/b&gt;" style="text;html=1;strokeColor=none;fillColor=none;align=center;verticalAlign=middle;whiteSpace=wrap;rounded=0;fontSize=14;" vertex="1" parent="1">
          <mxGeometry x="404" y="50" width="60" height="30" as="geometry" />
        </mxCell>
        <mxCell id="YNbiY2BGkBK8d4dN4Reu-36" value="&lt;b&gt;合同管理&lt;/b&gt;" style="text;html=1;strokeColor=none;fillColor=none;align=center;verticalAlign=middle;whiteSpace=wrap;rounded=0;fontSize=14;" vertex="1" parent="1">
          <mxGeometry x="870" y="50" width="60" height="30" as="geometry" />
        </mxCell>
      </root>
    </mxGraphModel>
  </diagram>
  <diagram id="mIAIfzkPlu4TbEpTpcei" name="第 7 页">
    <mxGraphModel dx="827" dy="488" grid="1" gridSize="10" guides="1" tooltips="1" connect="1" arrows="1" fold="1" page="1" pageScale="1" pageWidth="827" pageHeight="1169" math="0" shadow="0">
      <root>
        <mxCell id="0" />
        <mxCell id="1" parent="0" />
        <mxCell id="w4GEOD6KujW3WBUc8oY1-1" value="&lt;b&gt;&lt;font style=&quot;font-size: 18px;&quot;&gt;数据驱动设计结果&lt;/font&gt;&lt;/b&gt;" style="text;html=1;strokeColor=none;fillColor=none;align=center;verticalAlign=middle;whiteSpace=wrap;rounded=0;fontSize=14;" vertex="1" parent="1">
          <mxGeometry x="100" y="40" width="160" height="30" as="geometry" />
        </mxCell>
        <mxCell id="w4GEOD6KujW3WBUc8oY1-2" value="&lt;b&gt;&lt;font style=&quot;font-size: 18px;&quot;&gt;领域驱动设计结果&lt;/font&gt;&lt;/b&gt;" style="text;html=1;strokeColor=none;fillColor=none;align=center;verticalAlign=middle;whiteSpace=wrap;rounded=0;fontSize=14;" vertex="1" parent="1">
          <mxGeometry x="490" y="40" width="170" height="30" as="geometry" />
        </mxCell>
        <mxCell id="-9eax37xihlXD_C9MUJc-1" style="edgeStyle=none;rounded=0;orthogonalLoop=1;jettySize=auto;html=1;entryX=0.5;entryY=0;entryDx=0;entryDy=0;fontSize=18;fontColor=#121212;elbow=vertical;" edge="1" parent="1" source="w4GEOD6KujW3WBUc8oY1-3" target="w4GEOD6KujW3WBUc8oY1-6">
          <mxGeometry relative="1" as="geometry" />
        </mxCell>
        <mxCell id="-9eax37xihlXD_C9MUJc-5" style="edgeStyle=orthogonalEdgeStyle;rounded=0;orthogonalLoop=1;jettySize=auto;html=1;entryX=0;entryY=0.5;entryDx=0;entryDy=0;fontSize=18;fontColor=#121212;elbow=vertical;" edge="1" parent="1" source="w4GEOD6KujW3WBUc8oY1-3" target="w4GEOD6KujW3WBUc8oY1-8">
          <mxGeometry relative="1" as="geometry">
            <Array as="points">
              <mxPoint x="120" y="150" />
              <mxPoint x="120" y="305" />
            </Array>
          </mxGeometry>
        </mxCell>
        <mxCell id="w4GEOD6KujW3WBUc8oY1-3" value="录入合同" style="rounded=0;whiteSpace=wrap;html=1;fontSize=14;" vertex="1" parent="1">
          <mxGeometry x="130" y="130" width="40" height="40" as="geometry" />
        </mxCell>
        <mxCell id="-9eax37xihlXD_C9MUJc-2" style="edgeStyle=none;rounded=0;orthogonalLoop=1;jettySize=auto;html=1;entryX=0.75;entryY=0;entryDx=0;entryDy=0;fontSize=18;fontColor=#121212;elbow=vertical;" edge="1" parent="1" source="w4GEOD6KujW3WBUc8oY1-4" target="w4GEOD6KujW3WBUc8oY1-6">
          <mxGeometry relative="1" as="geometry" />
        </mxCell>
        <mxCell id="-9eax37xihlXD_C9MUJc-3" style="edgeStyle=none;rounded=0;orthogonalLoop=1;jettySize=auto;html=1;entryX=0.5;entryY=0;entryDx=0;entryDy=0;fontSize=18;fontColor=#121212;elbow=vertical;" edge="1" parent="1" source="w4GEOD6KujW3WBUc8oY1-4" target="w4GEOD6KujW3WBUc8oY1-7">
          <mxGeometry relative="1" as="geometry" />
        </mxCell>
        <mxCell id="w4GEOD6KujW3WBUc8oY1-4" value="发起签约" style="rounded=0;whiteSpace=wrap;html=1;fontSize=14;" vertex="1" parent="1">
          <mxGeometry x="180" y="130" width="40" height="40" as="geometry" />
        </mxCell>
        <mxCell id="-9eax37xihlXD_C9MUJc-4" style="edgeStyle=none;rounded=0;orthogonalLoop=1;jettySize=auto;html=1;entryX=0.75;entryY=0;entryDx=0;entryDy=0;fontSize=18;fontColor=#121212;elbow=vertical;" edge="1" parent="1" source="w4GEOD6KujW3WBUc8oY1-5" target="w4GEOD6KujW3WBUc8oY1-7">
          <mxGeometry relative="1" as="geometry" />
        </mxCell>
        <mxCell id="-9eax37xihlXD_C9MUJc-6" style="edgeStyle=orthogonalEdgeStyle;rounded=0;orthogonalLoop=1;jettySize=auto;html=1;entryX=1;entryY=0.5;entryDx=0;entryDy=0;fontSize=18;fontColor=#121212;elbow=vertical;" edge="1" parent="1" source="w4GEOD6KujW3WBUc8oY1-5" target="w4GEOD6KujW3WBUc8oY1-8">
          <mxGeometry relative="1" as="geometry">
            <Array as="points">
              <mxPoint x="250" y="305" />
            </Array>
          </mxGeometry>
        </mxCell>
        <mxCell id="w4GEOD6KujW3WBUc8oY1-5" value="商家签约" style="rounded=0;whiteSpace=wrap;html=1;fontSize=14;" vertex="1" parent="1">
          <mxGeometry x="230" y="130" width="40" height="40" as="geometry" />
        </mxCell>
        <mxCell id="w4GEOD6KujW3WBUc8oY1-6" value="添加合同" style="rounded=0;whiteSpace=wrap;html=1;fontSize=14;" vertex="1" parent="1">
          <mxGeometry x="130" y="210" width="40" height="40" as="geometry" />
        </mxCell>
        <mxCell id="w4GEOD6KujW3WBUc8oY1-7" value="修改合同" style="rounded=0;whiteSpace=wrap;html=1;fontSize=14;" vertex="1" parent="1">
          <mxGeometry x="180" y="210" width="40" height="40" as="geometry" />
        </mxCell>
        <mxCell id="-9eax37xihlXD_C9MUJc-7" style="edgeStyle=orthogonalEdgeStyle;rounded=0;orthogonalLoop=1;jettySize=auto;html=1;entryX=0.5;entryY=0;entryDx=0;entryDy=0;entryPerimeter=0;fontSize=18;fontColor=#121212;elbow=vertical;" edge="1" parent="1" source="w4GEOD6KujW3WBUc8oY1-8" target="w4GEOD6KujW3WBUc8oY1-37">
          <mxGeometry relative="1" as="geometry" />
        </mxCell>
        <mxCell id="w4GEOD6KujW3WBUc8oY1-8" value="数据模型" style="rounded=0;whiteSpace=wrap;html=1;fontSize=14;" vertex="1" parent="1">
          <mxGeometry x="160" y="285" width="40" height="40" as="geometry" />
        </mxCell>
        <mxCell id="w4GEOD6KujW3WBUc8oY1-10" value="应用层" style="text;html=1;strokeColor=none;fillColor=none;align=center;verticalAlign=middle;whiteSpace=wrap;rounded=0;fontSize=14;" vertex="1" parent="1">
          <mxGeometry x="50" y="140" width="60" height="30" as="geometry" />
        </mxCell>
        <mxCell id="w4GEOD6KujW3WBUc8oY1-11" value="服务层" style="text;html=1;strokeColor=none;fillColor=none;align=center;verticalAlign=middle;whiteSpace=wrap;rounded=0;fontSize=14;" vertex="1" parent="1">
          <mxGeometry x="50" y="215" width="60" height="30" as="geometry" />
        </mxCell>
        <mxCell id="w4GEOD6KujW3WBUc8oY1-12" value="数据层" style="text;html=1;strokeColor=none;fillColor=none;align=center;verticalAlign=middle;whiteSpace=wrap;rounded=0;fontSize=14;" vertex="1" parent="1">
          <mxGeometry x="50" y="290" width="60" height="30" as="geometry" />
        </mxCell>
        <mxCell id="-9eax37xihlXD_C9MUJc-8" style="edgeStyle=orthogonalEdgeStyle;rounded=0;orthogonalLoop=1;jettySize=auto;html=1;entryX=0.5;entryY=0;entryDx=0;entryDy=0;fontSize=18;fontColor=#121212;elbow=vertical;" edge="1" parent="1" source="w4GEOD6KujW3WBUc8oY1-13" target="w4GEOD6KujW3WBUc8oY1-16">
          <mxGeometry relative="1" as="geometry" />
        </mxCell>
        <mxCell id="-9eax37xihlXD_C9MUJc-9" style="rounded=0;orthogonalLoop=1;jettySize=auto;html=1;entryX=0.5;entryY=0;entryDx=0;entryDy=0;fontSize=18;fontColor=#121212;elbow=vertical;" edge="1" parent="1" source="w4GEOD6KujW3WBUc8oY1-13" target="w4GEOD6KujW3WBUc8oY1-17">
          <mxGeometry relative="1" as="geometry" />
        </mxCell>
        <mxCell id="w4GEOD6KujW3WBUc8oY1-13" value="录入合同" style="rounded=0;whiteSpace=wrap;html=1;fontSize=14;" vertex="1" parent="1">
          <mxGeometry x="390" y="125" width="40" height="40" as="geometry" />
        </mxCell>
        <mxCell id="-9eax37xihlXD_C9MUJc-10" style="edgeStyle=none;rounded=0;orthogonalLoop=1;jettySize=auto;html=1;entryX=0.75;entryY=0;entryDx=0;entryDy=0;fontSize=18;fontColor=#121212;elbow=vertical;" edge="1" parent="1" source="w4GEOD6KujW3WBUc8oY1-14" target="w4GEOD6KujW3WBUc8oY1-16">
          <mxGeometry relative="1" as="geometry" />
        </mxCell>
        <mxCell id="-9eax37xihlXD_C9MUJc-11" style="edgeStyle=none;rounded=0;orthogonalLoop=1;jettySize=auto;html=1;entryX=0.5;entryY=0;entryDx=0;entryDy=0;fontSize=18;fontColor=#121212;elbow=vertical;" edge="1" parent="1" source="w4GEOD6KujW3WBUc8oY1-14" target="w4GEOD6KujW3WBUc8oY1-17">
          <mxGeometry relative="1" as="geometry" />
        </mxCell>
        <mxCell id="w4GEOD6KujW3WBUc8oY1-14" value="更新合同" style="rounded=0;whiteSpace=wrap;html=1;fontSize=14;" vertex="1" parent="1">
          <mxGeometry x="450" y="125" width="40" height="40" as="geometry" />
        </mxCell>
        <mxCell id="-9eax37xihlXD_C9MUJc-12" style="edgeStyle=none;rounded=0;orthogonalLoop=1;jettySize=auto;html=1;entryX=0.5;entryY=0;entryDx=0;entryDy=0;fontSize=18;fontColor=#121212;elbow=vertical;" edge="1" parent="1" source="w4GEOD6KujW3WBUc8oY1-15" target="w4GEOD6KujW3WBUc8oY1-17">
          <mxGeometry relative="1" as="geometry" />
        </mxCell>
        <mxCell id="w4GEOD6KujW3WBUc8oY1-15" value="查看合同" style="rounded=0;whiteSpace=wrap;html=1;fontSize=14;" vertex="1" parent="1">
          <mxGeometry x="505" y="125" width="40" height="40" as="geometry" />
        </mxCell>
        <mxCell id="w4GEOD6KujW3WBUc8oY1-16" value="合同模型" style="rounded=0;whiteSpace=wrap;html=1;fontSize=14;fillColor=#cce5ff;strokeColor=#36393d;" vertex="1" parent="1">
          <mxGeometry x="390" y="205" width="40" height="40" as="geometry" />
        </mxCell>
        <mxCell id="w4GEOD6KujW3WBUc8oY1-17" value="合同服务" style="rounded=0;whiteSpace=wrap;html=1;fontSize=14;fillColor=#cce5ff;strokeColor=#36393d;" vertex="1" parent="1">
          <mxGeometry x="450" y="205" width="40" height="40" as="geometry" />
        </mxCell>
        <mxCell id="w4GEOD6KujW3WBUc8oY1-18" value="数据模型" style="rounded=0;whiteSpace=wrap;html=1;fontSize=14;" vertex="1" parent="1">
          <mxGeometry x="390" y="280" width="40" height="40" as="geometry" />
        </mxCell>
        <mxCell id="w4GEOD6KujW3WBUc8oY1-20" value="应用层" style="text;html=1;strokeColor=none;fillColor=none;align=center;verticalAlign=middle;whiteSpace=wrap;rounded=0;fontSize=14;" vertex="1" parent="1">
          <mxGeometry x="310" y="135" width="60" height="30" as="geometry" />
        </mxCell>
        <mxCell id="w4GEOD6KujW3WBUc8oY1-21" value="服务层" style="text;html=1;strokeColor=none;fillColor=none;align=center;verticalAlign=middle;whiteSpace=wrap;rounded=0;fontSize=14;" vertex="1" parent="1">
          <mxGeometry x="310" y="210" width="60" height="30" as="geometry" />
        </mxCell>
        <mxCell id="w4GEOD6KujW3WBUc8oY1-22" value="数据层" style="text;html=1;strokeColor=none;fillColor=none;align=center;verticalAlign=middle;whiteSpace=wrap;rounded=0;fontSize=14;" vertex="1" parent="1">
          <mxGeometry x="310" y="285" width="60" height="30" as="geometry" />
        </mxCell>
        <mxCell id="w4GEOD6KujW3WBUc8oY1-23" value="资源库接口" style="rounded=0;whiteSpace=wrap;html=1;fontSize=14;" vertex="1" parent="1">
          <mxGeometry x="510" y="205" width="50" height="40" as="geometry" />
        </mxCell>
        <mxCell id="-9eax37xihlXD_C9MUJc-13" style="edgeStyle=none;rounded=0;orthogonalLoop=1;jettySize=auto;html=1;entryX=1;entryY=0.5;entryDx=0;entryDy=0;fontSize=18;fontColor=#121212;elbow=vertical;" edge="1" parent="1" source="w4GEOD6KujW3WBUc8oY1-24" target="w4GEOD6KujW3WBUc8oY1-18">
          <mxGeometry relative="1" as="geometry" />
        </mxCell>
        <mxCell id="-9eax37xihlXD_C9MUJc-14" style="edgeStyle=none;rounded=0;orthogonalLoop=1;jettySize=auto;html=1;entryX=0.5;entryY=1;entryDx=0;entryDy=0;fontSize=18;fontColor=#121212;elbow=vertical;" edge="1" parent="1" source="w4GEOD6KujW3WBUc8oY1-24" target="w4GEOD6KujW3WBUc8oY1-23">
          <mxGeometry relative="1" as="geometry" />
        </mxCell>
        <mxCell id="-9eax37xihlXD_C9MUJc-15" style="edgeStyle=none;rounded=0;orthogonalLoop=1;jettySize=auto;html=1;entryX=0.5;entryY=0;entryDx=0;entryDy=0;entryPerimeter=0;fontSize=18;fontColor=#121212;elbow=vertical;" edge="1" parent="1" source="w4GEOD6KujW3WBUc8oY1-24" target="w4GEOD6KujW3WBUc8oY1-36">
          <mxGeometry relative="1" as="geometry" />
        </mxCell>
        <mxCell id="w4GEOD6KujW3WBUc8oY1-24" value="资源库实现" style="rounded=0;whiteSpace=wrap;html=1;fontSize=14;" vertex="1" parent="1">
          <mxGeometry x="510" y="275" width="50" height="40" as="geometry" />
        </mxCell>
        <mxCell id="-9eax37xihlXD_C9MUJc-16" style="edgeStyle=none;rounded=0;orthogonalLoop=1;jettySize=auto;html=1;entryX=0.5;entryY=0;entryDx=0;entryDy=0;fontSize=18;fontColor=#121212;elbow=vertical;" edge="1" parent="1" source="w4GEOD6KujW3WBUc8oY1-25" target="w4GEOD6KujW3WBUc8oY1-34">
          <mxGeometry relative="1" as="geometry" />
        </mxCell>
        <mxCell id="-9eax37xihlXD_C9MUJc-20" style="edgeStyle=none;rounded=0;orthogonalLoop=1;jettySize=auto;html=1;entryX=0.25;entryY=0;entryDx=0;entryDy=0;fontSize=18;fontColor=#121212;elbow=vertical;" edge="1" parent="1" source="w4GEOD6KujW3WBUc8oY1-25" target="w4GEOD6KujW3WBUc8oY1-35">
          <mxGeometry relative="1" as="geometry" />
        </mxCell>
        <mxCell id="w4GEOD6KujW3WBUc8oY1-25" value="发起签约" style="rounded=0;whiteSpace=wrap;html=1;fontSize=14;" vertex="1" parent="1">
          <mxGeometry x="620" y="125" width="40" height="40" as="geometry" />
        </mxCell>
        <mxCell id="-9eax37xihlXD_C9MUJc-17" style="edgeStyle=none;rounded=0;orthogonalLoop=1;jettySize=auto;html=1;entryX=0.75;entryY=0;entryDx=0;entryDy=0;fontSize=18;fontColor=#121212;elbow=vertical;" edge="1" parent="1" source="w4GEOD6KujW3WBUc8oY1-26" target="w4GEOD6KujW3WBUc8oY1-34">
          <mxGeometry relative="1" as="geometry" />
        </mxCell>
        <mxCell id="-9eax37xihlXD_C9MUJc-18" style="edgeStyle=none;rounded=0;orthogonalLoop=1;jettySize=auto;html=1;entryX=0.5;entryY=0;entryDx=0;entryDy=0;fontSize=18;fontColor=#121212;elbow=vertical;" edge="1" parent="1" source="w4GEOD6KujW3WBUc8oY1-26" target="w4GEOD6KujW3WBUc8oY1-35">
          <mxGeometry relative="1" as="geometry" />
        </mxCell>
        <mxCell id="w4GEOD6KujW3WBUc8oY1-26" value="发起修订" style="rounded=0;whiteSpace=wrap;html=1;fontSize=14;" vertex="1" parent="1">
          <mxGeometry x="680" y="125" width="40" height="40" as="geometry" />
        </mxCell>
        <mxCell id="-9eax37xihlXD_C9MUJc-19" style="edgeStyle=none;rounded=0;orthogonalLoop=1;jettySize=auto;html=1;entryX=0.75;entryY=0;entryDx=0;entryDy=0;fontSize=18;fontColor=#121212;elbow=vertical;" edge="1" parent="1" source="w4GEOD6KujW3WBUc8oY1-27" target="w4GEOD6KujW3WBUc8oY1-35">
          <mxGeometry relative="1" as="geometry" />
        </mxCell>
        <mxCell id="w4GEOD6KujW3WBUc8oY1-27" value="查看签约" style="rounded=0;whiteSpace=wrap;html=1;fontSize=14;" vertex="1" parent="1">
          <mxGeometry x="740" y="125" width="40" height="40" as="geometry" />
        </mxCell>
        <mxCell id="w4GEOD6KujW3WBUc8oY1-30" value="数据模型" style="rounded=0;whiteSpace=wrap;html=1;fontSize=14;" vertex="1" parent="1">
          <mxGeometry x="620" y="275" width="40" height="40" as="geometry" />
        </mxCell>
        <mxCell id="w4GEOD6KujW3WBUc8oY1-31" value="DB" style="shape=cylinder3;whiteSpace=wrap;html=1;boundedLbl=1;backgroundOutline=1;size=15;fontSize=14;" vertex="1" parent="1">
          <mxGeometry x="660" y="345" width="50" height="50" as="geometry" />
        </mxCell>
        <mxCell id="w4GEOD6KujW3WBUc8oY1-32" value="资源库接口" style="rounded=0;whiteSpace=wrap;html=1;fontSize=14;" vertex="1" parent="1">
          <mxGeometry x="740" y="200" width="50" height="40" as="geometry" />
        </mxCell>
        <mxCell id="-9eax37xihlXD_C9MUJc-21" style="edgeStyle=none;rounded=0;orthogonalLoop=1;jettySize=auto;html=1;entryX=1;entryY=0.5;entryDx=0;entryDy=0;fontSize=18;fontColor=#121212;elbow=vertical;" edge="1" parent="1" source="w4GEOD6KujW3WBUc8oY1-33" target="w4GEOD6KujW3WBUc8oY1-30">
          <mxGeometry relative="1" as="geometry" />
        </mxCell>
        <mxCell id="-9eax37xihlXD_C9MUJc-22" style="edgeStyle=none;rounded=0;orthogonalLoop=1;jettySize=auto;html=1;entryX=0.5;entryY=0;entryDx=0;entryDy=0;entryPerimeter=0;fontSize=18;fontColor=#121212;elbow=vertical;" edge="1" parent="1" source="w4GEOD6KujW3WBUc8oY1-33" target="w4GEOD6KujW3WBUc8oY1-31">
          <mxGeometry relative="1" as="geometry" />
        </mxCell>
        <mxCell id="-9eax37xihlXD_C9MUJc-23" style="edgeStyle=none;rounded=0;orthogonalLoop=1;jettySize=auto;html=1;entryX=0.5;entryY=1;entryDx=0;entryDy=0;fontSize=18;fontColor=#121212;elbow=vertical;" edge="1" parent="1" source="w4GEOD6KujW3WBUc8oY1-33" target="w4GEOD6KujW3WBUc8oY1-32">
          <mxGeometry relative="1" as="geometry" />
        </mxCell>
        <mxCell id="w4GEOD6KujW3WBUc8oY1-33" value="资源库实现" style="rounded=0;whiteSpace=wrap;html=1;fontSize=14;" vertex="1" parent="1">
          <mxGeometry x="690" y="275" width="50" height="40" as="geometry" />
        </mxCell>
        <mxCell id="w4GEOD6KujW3WBUc8oY1-34" value="签约模型" style="rounded=0;whiteSpace=wrap;html=1;fontSize=14;fillColor=#cce5ff;strokeColor=#36393d;" vertex="1" parent="1">
          <mxGeometry x="620" y="200" width="40" height="40" as="geometry" />
        </mxCell>
        <mxCell id="w4GEOD6KujW3WBUc8oY1-35" value="签约服务" style="rounded=0;whiteSpace=wrap;html=1;fontSize=14;fillColor=#cce5ff;strokeColor=#36393d;" vertex="1" parent="1">
          <mxGeometry x="680" y="200" width="40" height="40" as="geometry" />
        </mxCell>
        <mxCell id="w4GEOD6KujW3WBUc8oY1-36" value="DB" style="shape=cylinder3;whiteSpace=wrap;html=1;boundedLbl=1;backgroundOutline=1;size=15;fontSize=14;" vertex="1" parent="1">
          <mxGeometry x="450" y="345" width="50" height="50" as="geometry" />
        </mxCell>
        <mxCell id="w4GEOD6KujW3WBUc8oY1-37" value="DB" style="shape=cylinder3;whiteSpace=wrap;html=1;boundedLbl=1;backgroundOutline=1;size=15;fontSize=14;" vertex="1" parent="1">
          <mxGeometry x="155" y="345" width="50" height="50" as="geometry" />
        </mxCell>
        <mxCell id="w4GEOD6KujW3WBUc8oY1-38" value="&lt;b&gt;合同管理服务&lt;/b&gt;" style="text;html=1;strokeColor=none;fillColor=none;align=center;verticalAlign=middle;whiteSpace=wrap;rounded=0;fontSize=14;" vertex="1" parent="1">
          <mxGeometry x="135" y="90" width="100" height="30" as="geometry" />
        </mxCell>
        <mxCell id="w4GEOD6KujW3WBUc8oY1-39" value="&lt;b&gt;合同管理服务&lt;/b&gt;" style="text;html=1;strokeColor=none;fillColor=none;align=center;verticalAlign=middle;whiteSpace=wrap;rounded=0;fontSize=14;" vertex="1" parent="1">
          <mxGeometry x="414" y="90" width="100" height="30" as="geometry" />
        </mxCell>
        <mxCell id="w4GEOD6KujW3WBUc8oY1-40" value="&lt;b&gt;合同签约服务&lt;/b&gt;" style="text;html=1;strokeColor=none;fillColor=none;align=center;verticalAlign=middle;whiteSpace=wrap;rounded=0;fontSize=14;" vertex="1" parent="1">
          <mxGeometry x="650" y="90" width="100" height="30" as="geometry" />
        </mxCell>
      </root>
    </mxGraphModel>
  </diagram>
  <diagram id="OuqXRseZaXhoa82Sdc4N" name="第 8 页">
    <mxGraphModel dx="1209" dy="714" grid="1" gridSize="10" guides="1" tooltips="1" connect="1" arrows="1" fold="1" page="1" pageScale="1" pageWidth="827" pageHeight="1169" math="0" shadow="0">
      <root>
        <mxCell id="0" />
        <mxCell id="1" parent="0" />
        <mxCell id="iIkyJNavDUH41Rt2O-lN-1" value="度假" style="ellipse;whiteSpace=wrap;html=1;fontSize=18;fillColor=#dae8fc;strokeColor=#6c8ebf;" vertex="1" parent="1">
          <mxGeometry x="260" y="170" width="100" height="80" as="geometry" />
        </mxCell>
        <mxCell id="iIkyJNavDUH41Rt2O-lN-2" value="吃" style="ellipse;whiteSpace=wrap;html=1;fontSize=18;" vertex="1" parent="1">
          <mxGeometry x="170" y="120" width="50" height="40" as="geometry" />
        </mxCell>
        <mxCell id="iIkyJNavDUH41Rt2O-lN-3" value="住" style="ellipse;whiteSpace=wrap;html=1;fontSize=18;" vertex="1" parent="1">
          <mxGeometry x="170" y="260" width="50" height="40" as="geometry" />
        </mxCell>
        <mxCell id="iIkyJNavDUH41Rt2O-lN-4" value="行" style="ellipse;whiteSpace=wrap;html=1;fontSize=18;" vertex="1" parent="1">
          <mxGeometry x="390" y="120" width="50" height="40" as="geometry" />
        </mxCell>
        <mxCell id="iIkyJNavDUH41Rt2O-lN-5" value="玩" style="ellipse;whiteSpace=wrap;html=1;fontSize=18;" vertex="1" parent="1">
          <mxGeometry x="389" y="260" width="50" height="40" as="geometry" />
        </mxCell>
        <mxCell id="iIkyJNavDUH41Rt2O-lN-6" value="&lt;font style=&quot;font-size: 14px;&quot;&gt;景点餐&lt;/font&gt;" style="text;html=1;strokeColor=none;fillColor=none;align=center;verticalAlign=middle;whiteSpace=wrap;rounded=0;fontSize=18;" vertex="1" parent="1">
          <mxGeometry x="100" y="110" width="60" height="30" as="geometry" />
        </mxCell>
        <mxCell id="iIkyJNavDUH41Rt2O-lN-7" value="&lt;font style=&quot;font-size: 14px;&quot;&gt;特产&lt;/font&gt;" style="text;html=1;strokeColor=none;fillColor=none;align=center;verticalAlign=middle;whiteSpace=wrap;rounded=0;fontSize=18;" vertex="1" parent="1">
          <mxGeometry x="100" y="140" width="60" height="30" as="geometry" />
        </mxCell>
        <mxCell id="iIkyJNavDUH41Rt2O-lN-8" value="&lt;font style=&quot;font-size: 14px;&quot;&gt;旅游用车&lt;/font&gt;" style="text;html=1;strokeColor=none;fillColor=none;align=center;verticalAlign=middle;whiteSpace=wrap;rounded=0;fontSize=18;" vertex="1" parent="1">
          <mxGeometry x="450" y="110" width="60" height="30" as="geometry" />
        </mxCell>
        <mxCell id="iIkyJNavDUH41Rt2O-lN-9" value="&lt;font style=&quot;font-size: 14px;&quot;&gt;接送机&lt;/font&gt;" style="text;html=1;strokeColor=none;fillColor=none;align=center;verticalAlign=middle;whiteSpace=wrap;rounded=0;fontSize=18;" vertex="1" parent="1">
          <mxGeometry x="450" y="140" width="60" height="30" as="geometry" />
        </mxCell>
        <mxCell id="iIkyJNavDUH41Rt2O-lN-10" value="&lt;font style=&quot;font-size: 14px;&quot;&gt;门票&lt;/font&gt;" style="text;html=1;strokeColor=none;fillColor=none;align=center;verticalAlign=middle;whiteSpace=wrap;rounded=0;fontSize=18;" vertex="1" parent="1">
          <mxGeometry x="450" y="240" width="60" height="30" as="geometry" />
        </mxCell>
        <mxCell id="iIkyJNavDUH41Rt2O-lN-11" value="&lt;font style=&quot;font-size: 14px;&quot;&gt;游船&lt;/font&gt;" style="text;html=1;strokeColor=none;fillColor=none;align=center;verticalAlign=middle;whiteSpace=wrap;rounded=0;fontSize=18;" vertex="1" parent="1">
          <mxGeometry x="450" y="270" width="60" height="30" as="geometry" />
        </mxCell>
        <mxCell id="iIkyJNavDUH41Rt2O-lN-12" value="&lt;font style=&quot;font-size: 14px;&quot;&gt;剧场&lt;/font&gt;" style="text;html=1;strokeColor=none;fillColor=none;align=center;verticalAlign=middle;whiteSpace=wrap;rounded=0;fontSize=18;" vertex="1" parent="1">
          <mxGeometry x="450" y="300" width="60" height="30" as="geometry" />
        </mxCell>
        <mxCell id="iIkyJNavDUH41Rt2O-lN-13" value="&lt;font style=&quot;font-size: 14px;&quot;&gt;景区酒店&lt;/font&gt;" style="text;html=1;strokeColor=none;fillColor=none;align=center;verticalAlign=middle;whiteSpace=wrap;rounded=0;fontSize=18;" vertex="1" parent="1">
          <mxGeometry x="100" y="250" width="60" height="30" as="geometry" />
        </mxCell>
        <mxCell id="iIkyJNavDUH41Rt2O-lN-14" value="&lt;font style=&quot;font-size: 14px;&quot;&gt;机场酒店&lt;/font&gt;" style="text;html=1;strokeColor=none;fillColor=none;align=center;verticalAlign=middle;whiteSpace=wrap;rounded=0;fontSize=18;" vertex="1" parent="1">
          <mxGeometry x="100" y="290" width="60" height="30" as="geometry" />
        </mxCell>
        <mxCell id="iIkyJNavDUH41Rt2O-lN-15" value="业务形态" style="ellipse;whiteSpace=wrap;html=1;fontSize=18;fillColor=#cce5ff;strokeColor=#36393d;" vertex="1" parent="1">
          <mxGeometry x="620" y="110" width="50" height="50" as="geometry" />
        </mxCell>
        <mxCell id="iIkyJNavDUH41Rt2O-lN-16" value="产品形态" style="ellipse;whiteSpace=wrap;html=1;fontSize=18;fillColor=#cdeb8b;strokeColor=#36393d;" vertex="1" parent="1">
          <mxGeometry x="620" y="260" width="50" height="50" as="geometry" />
        </mxCell>
        <mxCell id="iIkyJNavDUH41Rt2O-lN-17" value="业务模式" style="ellipse;whiteSpace=wrap;html=1;fontSize=18;fillColor=#f8cecc;strokeColor=#b85450;" vertex="1" parent="1">
          <mxGeometry x="830" y="115" width="50" height="50" as="geometry" />
        </mxCell>
        <mxCell id="iIkyJNavDUH41Rt2O-lN-18" value="产品品类" style="ellipse;whiteSpace=wrap;html=1;fontSize=18;fillColor=#fff2cc;strokeColor=#d6b656;" vertex="1" parent="1">
          <mxGeometry x="830" y="260" width="50" height="50" as="geometry" />
        </mxCell>
        <mxCell id="iIkyJNavDUH41Rt2O-lN-19" value="&lt;font style=&quot;font-size: 14px;&quot;&gt;购买&lt;/font&gt;" style="text;html=1;strokeColor=none;fillColor=none;align=center;verticalAlign=middle;whiteSpace=wrap;rounded=0;fontSize=18;" vertex="1" parent="1">
          <mxGeometry x="680" y="85" width="60" height="30" as="geometry" />
        </mxCell>
        <mxCell id="iIkyJNavDUH41Rt2O-lN-20" value="&lt;font style=&quot;font-size: 14px;&quot;&gt;预订&lt;/font&gt;" style="text;html=1;strokeColor=none;fillColor=none;align=center;verticalAlign=middle;whiteSpace=wrap;rounded=0;fontSize=18;" vertex="1" parent="1">
          <mxGeometry x="680" y="120" width="60" height="30" as="geometry" />
        </mxCell>
        <mxCell id="iIkyJNavDUH41Rt2O-lN-21" value="&lt;font style=&quot;font-size: 14px;&quot;&gt;拼团&lt;/font&gt;" style="text;html=1;strokeColor=none;fillColor=none;align=center;verticalAlign=middle;whiteSpace=wrap;rounded=0;fontSize=18;" vertex="1" parent="1">
          <mxGeometry x="680" y="155" width="60" height="30" as="geometry" />
        </mxCell>
        <mxCell id="iIkyJNavDUH41Rt2O-lN-22" value="&lt;font style=&quot;font-size: 14px;&quot;&gt;预约&lt;/font&gt;" style="text;html=1;strokeColor=none;fillColor=none;align=center;verticalAlign=middle;whiteSpace=wrap;rounded=0;fontSize=18;" vertex="1" parent="1">
          <mxGeometry x="730" y="85" width="60" height="30" as="geometry" />
        </mxCell>
        <mxCell id="iIkyJNavDUH41Rt2O-lN-23" value="&lt;font style=&quot;font-size: 14px;&quot;&gt;预售&lt;/font&gt;" style="text;html=1;strokeColor=none;fillColor=none;align=center;verticalAlign=middle;whiteSpace=wrap;rounded=0;fontSize=18;" vertex="1" parent="1">
          <mxGeometry x="730" y="120" width="60" height="30" as="geometry" />
        </mxCell>
        <mxCell id="iIkyJNavDUH41Rt2O-lN-24" value="&lt;font style=&quot;font-size: 14px;&quot;&gt;零售&lt;/font&gt;" style="text;html=1;strokeColor=none;fillColor=none;align=center;verticalAlign=middle;whiteSpace=wrap;rounded=0;fontSize=18;" vertex="1" parent="1">
          <mxGeometry x="900" y="72.5" width="60" height="30" as="geometry" />
        </mxCell>
        <mxCell id="iIkyJNavDUH41Rt2O-lN-25" value="&lt;span style=&quot;font-size: 14px;&quot;&gt;代理&lt;/span&gt;" style="text;html=1;strokeColor=none;fillColor=none;align=center;verticalAlign=middle;whiteSpace=wrap;rounded=0;fontSize=18;" vertex="1" parent="1">
          <mxGeometry x="900" y="107.5" width="60" height="30" as="geometry" />
        </mxCell>
        <mxCell id="iIkyJNavDUH41Rt2O-lN-26" value="&lt;font style=&quot;font-size: 14px;&quot;&gt;自营&lt;/font&gt;" style="text;html=1;strokeColor=none;fillColor=none;align=center;verticalAlign=middle;whiteSpace=wrap;rounded=0;fontSize=18;" vertex="1" parent="1">
          <mxGeometry x="900" y="142.5" width="60" height="30" as="geometry" />
        </mxCell>
        <mxCell id="iIkyJNavDUH41Rt2O-lN-27" value="&lt;font style=&quot;font-size: 14px;&quot;&gt;分销&lt;/font&gt;" style="text;html=1;strokeColor=none;fillColor=none;align=center;verticalAlign=middle;whiteSpace=wrap;rounded=0;fontSize=18;" vertex="1" parent="1">
          <mxGeometry x="900" y="177.5" width="60" height="30" as="geometry" />
        </mxCell>
        <mxCell id="iIkyJNavDUH41Rt2O-lN-32" value="&lt;span style=&quot;font-size: 14px;&quot;&gt;单品&lt;/span&gt;" style="text;html=1;strokeColor=none;fillColor=none;align=center;verticalAlign=middle;whiteSpace=wrap;rounded=0;fontSize=18;" vertex="1" parent="1">
          <mxGeometry x="680" y="240" width="60" height="30" as="geometry" />
        </mxCell>
        <mxCell id="iIkyJNavDUH41Rt2O-lN-33" value="&lt;span style=&quot;font-size: 14px;&quot;&gt;搭售&lt;/span&gt;" style="text;html=1;strokeColor=none;fillColor=none;align=center;verticalAlign=middle;whiteSpace=wrap;rounded=0;fontSize=18;" vertex="1" parent="1">
          <mxGeometry x="680" y="275" width="60" height="30" as="geometry" />
        </mxCell>
        <mxCell id="iIkyJNavDUH41Rt2O-lN-34" value="&lt;font style=&quot;font-size: 14px;&quot;&gt;购物车&lt;/font&gt;" style="text;html=1;strokeColor=none;fillColor=none;align=center;verticalAlign=middle;whiteSpace=wrap;rounded=0;fontSize=18;" vertex="1" parent="1">
          <mxGeometry x="680" y="310" width="60" height="30" as="geometry" />
        </mxCell>
        <mxCell id="RRKkVxHIYO9i7i8XhY5x-1" value="&lt;font style=&quot;font-size: 14px;&quot;&gt;门票&lt;/font&gt;" style="text;html=1;strokeColor=none;fillColor=none;align=center;verticalAlign=middle;whiteSpace=wrap;rounded=0;fontSize=18;" vertex="1" parent="1">
          <mxGeometry x="900" y="230" width="60" height="30" as="geometry" />
        </mxCell>
        <mxCell id="RRKkVxHIYO9i7i8XhY5x-2" value="&lt;span style=&quot;font-size: 14px;&quot;&gt;酒景&lt;/span&gt;" style="text;html=1;strokeColor=none;fillColor=none;align=center;verticalAlign=middle;whiteSpace=wrap;rounded=0;fontSize=18;" vertex="1" parent="1">
          <mxGeometry x="900" y="265" width="60" height="30" as="geometry" />
        </mxCell>
        <mxCell id="RRKkVxHIYO9i7i8XhY5x-3" value="&lt;font style=&quot;font-size: 14px;&quot;&gt;旅游用车&lt;/font&gt;" style="text;html=1;strokeColor=none;fillColor=none;align=center;verticalAlign=middle;whiteSpace=wrap;rounded=0;fontSize=18;" vertex="1" parent="1">
          <mxGeometry x="900" y="300" width="60" height="30" as="geometry" />
        </mxCell>
        <mxCell id="RRKkVxHIYO9i7i8XhY5x-4" value="&lt;span style=&quot;font-size: 14px;&quot;&gt;演出&lt;/span&gt;" style="text;html=1;strokeColor=none;fillColor=none;align=center;verticalAlign=middle;whiteSpace=wrap;rounded=0;fontSize=18;" vertex="1" parent="1">
          <mxGeometry x="900" y="335" width="60" height="30" as="geometry" />
        </mxCell>
        <mxCell id="RRKkVxHIYO9i7i8XhY5x-5" value="" style="endArrow=none;dashed=1;html=1;dashPattern=1 3;strokeWidth=2;rounded=0;fontSize=14;" edge="1" parent="1">
          <mxGeometry width="50" height="50" relative="1" as="geometry">
            <mxPoint x="560" y="385" as="sourcePoint" />
            <mxPoint x="560" y="35" as="targetPoint" />
          </mxGeometry>
        </mxCell>
      </root>
    </mxGraphModel>
  </diagram>
  <diagram id="e5_Xu_dsXLDWx_kRXK3r" name="第 9 页">
    <mxGraphModel dx="925" dy="546" grid="1" gridSize="10" guides="1" tooltips="1" connect="1" arrows="1" fold="1" page="1" pageScale="1" pageWidth="827" pageHeight="1169" math="0" shadow="0">
      <root>
        <mxCell id="0" />
        <mxCell id="1" parent="0" />
        <mxCell id="WOd7pwFapnKIouYf7a1--5" style="edgeStyle=none;rounded=0;orthogonalLoop=1;jettySize=auto;html=1;entryX=0.5;entryY=0;entryDx=0;entryDy=0;fontSize=18;exitX=0.99;exitY=0.714;exitDx=0;exitDy=0;exitPerimeter=0;" edge="1" parent="1" source="WOd7pwFapnKIouYf7a1--1" target="WOd7pwFapnKIouYf7a1--3">
          <mxGeometry relative="1" as="geometry" />
        </mxCell>
        <mxCell id="WOd7pwFapnKIouYf7a1--9" value="&lt;b&gt;代售&lt;/b&gt;" style="edgeLabel;html=1;align=center;verticalAlign=middle;resizable=0;points=[];fontSize=14;" vertex="1" connectable="0" parent="WOd7pwFapnKIouYf7a1--5">
          <mxGeometry x="-0.0033" y="1" relative="1" as="geometry">
            <mxPoint as="offset" />
          </mxGeometry>
        </mxCell>
        <mxCell id="WOd7pwFapnKIouYf7a1--1" value="&lt;font style=&quot;font-size: 18px;&quot;&gt;同程旅行&lt;/font&gt;" style="ellipse;whiteSpace=wrap;html=1;fontSize=14;" vertex="1" parent="1">
          <mxGeometry x="240" y="110" width="100" height="70" as="geometry" />
        </mxCell>
        <mxCell id="WOd7pwFapnKIouYf7a1--4" style="edgeStyle=none;rounded=0;orthogonalLoop=1;jettySize=auto;html=1;fontSize=18;entryX=0.03;entryY=0.771;entryDx=0;entryDy=0;entryPerimeter=0;" edge="1" parent="1" source="WOd7pwFapnKIouYf7a1--2" target="WOd7pwFapnKIouYf7a1--1">
          <mxGeometry relative="1" as="geometry">
            <mxPoint x="210" y="180" as="targetPoint" />
          </mxGeometry>
        </mxCell>
        <mxCell id="WOd7pwFapnKIouYf7a1--7" value="&lt;b&gt;&lt;font style=&quot;font-size: 14px;&quot;&gt;代理&lt;/font&gt;&lt;/b&gt;" style="edgeLabel;html=1;align=center;verticalAlign=middle;resizable=0;points=[];fontSize=18;" vertex="1" connectable="0" parent="WOd7pwFapnKIouYf7a1--4">
          <mxGeometry x="-0.0691" y="-1" relative="1" as="geometry">
            <mxPoint as="offset" />
          </mxGeometry>
        </mxCell>
        <mxCell id="WOd7pwFapnKIouYf7a1--6" style="edgeStyle=none;rounded=0;orthogonalLoop=1;jettySize=auto;html=1;fontSize=18;" edge="1" parent="1" source="WOd7pwFapnKIouYf7a1--2" target="WOd7pwFapnKIouYf7a1--3">
          <mxGeometry relative="1" as="geometry" />
        </mxCell>
        <mxCell id="WOd7pwFapnKIouYf7a1--10" value="&lt;b&gt;零售&lt;/b&gt;" style="edgeLabel;html=1;align=center;verticalAlign=middle;resizable=0;points=[];fontSize=14;" vertex="1" connectable="0" parent="WOd7pwFapnKIouYf7a1--6">
          <mxGeometry x="0.0366" y="-1" relative="1" as="geometry">
            <mxPoint as="offset" />
          </mxGeometry>
        </mxCell>
        <mxCell id="WOd7pwFapnKIouYf7a1--2" value="&lt;font style=&quot;font-size: 18px;&quot;&gt;商家&lt;/font&gt;" style="ellipse;whiteSpace=wrap;html=1;fontSize=14;" vertex="1" parent="1">
          <mxGeometry x="100" y="250" width="100" height="70" as="geometry" />
        </mxCell>
        <mxCell id="WOd7pwFapnKIouYf7a1--3" value="&lt;font style=&quot;font-size: 18px;&quot;&gt;旅游售卖平台&lt;/font&gt;" style="ellipse;whiteSpace=wrap;html=1;fontSize=14;fillColor=#dae8fc;strokeColor=#6c8ebf;" vertex="1" parent="1">
          <mxGeometry x="364" y="250" width="86" height="70" as="geometry" />
        </mxCell>
        <mxCell id="WOd7pwFapnKIouYf7a1--21" style="edgeStyle=none;rounded=0;orthogonalLoop=1;jettySize=auto;html=1;fontSize=14;" edge="1" parent="1" target="WOd7pwFapnKIouYf7a1--18">
          <mxGeometry relative="1" as="geometry">
            <mxPoint x="620" y="244.2508710801394" as="sourcePoint" />
          </mxGeometry>
        </mxCell>
        <mxCell id="WOd7pwFapnKIouYf7a1--34" value="基于通用语言沟通" style="edgeLabel;html=1;align=center;verticalAlign=middle;resizable=0;points=[];fontSize=14;" vertex="1" connectable="0" parent="WOd7pwFapnKIouYf7a1--21">
          <mxGeometry x="0.0501" y="-3" relative="1" as="geometry">
            <mxPoint as="offset" />
          </mxGeometry>
        </mxCell>
        <mxCell id="WOd7pwFapnKIouYf7a1--22" style="edgeStyle=none;rounded=0;orthogonalLoop=1;jettySize=auto;html=1;fontSize=14;" edge="1" parent="1" source="WOd7pwFapnKIouYf7a1--13">
          <mxGeometry relative="1" as="geometry">
            <mxPoint x="608" y="230" as="targetPoint" />
          </mxGeometry>
        </mxCell>
        <mxCell id="WOd7pwFapnKIouYf7a1--13" value="问题域+业务愿景" style="ellipse;shape=cloud;whiteSpace=wrap;html=1;fontSize=14;" vertex="1" parent="1">
          <mxGeometry x="525" y="100" width="165" height="80" as="geometry" />
        </mxCell>
        <mxCell id="WOd7pwFapnKIouYf7a1--18" value="通用语言" style="whiteSpace=wrap;html=1;shape=mxgraph.basic.oval_callout;fontSize=14;" vertex="1" parent="1">
          <mxGeometry x="827" y="100" width="130" height="80" as="geometry" />
        </mxCell>
        <mxCell id="WOd7pwFapnKIouYf7a1--29" style="edgeStyle=none;rounded=0;orthogonalLoop=1;jettySize=auto;html=1;entryX=0.5;entryY=0.84;entryDx=0;entryDy=0;entryPerimeter=0;fontSize=14;" edge="1" parent="1" source="WOd7pwFapnKIouYf7a1--20" target="WOd7pwFapnKIouYf7a1--18">
          <mxGeometry relative="1" as="geometry" />
        </mxCell>
        <mxCell id="WOd7pwFapnKIouYf7a1--36" value="知识提炼产物" style="edgeLabel;html=1;align=center;verticalAlign=middle;resizable=0;points=[];fontSize=14;" vertex="1" connectable="0" parent="WOd7pwFapnKIouYf7a1--29">
          <mxGeometry x="0.0547" y="-2" relative="1" as="geometry">
            <mxPoint as="offset" />
          </mxGeometry>
        </mxCell>
        <mxCell id="WOd7pwFapnKIouYf7a1--20" value="领域知识" style="shape=delay;whiteSpace=wrap;html=1;fontSize=14;" vertex="1" parent="1">
          <mxGeometry x="839" y="300" width="118" height="50" as="geometry" />
        </mxCell>
        <mxCell id="WOd7pwFapnKIouYf7a1--23" value="" style="shape=actor;whiteSpace=wrap;html=1;fontSize=14;" vertex="1" parent="1">
          <mxGeometry x="547.5" y="250" width="40" height="60" as="geometry" />
        </mxCell>
        <mxCell id="WOd7pwFapnKIouYf7a1--24" value="" style="shape=actor;whiteSpace=wrap;html=1;fontSize=14;" vertex="1" parent="1">
          <mxGeometry x="587.5" y="250" width="40" height="60" as="geometry" />
        </mxCell>
        <mxCell id="WOd7pwFapnKIouYf7a1--28" style="edgeStyle=none;rounded=0;orthogonalLoop=1;jettySize=auto;html=1;entryX=0;entryY=0.5;entryDx=0;entryDy=0;fontSize=14;" edge="1" parent="1" source="WOd7pwFapnKIouYf7a1--25" target="WOd7pwFapnKIouYf7a1--20">
          <mxGeometry relative="1" as="geometry" />
        </mxCell>
        <mxCell id="WOd7pwFapnKIouYf7a1--30" value="知识提炼" style="edgeLabel;html=1;align=center;verticalAlign=middle;resizable=0;points=[];fontSize=14;" vertex="1" connectable="0" parent="WOd7pwFapnKIouYf7a1--28">
          <mxGeometry x="-0.0643" y="-1" relative="1" as="geometry">
            <mxPoint as="offset" />
          </mxGeometry>
        </mxCell>
        <mxCell id="WOd7pwFapnKIouYf7a1--25" value="" style="shape=actor;whiteSpace=wrap;html=1;fontSize=14;" vertex="1" parent="1">
          <mxGeometry x="627.5" y="250" width="40" height="60" as="geometry" />
        </mxCell>
        <mxCell id="WOd7pwFapnKIouYf7a1--27" value="业务、产品、技术团队" style="text;html=1;strokeColor=none;fillColor=none;align=center;verticalAlign=middle;whiteSpace=wrap;rounded=0;fontSize=14;" vertex="1" parent="1">
          <mxGeometry x="531.5" y="320" width="152" height="30" as="geometry" />
        </mxCell>
        <mxCell id="WOd7pwFapnKIouYf7a1--31" value="用例分析" style="text;html=1;strokeColor=#b85450;fillColor=#f8cecc;align=center;verticalAlign=middle;whiteSpace=wrap;rounded=0;fontSize=14;" vertex="1" parent="1">
          <mxGeometry x="980" y="280" width="60" height="30" as="geometry" />
        </mxCell>
        <mxCell id="WOd7pwFapnKIouYf7a1--32" value="场景分析" style="text;html=1;strokeColor=#b85450;fillColor=#f8cecc;align=center;verticalAlign=middle;whiteSpace=wrap;rounded=0;fontSize=14;" vertex="1" parent="1">
          <mxGeometry x="980" y="310" width="60" height="30" as="geometry" />
        </mxCell>
        <mxCell id="WOd7pwFapnKIouYf7a1--33" value="模型草图" style="text;html=1;strokeColor=#b85450;fillColor=#f8cecc;align=center;verticalAlign=middle;whiteSpace=wrap;rounded=0;fontSize=14;" vertex="1" parent="1">
          <mxGeometry x="980" y="340" width="60" height="30" as="geometry" />
        </mxCell>
      </root>
    </mxGraphModel>
  </diagram>
  <diagram id="6su1TrYtcKtVZOTTlmiy" name="第 10 页">
    <mxGraphModel dx="925" dy="546" grid="1" gridSize="10" guides="1" tooltips="1" connect="1" arrows="1" fold="1" page="1" pageScale="1" pageWidth="827" pageHeight="1169" math="0" shadow="0">
      <root>
        <mxCell id="0" />
        <mxCell id="1" parent="0" />
        <mxCell id="V82IOVYfVbUx6ywjvVBb-6" style="edgeStyle=none;rounded=0;orthogonalLoop=1;jettySize=auto;html=1;entryX=0;entryY=0.5;entryDx=0;entryDy=0;fontSize=14;" edge="1" parent="1" source="V82IOVYfVbUx6ywjvVBb-9" target="V82IOVYfVbUx6ywjvVBb-20">
          <mxGeometry relative="1" as="geometry" />
        </mxCell>
        <mxCell id="V82IOVYfVbUx6ywjvVBb-7" style="edgeStyle=none;rounded=0;orthogonalLoop=1;jettySize=auto;html=1;fontSize=14;" edge="1" parent="1" source="V82IOVYfVbUx6ywjvVBb-9" target="V82IOVYfVbUx6ywjvVBb-27">
          <mxGeometry relative="1" as="geometry" />
        </mxCell>
        <mxCell id="V82IOVYfVbUx6ywjvVBb-8" style="edgeStyle=none;rounded=0;orthogonalLoop=1;jettySize=auto;html=1;entryX=0;entryY=0;entryDx=0;entryDy=0;fontSize=14;" edge="1" parent="1" source="V82IOVYfVbUx6ywjvVBb-9" target="V82IOVYfVbUx6ywjvVBb-30">
          <mxGeometry relative="1" as="geometry" />
        </mxCell>
        <mxCell id="V82IOVYfVbUx6ywjvVBb-9" value="&lt;font style=&quot;font-size: 18px;&quot;&gt;买家&lt;/font&gt;" style="shape=umlActor;verticalLabelPosition=bottom;verticalAlign=top;html=1;outlineConnect=0;fontSize=24;" vertex="1" parent="1">
          <mxGeometry x="40" y="240" width="40" height="80" as="geometry" />
        </mxCell>
        <mxCell id="V82IOVYfVbUx6ywjvVBb-17" style="edgeStyle=none;rounded=0;orthogonalLoop=1;jettySize=auto;html=1;entryX=0;entryY=0.5;entryDx=0;entryDy=0;fontSize=14;" edge="1" parent="1" source="V82IOVYfVbUx6ywjvVBb-20" target="V82IOVYfVbUx6ywjvVBb-21">
          <mxGeometry relative="1" as="geometry" />
        </mxCell>
        <mxCell id="V82IOVYfVbUx6ywjvVBb-18" style="edgeStyle=none;rounded=0;orthogonalLoop=1;jettySize=auto;html=1;entryX=0;entryY=0.5;entryDx=0;entryDy=0;fontSize=14;" edge="1" parent="1" source="V82IOVYfVbUx6ywjvVBb-20" target="V82IOVYfVbUx6ywjvVBb-22">
          <mxGeometry relative="1" as="geometry" />
        </mxCell>
        <mxCell id="V82IOVYfVbUx6ywjvVBb-19" style="edgeStyle=none;rounded=0;orthogonalLoop=1;jettySize=auto;html=1;entryX=0;entryY=0.5;entryDx=0;entryDy=0;fontSize=14;" edge="1" parent="1" source="V82IOVYfVbUx6ywjvVBb-20" target="V82IOVYfVbUx6ywjvVBb-23">
          <mxGeometry relative="1" as="geometry" />
        </mxCell>
        <mxCell id="V82IOVYfVbUx6ywjvVBb-20" value="&lt;font style=&quot;font-size: 14px;&quot;&gt;浏览景点&lt;/font&gt;" style="ellipse;whiteSpace=wrap;html=1;fontSize=18;" vertex="1" parent="1">
          <mxGeometry x="200" y="155" width="100" height="30" as="geometry" />
        </mxCell>
        <mxCell id="V82IOVYfVbUx6ywjvVBb-21" value="&lt;font style=&quot;font-size: 14px;&quot;&gt;浏览景点产品目录&lt;/font&gt;" style="ellipse;whiteSpace=wrap;html=1;fontSize=18;" vertex="1" parent="1">
          <mxGeometry x="360" y="85" width="130" height="30" as="geometry" />
        </mxCell>
        <mxCell id="V82IOVYfVbUx6ywjvVBb-64" style="edgeStyle=none;rounded=0;orthogonalLoop=1;jettySize=auto;html=1;entryX=0;entryY=0.5;entryDx=0;entryDy=0;fontSize=14;" edge="1" parent="1" source="V82IOVYfVbUx6ywjvVBb-22" target="V82IOVYfVbUx6ywjvVBb-63">
          <mxGeometry relative="1" as="geometry" />
        </mxCell>
        <mxCell id="V82IOVYfVbUx6ywjvVBb-68" style="edgeStyle=none;rounded=0;orthogonalLoop=1;jettySize=auto;html=1;entryX=0;entryY=0;entryDx=0;entryDy=0;fontSize=14;" edge="1" parent="1" source="V82IOVYfVbUx6ywjvVBb-22" target="V82IOVYfVbUx6ywjvVBb-34">
          <mxGeometry relative="1" as="geometry" />
        </mxCell>
        <mxCell id="V82IOVYfVbUx6ywjvVBb-22" value="&lt;font style=&quot;font-size: 14px;&quot;&gt;查看景点产品详情&lt;/font&gt;" style="ellipse;whiteSpace=wrap;html=1;fontSize=18;" vertex="1" parent="1">
          <mxGeometry x="360" y="145" width="140" height="30" as="geometry" />
        </mxCell>
        <mxCell id="V82IOVYfVbUx6ywjvVBb-23" value="&lt;font style=&quot;font-size: 14px;&quot;&gt;景区导览&lt;/font&gt;" style="ellipse;whiteSpace=wrap;html=1;fontSize=18;" vertex="1" parent="1">
          <mxGeometry x="350" y="205" width="100" height="30" as="geometry" />
        </mxCell>
        <mxCell id="V82IOVYfVbUx6ywjvVBb-24" style="edgeStyle=none;rounded=0;orthogonalLoop=1;jettySize=auto;html=1;entryX=0;entryY=0.5;entryDx=0;entryDy=0;fontSize=14;" edge="1" parent="1" source="V82IOVYfVbUx6ywjvVBb-27" target="V82IOVYfVbUx6ywjvVBb-32">
          <mxGeometry relative="1" as="geometry" />
        </mxCell>
        <mxCell id="V82IOVYfVbUx6ywjvVBb-25" style="edgeStyle=none;rounded=0;orthogonalLoop=1;jettySize=auto;html=1;entryX=0;entryY=0.5;entryDx=0;entryDy=0;fontSize=14;" edge="1" parent="1" source="V82IOVYfVbUx6ywjvVBb-27" target="V82IOVYfVbUx6ywjvVBb-33">
          <mxGeometry relative="1" as="geometry" />
        </mxCell>
        <mxCell id="V82IOVYfVbUx6ywjvVBb-27" value="&lt;font style=&quot;font-size: 14px;&quot;&gt;购买旅游产品&lt;/font&gt;" style="ellipse;whiteSpace=wrap;html=1;fontSize=18;" vertex="1" parent="1">
          <mxGeometry x="190" y="290" width="100" height="30" as="geometry" />
        </mxCell>
        <mxCell id="V82IOVYfVbUx6ywjvVBb-29" style="edgeStyle=none;rounded=0;orthogonalLoop=1;jettySize=auto;html=1;entryX=0;entryY=0.5;entryDx=0;entryDy=0;fontSize=14;" edge="1" parent="1" source="V82IOVYfVbUx6ywjvVBb-30" target="V82IOVYfVbUx6ywjvVBb-35">
          <mxGeometry relative="1" as="geometry" />
        </mxCell>
        <mxCell id="V82IOVYfVbUx6ywjvVBb-30" value="&lt;span style=&quot;font-size: 14px;&quot;&gt;支付订单&lt;/span&gt;" style="ellipse;whiteSpace=wrap;html=1;fontSize=18;" vertex="1" parent="1">
          <mxGeometry x="190" y="430" width="100" height="30" as="geometry" />
        </mxCell>
        <mxCell id="V82IOVYfVbUx6ywjvVBb-31" style="rounded=0;orthogonalLoop=1;jettySize=auto;html=1;entryX=0;entryY=0.5;entryDx=0;entryDy=0;fontSize=14;exitX=1;exitY=0.5;exitDx=0;exitDy=0;" edge="1" parent="1" source="V82IOVYfVbUx6ywjvVBb-32" target="V82IOVYfVbUx6ywjvVBb-34">
          <mxGeometry relative="1" as="geometry" />
        </mxCell>
        <mxCell id="V82IOVYfVbUx6ywjvVBb-53" style="edgeStyle=none;rounded=0;orthogonalLoop=1;jettySize=auto;html=1;entryX=0;entryY=0.5;entryDx=0;entryDy=0;fontSize=14;" edge="1" parent="1" source="V82IOVYfVbUx6ywjvVBb-32" target="V82IOVYfVbUx6ywjvVBb-52">
          <mxGeometry relative="1" as="geometry" />
        </mxCell>
        <mxCell id="V82IOVYfVbUx6ywjvVBb-32" value="&lt;font style=&quot;font-size: 14px;&quot;&gt;查看可订阅日历&lt;/font&gt;" style="ellipse;whiteSpace=wrap;html=1;fontSize=18;" vertex="1" parent="1">
          <mxGeometry x="340" y="250" width="120" height="30" as="geometry" />
        </mxCell>
        <mxCell id="V82IOVYfVbUx6ywjvVBb-58" style="edgeStyle=none;rounded=0;orthogonalLoop=1;jettySize=auto;html=1;entryX=0;entryY=0.5;entryDx=0;entryDy=0;fontSize=14;" edge="1" parent="1" source="V82IOVYfVbUx6ywjvVBb-33" target="V82IOVYfVbUx6ywjvVBb-56">
          <mxGeometry relative="1" as="geometry" />
        </mxCell>
        <mxCell id="V82IOVYfVbUx6ywjvVBb-59" style="edgeStyle=none;rounded=0;orthogonalLoop=1;jettySize=auto;html=1;entryX=0.047;entryY=0.253;entryDx=0;entryDy=0;entryPerimeter=0;fontSize=14;" edge="1" parent="1" source="V82IOVYfVbUx6ywjvVBb-33" target="V82IOVYfVbUx6ywjvVBb-57">
          <mxGeometry relative="1" as="geometry" />
        </mxCell>
        <mxCell id="V82IOVYfVbUx6ywjvVBb-67" style="edgeStyle=none;rounded=0;orthogonalLoop=1;jettySize=auto;html=1;entryX=0.5;entryY=0;entryDx=0;entryDy=0;fontSize=14;" edge="1" parent="1" source="V82IOVYfVbUx6ywjvVBb-33" target="V82IOVYfVbUx6ywjvVBb-35">
          <mxGeometry relative="1" as="geometry" />
        </mxCell>
        <mxCell id="V82IOVYfVbUx6ywjvVBb-33" value="&lt;font style=&quot;font-size: 14px;&quot;&gt;下订单&lt;/font&gt;" style="ellipse;whiteSpace=wrap;html=1;fontSize=18;" vertex="1" parent="1">
          <mxGeometry x="350" y="370" width="100" height="30" as="geometry" />
        </mxCell>
        <mxCell id="V82IOVYfVbUx6ywjvVBb-65" style="edgeStyle=none;rounded=0;orthogonalLoop=1;jettySize=auto;html=1;entryX=0.5;entryY=1;entryDx=0;entryDy=0;fontSize=14;" edge="1" parent="1" source="V82IOVYfVbUx6ywjvVBb-34" target="V82IOVYfVbUx6ywjvVBb-63">
          <mxGeometry relative="1" as="geometry" />
        </mxCell>
        <mxCell id="V82IOVYfVbUx6ywjvVBb-34" value="&lt;font style=&quot;font-size: 14px;&quot;&gt;计算价格&lt;/font&gt;" style="ellipse;whiteSpace=wrap;html=1;fontSize=18;" vertex="1" parent="1">
          <mxGeometry x="660" y="235" width="120" height="30" as="geometry" />
        </mxCell>
        <mxCell id="V82IOVYfVbUx6ywjvVBb-35" value="&lt;span style=&quot;font-size: 14px;&quot;&gt;交易记账&lt;/span&gt;" style="ellipse;whiteSpace=wrap;html=1;fontSize=18;" vertex="1" parent="1">
          <mxGeometry x="380" y="470" width="100" height="30" as="geometry" />
        </mxCell>
        <mxCell id="V82IOVYfVbUx6ywjvVBb-41" value="&lt;span style=&quot;font-size: 14px;&quot;&gt;扣减库存&lt;/span&gt;" style="ellipse;whiteSpace=wrap;html=1;fontSize=18;" vertex="1" parent="1">
          <mxGeometry x="677" y="390" width="100" height="30" as="geometry" />
        </mxCell>
        <mxCell id="M5gMsBuDeT1vIdvDG-uq-1" style="edgeStyle=none;rounded=0;orthogonalLoop=1;jettySize=auto;html=1;entryX=1;entryY=1;entryDx=0;entryDy=0;fontSize=14;" edge="1" parent="1" source="V82IOVYfVbUx6ywjvVBb-42" target="V82IOVYfVbUx6ywjvVBb-57">
          <mxGeometry relative="1" as="geometry" />
        </mxCell>
        <mxCell id="V82IOVYfVbUx6ywjvVBb-42" value="&lt;font style=&quot;font-size: 14px;&quot;&gt;商家系统下单&lt;/font&gt;" style="ellipse;whiteSpace=wrap;html=1;fontSize=18;" vertex="1" parent="1">
          <mxGeometry x="660" y="450" width="100" height="30" as="geometry" />
        </mxCell>
        <mxCell id="V82IOVYfVbUx6ywjvVBb-50" value="&lt;b&gt;旅游电商系统&lt;/b&gt;" style="text;html=1;strokeColor=none;fillColor=none;align=center;verticalAlign=middle;whiteSpace=wrap;rounded=0;fontSize=14;" vertex="1" parent="1">
          <mxGeometry x="364" y="30" width="96" height="30" as="geometry" />
        </mxCell>
        <mxCell id="V82IOVYfVbUx6ywjvVBb-52" value="&lt;font style=&quot;font-size: 14px;&quot;&gt;计算库存&lt;/font&gt;" style="ellipse;whiteSpace=wrap;html=1;fontSize=18;" vertex="1" parent="1">
          <mxGeometry x="530" y="280" width="120" height="30" as="geometry" />
        </mxCell>
        <mxCell id="V82IOVYfVbUx6ywjvVBb-60" style="edgeStyle=none;rounded=0;orthogonalLoop=1;jettySize=auto;html=1;entryX=0.5;entryY=1;entryDx=0;entryDy=0;fontSize=14;" edge="1" parent="1" source="V82IOVYfVbUx6ywjvVBb-56" target="V82IOVYfVbUx6ywjvVBb-52">
          <mxGeometry relative="1" as="geometry" />
        </mxCell>
        <mxCell id="V82IOVYfVbUx6ywjvVBb-66" style="edgeStyle=none;rounded=0;orthogonalLoop=1;jettySize=auto;html=1;entryX=0.576;entryY=1.116;entryDx=0;entryDy=0;entryPerimeter=0;fontSize=14;exitX=1;exitY=0;exitDx=0;exitDy=0;" edge="1" parent="1" source="V82IOVYfVbUx6ywjvVBb-56" target="V82IOVYfVbUx6ywjvVBb-34">
          <mxGeometry relative="1" as="geometry" />
        </mxCell>
        <mxCell id="V82IOVYfVbUx6ywjvVBb-56" value="&lt;font style=&quot;font-size: 14px;&quot;&gt;验证订单&lt;/font&gt;" style="ellipse;whiteSpace=wrap;html=1;fontSize=18;" vertex="1" parent="1">
          <mxGeometry x="500" y="350" width="120" height="30" as="geometry" />
        </mxCell>
        <mxCell id="V82IOVYfVbUx6ywjvVBb-61" style="edgeStyle=none;rounded=0;orthogonalLoop=1;jettySize=auto;html=1;entryX=0;entryY=0.5;entryDx=0;entryDy=0;fontSize=14;" edge="1" parent="1" source="V82IOVYfVbUx6ywjvVBb-57" target="V82IOVYfVbUx6ywjvVBb-41">
          <mxGeometry relative="1" as="geometry" />
        </mxCell>
        <mxCell id="V82IOVYfVbUx6ywjvVBb-57" value="&lt;font style=&quot;font-size: 14px;&quot;&gt;提交订单&lt;/font&gt;" style="ellipse;whiteSpace=wrap;html=1;fontSize=18;" vertex="1" parent="1">
          <mxGeometry x="480" y="410" width="120" height="30" as="geometry" />
        </mxCell>
        <mxCell id="V82IOVYfVbUx6ywjvVBb-63" value="&lt;font style=&quot;font-size: 14px;&quot;&gt;查询优惠&lt;/font&gt;" style="ellipse;whiteSpace=wrap;html=1;fontSize=18;" vertex="1" parent="1">
          <mxGeometry x="730" y="140" width="120" height="30" as="geometry" />
        </mxCell>
      </root>
    </mxGraphModel>
  </diagram>
  <diagram id="6COqveIcY9Tc-BThaLtT" name="第 11 页">
    <mxGraphModel dx="873" dy="516" grid="1" gridSize="10" guides="1" tooltips="1" connect="1" arrows="1" fold="1" page="1" pageScale="1" pageWidth="827" pageHeight="1169" math="0" shadow="0">
      <root>
        <mxCell id="0" />
        <mxCell id="1" parent="0" />
        <mxCell id="zyPGcX06N3clnYp9Iw5m-1" style="edgeStyle=none;rounded=0;orthogonalLoop=1;jettySize=auto;html=1;entryX=0;entryY=0.5;entryDx=0;entryDy=0;fontSize=14;" edge="1" parent="1" source="zyPGcX06N3clnYp9Iw5m-4" target="zyPGcX06N3clnYp9Iw5m-8">
          <mxGeometry relative="1" as="geometry" />
        </mxCell>
        <mxCell id="zyPGcX06N3clnYp9Iw5m-2" style="edgeStyle=none;rounded=0;orthogonalLoop=1;jettySize=auto;html=1;fontSize=14;" edge="1" parent="1" source="zyPGcX06N3clnYp9Iw5m-4" target="zyPGcX06N3clnYp9Iw5m-16">
          <mxGeometry relative="1" as="geometry" />
        </mxCell>
        <mxCell id="zyPGcX06N3clnYp9Iw5m-3" style="edgeStyle=none;rounded=0;orthogonalLoop=1;jettySize=auto;html=1;entryX=0;entryY=0;entryDx=0;entryDy=0;fontSize=14;" edge="1" parent="1" source="zyPGcX06N3clnYp9Iw5m-4" target="zyPGcX06N3clnYp9Iw5m-18">
          <mxGeometry relative="1" as="geometry" />
        </mxCell>
        <mxCell id="6ViDivKzs20HJmW9UM8F-10" style="edgeStyle=none;rounded=0;orthogonalLoop=1;jettySize=auto;html=1;entryX=0;entryY=0.5;entryDx=0;entryDy=0;fontSize=14;" edge="1" parent="1" source="zyPGcX06N3clnYp9Iw5m-4" target="6ViDivKzs20HJmW9UM8F-2">
          <mxGeometry relative="1" as="geometry" />
        </mxCell>
        <mxCell id="zyPGcX06N3clnYp9Iw5m-4" value="&lt;font style=&quot;font-size: 18px;&quot;&gt;商家&lt;/font&gt;" style="shape=umlActor;verticalLabelPosition=bottom;verticalAlign=top;html=1;outlineConnect=0;fontSize=24;" vertex="1" parent="1">
          <mxGeometry x="80" y="265" width="40" height="80" as="geometry" />
        </mxCell>
        <mxCell id="zyPGcX06N3clnYp9Iw5m-5" style="edgeStyle=none;rounded=0;orthogonalLoop=1;jettySize=auto;html=1;entryX=0;entryY=0.5;entryDx=0;entryDy=0;fontSize=14;" edge="1" parent="1" source="zyPGcX06N3clnYp9Iw5m-8" target="zyPGcX06N3clnYp9Iw5m-9">
          <mxGeometry relative="1" as="geometry" />
        </mxCell>
        <mxCell id="zyPGcX06N3clnYp9Iw5m-6" style="edgeStyle=none;rounded=0;orthogonalLoop=1;jettySize=auto;html=1;entryX=0;entryY=0.5;entryDx=0;entryDy=0;fontSize=14;" edge="1" parent="1" source="zyPGcX06N3clnYp9Iw5m-8" target="zyPGcX06N3clnYp9Iw5m-12">
          <mxGeometry relative="1" as="geometry" />
        </mxCell>
        <mxCell id="zyPGcX06N3clnYp9Iw5m-7" style="edgeStyle=none;rounded=0;orthogonalLoop=1;jettySize=auto;html=1;entryX=0;entryY=0.5;entryDx=0;entryDy=0;fontSize=14;" edge="1" parent="1" source="zyPGcX06N3clnYp9Iw5m-8" target="zyPGcX06N3clnYp9Iw5m-13">
          <mxGeometry relative="1" as="geometry" />
        </mxCell>
        <mxCell id="6ViDivKzs20HJmW9UM8F-5" style="edgeStyle=none;rounded=0;orthogonalLoop=1;jettySize=auto;html=1;entryX=0;entryY=0.5;entryDx=0;entryDy=0;fontSize=14;" edge="1" parent="1" source="zyPGcX06N3clnYp9Iw5m-8" target="6ViDivKzs20HJmW9UM8F-3">
          <mxGeometry relative="1" as="geometry" />
        </mxCell>
        <mxCell id="6ViDivKzs20HJmW9UM8F-6" style="edgeStyle=none;rounded=0;orthogonalLoop=1;jettySize=auto;html=1;entryX=0;entryY=0.5;entryDx=0;entryDy=0;fontSize=14;" edge="1" parent="1" source="zyPGcX06N3clnYp9Iw5m-8" target="6ViDivKzs20HJmW9UM8F-4">
          <mxGeometry relative="1" as="geometry" />
        </mxCell>
        <mxCell id="6ViDivKzs20HJmW9UM8F-8" style="edgeStyle=none;rounded=0;orthogonalLoop=1;jettySize=auto;html=1;entryX=0;entryY=0.5;entryDx=0;entryDy=0;fontSize=14;" edge="1" parent="1" source="zyPGcX06N3clnYp9Iw5m-8" target="6ViDivKzs20HJmW9UM8F-7">
          <mxGeometry relative="1" as="geometry" />
        </mxCell>
        <mxCell id="zyPGcX06N3clnYp9Iw5m-8" value="&lt;span style=&quot;font-size: 14px;&quot;&gt;商家产品维护&lt;/span&gt;" style="ellipse;whiteSpace=wrap;html=1;fontSize=18;" vertex="1" parent="1">
          <mxGeometry x="240" y="180" width="100" height="30" as="geometry" />
        </mxCell>
        <mxCell id="zyPGcX06N3clnYp9Iw5m-9" value="&lt;font style=&quot;font-size: 14px;&quot;&gt;设置产品信息&lt;/font&gt;" style="ellipse;whiteSpace=wrap;html=1;fontSize=18;" vertex="1" parent="1">
          <mxGeometry x="400" y="100" width="130" height="30" as="geometry" />
        </mxCell>
        <mxCell id="zyPGcX06N3clnYp9Iw5m-12" value="&lt;span style=&quot;font-size: 14px;&quot;&gt;设置产品规则&lt;/span&gt;" style="ellipse;whiteSpace=wrap;html=1;fontSize=18;" vertex="1" parent="1">
          <mxGeometry x="400" y="150" width="140" height="30" as="geometry" />
        </mxCell>
        <mxCell id="zyPGcX06N3clnYp9Iw5m-13" value="&lt;span style=&quot;font-size: 14px;&quot;&gt;设置产品价格&lt;/span&gt;" style="ellipse;whiteSpace=wrap;html=1;fontSize=18;" vertex="1" parent="1">
          <mxGeometry x="414" y="200" width="100" height="30" as="geometry" />
        </mxCell>
        <mxCell id="zyPGcX06N3clnYp9Iw5m-14" style="edgeStyle=none;rounded=0;orthogonalLoop=1;jettySize=auto;html=1;entryX=0;entryY=0.5;entryDx=0;entryDy=0;fontSize=14;" edge="1" parent="1" source="zyPGcX06N3clnYp9Iw5m-16" target="zyPGcX06N3clnYp9Iw5m-21">
          <mxGeometry relative="1" as="geometry" />
        </mxCell>
        <mxCell id="zyPGcX06N3clnYp9Iw5m-16" value="&lt;span style=&quot;font-size: 14px;&quot;&gt;确认订单&lt;/span&gt;" style="ellipse;whiteSpace=wrap;html=1;fontSize=18;" vertex="1" parent="1">
          <mxGeometry x="240" y="410" width="100" height="30" as="geometry" />
        </mxCell>
        <mxCell id="zyPGcX06N3clnYp9Iw5m-17" style="edgeStyle=none;rounded=0;orthogonalLoop=1;jettySize=auto;html=1;entryX=0;entryY=0.5;entryDx=0;entryDy=0;fontSize=14;" edge="1" parent="1" source="zyPGcX06N3clnYp9Iw5m-18" target="zyPGcX06N3clnYp9Iw5m-28">
          <mxGeometry relative="1" as="geometry" />
        </mxCell>
        <mxCell id="6ViDivKzs20HJmW9UM8F-9" style="edgeStyle=none;rounded=0;orthogonalLoop=1;jettySize=auto;html=1;entryX=0;entryY=0.5;entryDx=0;entryDy=0;fontSize=14;" edge="1" parent="1" source="zyPGcX06N3clnYp9Iw5m-18" target="zyPGcX06N3clnYp9Iw5m-25">
          <mxGeometry relative="1" as="geometry" />
        </mxCell>
        <mxCell id="zyPGcX06N3clnYp9Iw5m-18" value="&lt;span style=&quot;font-size: 14px;&quot;&gt;商家信息维护&lt;/span&gt;" style="ellipse;whiteSpace=wrap;html=1;fontSize=18;" vertex="1" parent="1">
          <mxGeometry x="250" y="515" width="100" height="30" as="geometry" />
        </mxCell>
        <mxCell id="zyPGcX06N3clnYp9Iw5m-21" value="&lt;span style=&quot;font-size: 14px;&quot;&gt;发货&lt;/span&gt;" style="ellipse;whiteSpace=wrap;html=1;fontSize=18;" vertex="1" parent="1">
          <mxGeometry x="404" y="410" width="120" height="30" as="geometry" />
        </mxCell>
        <mxCell id="zyPGcX06N3clnYp9Iw5m-25" value="&lt;font style=&quot;font-size: 14px;&quot;&gt;维护商家业务线&lt;/font&gt;" style="ellipse;whiteSpace=wrap;html=1;fontSize=18;" vertex="1" parent="1">
          <mxGeometry x="410" y="485" width="117" height="30" as="geometry" />
        </mxCell>
        <mxCell id="zyPGcX06N3clnYp9Iw5m-27" value="&lt;span style=&quot;font-size: 14px;&quot;&gt;设置产品优惠&lt;/span&gt;" style="ellipse;whiteSpace=wrap;html=1;fontSize=18;" vertex="1" parent="1">
          <mxGeometry x="601.5" y="155" width="120" height="30" as="geometry" />
        </mxCell>
        <mxCell id="zyPGcX06N3clnYp9Iw5m-28" value="&lt;span style=&quot;font-size: 14px;&quot;&gt;维护商家资质&lt;/span&gt;" style="ellipse;whiteSpace=wrap;html=1;fontSize=18;" vertex="1" parent="1">
          <mxGeometry x="414" y="545" width="100" height="30" as="geometry" />
        </mxCell>
        <mxCell id="zyPGcX06N3clnYp9Iw5m-38" value="&lt;span style=&quot;font-size: 14px;&quot;&gt;审核活动商家&lt;/span&gt;" style="ellipse;whiteSpace=wrap;html=1;fontSize=18;" vertex="1" parent="1">
          <mxGeometry x="601.5" y="100" width="120" height="30" as="geometry" />
        </mxCell>
        <mxCell id="6ViDivKzs20HJmW9UM8F-1" value="&lt;b&gt;旅游电商系统&lt;/b&gt;" style="text;html=1;strokeColor=none;fillColor=none;align=center;verticalAlign=middle;whiteSpace=wrap;rounded=0;fontSize=14;" vertex="1" parent="1">
          <mxGeometry x="505.5" y="30" width="96" height="30" as="geometry" />
        </mxCell>
        <mxCell id="6ViDivKzs20HJmW9UM8F-2" value="&lt;font style=&quot;font-size: 14px;&quot;&gt;运营活动提报&lt;/font&gt;" style="ellipse;whiteSpace=wrap;html=1;fontSize=18;" vertex="1" parent="1">
          <mxGeometry x="240" y="80" width="100" height="30" as="geometry" />
        </mxCell>
        <mxCell id="6ViDivKzs20HJmW9UM8F-3" value="&lt;span style=&quot;font-size: 14px;&quot;&gt;设置产品库存&lt;/span&gt;" style="ellipse;whiteSpace=wrap;html=1;fontSize=18;" vertex="1" parent="1">
          <mxGeometry x="415" y="250" width="100" height="30" as="geometry" />
        </mxCell>
        <mxCell id="6ViDivKzs20HJmW9UM8F-4" value="&lt;span style=&quot;font-size: 14px;&quot;&gt;产品发布&lt;/span&gt;" style="ellipse;whiteSpace=wrap;html=1;fontSize=18;" vertex="1" parent="1">
          <mxGeometry x="420" y="300" width="100" height="30" as="geometry" />
        </mxCell>
        <mxCell id="6ViDivKzs20HJmW9UM8F-7" value="&lt;span style=&quot;font-size: 14px;&quot;&gt;下架产品&lt;/span&gt;" style="ellipse;whiteSpace=wrap;html=1;fontSize=18;" vertex="1" parent="1">
          <mxGeometry x="420" y="345" width="100" height="30" as="geometry" />
        </mxCell>
        <mxCell id="6ViDivKzs20HJmW9UM8F-12" value="&lt;span style=&quot;font-size: 14px;&quot;&gt;......&lt;/span&gt;" style="ellipse;whiteSpace=wrap;html=1;fontSize=18;" vertex="1" parent="1">
          <mxGeometry x="601.5" y="270" width="120" height="30" as="geometry" />
        </mxCell>
        <mxCell id="6ViDivKzs20HJmW9UM8F-13" value="&lt;font style=&quot;font-size: 14px;&quot;&gt;产品活动运营&lt;/font&gt;" style="ellipse;whiteSpace=wrap;html=1;fontSize=18;" vertex="1" parent="1">
          <mxGeometry x="601.5" y="215" width="120" height="30" as="geometry" />
        </mxCell>
        <mxCell id="6ViDivKzs20HJmW9UM8F-18" style="edgeStyle=none;rounded=0;orthogonalLoop=1;jettySize=auto;html=1;entryX=1;entryY=0.5;entryDx=0;entryDy=0;fontSize=14;" edge="1" parent="1" source="6ViDivKzs20HJmW9UM8F-14" target="zyPGcX06N3clnYp9Iw5m-38">
          <mxGeometry relative="1" as="geometry" />
        </mxCell>
        <mxCell id="6ViDivKzs20HJmW9UM8F-19" style="edgeStyle=none;rounded=0;orthogonalLoop=1;jettySize=auto;html=1;entryX=1;entryY=0.5;entryDx=0;entryDy=0;fontSize=14;" edge="1" parent="1" source="6ViDivKzs20HJmW9UM8F-14" target="zyPGcX06N3clnYp9Iw5m-27">
          <mxGeometry relative="1" as="geometry" />
        </mxCell>
        <mxCell id="6ViDivKzs20HJmW9UM8F-20" style="edgeStyle=none;rounded=0;orthogonalLoop=1;jettySize=auto;html=1;entryX=1;entryY=0.5;entryDx=0;entryDy=0;fontSize=14;" edge="1" parent="1" source="6ViDivKzs20HJmW9UM8F-14" target="6ViDivKzs20HJmW9UM8F-13">
          <mxGeometry relative="1" as="geometry" />
        </mxCell>
        <mxCell id="6ViDivKzs20HJmW9UM8F-21" style="edgeStyle=none;rounded=0;orthogonalLoop=1;jettySize=auto;html=1;entryX=1;entryY=0.5;entryDx=0;entryDy=0;fontSize=14;" edge="1" parent="1" source="6ViDivKzs20HJmW9UM8F-14" target="6ViDivKzs20HJmW9UM8F-12">
          <mxGeometry relative="1" as="geometry" />
        </mxCell>
        <mxCell id="6ViDivKzs20HJmW9UM8F-14" value="&lt;font style=&quot;font-size: 18px;&quot;&gt;运营&lt;/font&gt;" style="shape=umlActor;verticalLabelPosition=bottom;verticalAlign=top;html=1;outlineConnect=0;fontSize=24;" vertex="1" parent="1">
          <mxGeometry x="800" y="140" width="40" height="80" as="geometry" />
        </mxCell>
        <mxCell id="6ViDivKzs20HJmW9UM8F-22" value="&lt;span style=&quot;font-size: 14px;&quot;&gt;维护商家资质&lt;/span&gt;" style="ellipse;whiteSpace=wrap;html=1;fontSize=18;" vertex="1" parent="1">
          <mxGeometry x="601.5" y="440" width="120" height="30" as="geometry" />
        </mxCell>
        <mxCell id="6ViDivKzs20HJmW9UM8F-23" value="&lt;span style=&quot;font-size: 14px;&quot;&gt;维护商家业务线&lt;/span&gt;" style="ellipse;whiteSpace=wrap;html=1;fontSize=18;" vertex="1" parent="1">
          <mxGeometry x="601.5" y="385" width="120" height="30" as="geometry" />
        </mxCell>
        <mxCell id="6ViDivKzs20HJmW9UM8F-24" value="&lt;span style=&quot;font-size: 14px;&quot;&gt;......&lt;/span&gt;" style="ellipse;whiteSpace=wrap;html=1;fontSize=18;" vertex="1" parent="1">
          <mxGeometry x="601.5" y="600" width="120" height="30" as="geometry" />
        </mxCell>
        <mxCell id="6ViDivKzs20HJmW9UM8F-25" value="&lt;font style=&quot;font-size: 14px;&quot;&gt;录入正式合同&lt;/font&gt;" style="ellipse;whiteSpace=wrap;html=1;fontSize=18;" vertex="1" parent="1">
          <mxGeometry x="601.5" y="500" width="120" height="30" as="geometry" />
        </mxCell>
        <mxCell id="6ViDivKzs20HJmW9UM8F-26" style="edgeStyle=none;rounded=0;orthogonalLoop=1;jettySize=auto;html=1;entryX=1;entryY=0.5;entryDx=0;entryDy=0;fontSize=14;" edge="1" parent="1" source="6ViDivKzs20HJmW9UM8F-30" target="6ViDivKzs20HJmW9UM8F-23">
          <mxGeometry relative="1" as="geometry" />
        </mxCell>
        <mxCell id="6ViDivKzs20HJmW9UM8F-27" style="edgeStyle=none;rounded=0;orthogonalLoop=1;jettySize=auto;html=1;entryX=1;entryY=0.5;entryDx=0;entryDy=0;fontSize=14;" edge="1" parent="1" source="6ViDivKzs20HJmW9UM8F-30" target="6ViDivKzs20HJmW9UM8F-22">
          <mxGeometry relative="1" as="geometry" />
        </mxCell>
        <mxCell id="6ViDivKzs20HJmW9UM8F-28" style="edgeStyle=none;rounded=0;orthogonalLoop=1;jettySize=auto;html=1;entryX=1;entryY=0.5;entryDx=0;entryDy=0;fontSize=14;" edge="1" parent="1" source="6ViDivKzs20HJmW9UM8F-30" target="6ViDivKzs20HJmW9UM8F-25">
          <mxGeometry relative="1" as="geometry" />
        </mxCell>
        <mxCell id="6ViDivKzs20HJmW9UM8F-29" style="edgeStyle=none;rounded=0;orthogonalLoop=1;jettySize=auto;html=1;entryX=1;entryY=0.5;entryDx=0;entryDy=0;fontSize=14;" edge="1" parent="1" source="6ViDivKzs20HJmW9UM8F-30" target="6ViDivKzs20HJmW9UM8F-24">
          <mxGeometry relative="1" as="geometry" />
        </mxCell>
        <mxCell id="6ViDivKzs20HJmW9UM8F-32" style="edgeStyle=none;rounded=0;orthogonalLoop=1;jettySize=auto;html=1;entryX=1;entryY=0.5;entryDx=0;entryDy=0;fontSize=14;" edge="1" parent="1" source="6ViDivKzs20HJmW9UM8F-30" target="6ViDivKzs20HJmW9UM8F-31">
          <mxGeometry relative="1" as="geometry" />
        </mxCell>
        <mxCell id="6ViDivKzs20HJmW9UM8F-30" value="&lt;font style=&quot;font-size: 18px;&quot;&gt;同旅&lt;/font&gt;" style="shape=umlActor;verticalLabelPosition=bottom;verticalAlign=top;html=1;outlineConnect=0;fontSize=24;" vertex="1" parent="1">
          <mxGeometry x="800" y="425" width="40" height="80" as="geometry" />
        </mxCell>
        <mxCell id="6ViDivKzs20HJmW9UM8F-31" value="&lt;font style=&quot;font-size: 14px;&quot;&gt;发起合同签约&lt;/font&gt;" style="ellipse;whiteSpace=wrap;html=1;fontSize=18;" vertex="1" parent="1">
          <mxGeometry x="601.5" y="554.5" width="120" height="30" as="geometry" />
        </mxCell>
      </root>
    </mxGraphModel>
  </diagram>
  <diagram id="SNU-3uVu0nnapTLRThpi" name="第 12 页">
    <mxGraphModel dx="1048" dy="619" grid="1" gridSize="10" guides="1" tooltips="1" connect="1" arrows="1" fold="1" page="1" pageScale="1" pageWidth="827" pageHeight="1169" math="0" shadow="0">
      <root>
        <mxCell id="0" />
        <mxCell id="1" parent="0" />
        <mxCell id="NqteL0X-D_iYcfynw0BH-40" value="" style="rounded=0;whiteSpace=wrap;html=1;dashed=1;fontSize=18;" vertex="1" parent="1">
          <mxGeometry x="354" y="10" width="906" height="610" as="geometry" />
        </mxCell>
        <mxCell id="NqteL0X-D_iYcfynw0BH-36" value="" style="rounded=0;whiteSpace=wrap;html=1;dashed=1;fontSize=18;" vertex="1" parent="1">
          <mxGeometry x="920" y="10" width="340" height="170" as="geometry" />
        </mxCell>
        <mxCell id="NqteL0X-D_iYcfynw0BH-33" value="" style="rounded=0;whiteSpace=wrap;html=1;fontSize=14;dashed=1;" vertex="1" parent="1">
          <mxGeometry x="920" y="470" width="340" height="150" as="geometry" />
        </mxCell>
        <mxCell id="NqteL0X-D_iYcfynw0BH-31" value="" style="rounded=0;whiteSpace=wrap;html=1;fontSize=14;dashed=1;" vertex="1" parent="1">
          <mxGeometry x="560" y="470" width="340" height="150" as="geometry" />
        </mxCell>
        <mxCell id="NqteL0X-D_iYcfynw0BH-27" value="" style="rounded=0;whiteSpace=wrap;html=1;fontSize=14;dashed=1;" vertex="1" parent="1">
          <mxGeometry x="349" y="550" width="200" height="70" as="geometry" />
        </mxCell>
        <mxCell id="NqteL0X-D_iYcfynw0BH-24" value="" style="rounded=0;whiteSpace=wrap;html=1;fontSize=14;dashed=1;" vertex="1" parent="1">
          <mxGeometry x="350" y="470" width="200" height="70" as="geometry" />
        </mxCell>
        <mxCell id="NqteL0X-D_iYcfynw0BH-22" value="" style="rounded=0;whiteSpace=wrap;html=1;fontSize=14;dashed=1;" vertex="1" parent="1">
          <mxGeometry x="350" y="210" width="370" height="250" as="geometry" />
        </mxCell>
        <mxCell id="nsm4mkCtPAYOSixflhAL-1" style="edgeStyle=none;rounded=0;orthogonalLoop=1;jettySize=auto;html=1;entryX=0;entryY=0.5;entryDx=0;entryDy=0;fontSize=14;" edge="1" parent="1" source="nsm4mkCtPAYOSixflhAL-4" target="nsm4mkCtPAYOSixflhAL-8">
          <mxGeometry relative="1" as="geometry" />
        </mxCell>
        <mxCell id="nsm4mkCtPAYOSixflhAL-2" style="edgeStyle=none;rounded=0;orthogonalLoop=1;jettySize=auto;html=1;fontSize=14;" edge="1" parent="1" source="nsm4mkCtPAYOSixflhAL-4" target="nsm4mkCtPAYOSixflhAL-16">
          <mxGeometry relative="1" as="geometry" />
        </mxCell>
        <mxCell id="NqteL0X-D_iYcfynw0BH-29" style="edgeStyle=orthogonalEdgeStyle;rounded=0;orthogonalLoop=1;jettySize=auto;html=1;entryX=0;entryY=0.5;entryDx=0;entryDy=0;fontSize=18;elbow=vertical;" edge="1" parent="1" source="nsm4mkCtPAYOSixflhAL-4" target="nsm4mkCtPAYOSixflhAL-18">
          <mxGeometry relative="1" as="geometry">
            <Array as="points">
              <mxPoint x="300" y="495" />
            </Array>
          </mxGeometry>
        </mxCell>
        <mxCell id="nsm4mkCtPAYOSixflhAL-4" value="&lt;font style=&quot;font-size: 18px;&quot;&gt;买家&lt;/font&gt;" style="shape=umlActor;verticalLabelPosition=bottom;verticalAlign=top;html=1;outlineConnect=0;fontSize=24;" vertex="1" parent="1">
          <mxGeometry x="280" y="65" width="40" height="80" as="geometry" />
        </mxCell>
        <mxCell id="nsm4mkCtPAYOSixflhAL-5" style="edgeStyle=none;rounded=0;orthogonalLoop=1;jettySize=auto;html=1;entryX=0;entryY=0.5;entryDx=0;entryDy=0;fontSize=14;" edge="1" parent="1" source="nsm4mkCtPAYOSixflhAL-8" target="nsm4mkCtPAYOSixflhAL-9">
          <mxGeometry relative="1" as="geometry" />
        </mxCell>
        <mxCell id="nsm4mkCtPAYOSixflhAL-6" style="edgeStyle=none;rounded=0;orthogonalLoop=1;jettySize=auto;html=1;entryX=0;entryY=0.5;entryDx=0;entryDy=0;fontSize=14;" edge="1" parent="1" source="nsm4mkCtPAYOSixflhAL-8" target="nsm4mkCtPAYOSixflhAL-12">
          <mxGeometry relative="1" as="geometry" />
        </mxCell>
        <mxCell id="nsm4mkCtPAYOSixflhAL-7" style="edgeStyle=none;rounded=0;orthogonalLoop=1;jettySize=auto;html=1;entryX=0;entryY=0.5;entryDx=0;entryDy=0;fontSize=14;" edge="1" parent="1" source="nsm4mkCtPAYOSixflhAL-8" target="nsm4mkCtPAYOSixflhAL-13">
          <mxGeometry relative="1" as="geometry" />
        </mxCell>
        <mxCell id="nsm4mkCtPAYOSixflhAL-8" value="&lt;font style=&quot;font-size: 14px;&quot;&gt;浏览景点&lt;/font&gt;" style="ellipse;whiteSpace=wrap;html=1;fontSize=18;" vertex="1" parent="1">
          <mxGeometry x="389" y="100" width="100" height="30" as="geometry" />
        </mxCell>
        <mxCell id="nsm4mkCtPAYOSixflhAL-9" value="&lt;font style=&quot;font-size: 14px;&quot;&gt;浏览景点产品目录&lt;/font&gt;" style="ellipse;whiteSpace=wrap;html=1;fontSize=18;" vertex="1" parent="1">
          <mxGeometry x="549" y="30" width="130" height="30" as="geometry" />
        </mxCell>
        <mxCell id="nsm4mkCtPAYOSixflhAL-10" style="edgeStyle=none;rounded=0;orthogonalLoop=1;jettySize=auto;html=1;entryX=0;entryY=0.5;entryDx=0;entryDy=0;fontSize=14;" edge="1" parent="1" source="nsm4mkCtPAYOSixflhAL-12" target="nsm4mkCtPAYOSixflhAL-38">
          <mxGeometry relative="1" as="geometry" />
        </mxCell>
        <mxCell id="nsm4mkCtPAYOSixflhAL-11" style="edgeStyle=none;rounded=0;orthogonalLoop=1;jettySize=auto;html=1;entryX=0;entryY=0;entryDx=0;entryDy=0;fontSize=14;" edge="1" parent="1" source="nsm4mkCtPAYOSixflhAL-12" target="nsm4mkCtPAYOSixflhAL-27">
          <mxGeometry relative="1" as="geometry" />
        </mxCell>
        <mxCell id="nsm4mkCtPAYOSixflhAL-12" value="&lt;font style=&quot;font-size: 14px;&quot;&gt;查看景点产品详情&lt;/font&gt;" style="ellipse;whiteSpace=wrap;html=1;fontSize=18;" vertex="1" parent="1">
          <mxGeometry x="639" y="90" width="140" height="30" as="geometry" />
        </mxCell>
        <mxCell id="nsm4mkCtPAYOSixflhAL-13" value="&lt;font style=&quot;font-size: 14px;&quot;&gt;景区导览&lt;/font&gt;" style="ellipse;whiteSpace=wrap;html=1;fontSize=18;" vertex="1" parent="1">
          <mxGeometry x="539" y="150" width="100" height="30" as="geometry" />
        </mxCell>
        <mxCell id="nsm4mkCtPAYOSixflhAL-14" style="edgeStyle=none;rounded=0;orthogonalLoop=1;jettySize=auto;html=1;entryX=0;entryY=0.5;entryDx=0;entryDy=0;fontSize=14;" edge="1" parent="1" source="nsm4mkCtPAYOSixflhAL-16" target="nsm4mkCtPAYOSixflhAL-21">
          <mxGeometry relative="1" as="geometry" />
        </mxCell>
        <mxCell id="nsm4mkCtPAYOSixflhAL-15" style="edgeStyle=none;rounded=0;orthogonalLoop=1;jettySize=auto;html=1;entryX=0.251;entryY=0.014;entryDx=0;entryDy=0;fontSize=14;entryPerimeter=0;" edge="1" parent="1" source="nsm4mkCtPAYOSixflhAL-16" target="nsm4mkCtPAYOSixflhAL-25">
          <mxGeometry relative="1" as="geometry" />
        </mxCell>
        <mxCell id="nsm4mkCtPAYOSixflhAL-16" value="&lt;font style=&quot;font-size: 14px;&quot;&gt;购买旅游产品&lt;/font&gt;" style="ellipse;whiteSpace=wrap;html=1;fontSize=18;" vertex="1" parent="1">
          <mxGeometry x="360" y="255" width="100" height="30" as="geometry" />
        </mxCell>
        <mxCell id="nsm4mkCtPAYOSixflhAL-17" style="edgeStyle=none;rounded=0;orthogonalLoop=1;jettySize=auto;html=1;entryX=0.425;entryY=-0.004;entryDx=0;entryDy=0;fontSize=14;entryPerimeter=0;" edge="1" parent="1" source="nsm4mkCtPAYOSixflhAL-18" target="nsm4mkCtPAYOSixflhAL-28">
          <mxGeometry relative="1" as="geometry" />
        </mxCell>
        <mxCell id="nsm4mkCtPAYOSixflhAL-18" value="&lt;span style=&quot;font-size: 14px;&quot;&gt;支付订单&lt;/span&gt;" style="ellipse;whiteSpace=wrap;html=1;fontSize=18;" vertex="1" parent="1">
          <mxGeometry x="406" y="480" width="100" height="30" as="geometry" />
        </mxCell>
        <mxCell id="nsm4mkCtPAYOSixflhAL-19" style="rounded=0;orthogonalLoop=1;jettySize=auto;html=1;entryX=0;entryY=0.5;entryDx=0;entryDy=0;fontSize=14;exitX=1;exitY=0.5;exitDx=0;exitDy=0;" edge="1" parent="1" source="nsm4mkCtPAYOSixflhAL-21" target="nsm4mkCtPAYOSixflhAL-27">
          <mxGeometry relative="1" as="geometry" />
        </mxCell>
        <mxCell id="nsm4mkCtPAYOSixflhAL-20" style="edgeStyle=none;rounded=0;orthogonalLoop=1;jettySize=auto;html=1;entryX=0;entryY=0.5;entryDx=0;entryDy=0;fontSize=14;" edge="1" parent="1" source="nsm4mkCtPAYOSixflhAL-21" target="nsm4mkCtPAYOSixflhAL-31">
          <mxGeometry relative="1" as="geometry" />
        </mxCell>
        <mxCell id="nsm4mkCtPAYOSixflhAL-21" value="&lt;font style=&quot;font-size: 14px;&quot;&gt;查看可订阅日历&lt;/font&gt;" style="ellipse;whiteSpace=wrap;html=1;fontSize=18;" vertex="1" parent="1">
          <mxGeometry x="484" y="225" width="120" height="30" as="geometry" />
        </mxCell>
        <mxCell id="nsm4mkCtPAYOSixflhAL-22" style="edgeStyle=none;rounded=0;orthogonalLoop=1;jettySize=auto;html=1;entryX=0;entryY=0.5;entryDx=0;entryDy=0;fontSize=14;" edge="1" parent="1" source="nsm4mkCtPAYOSixflhAL-25" target="nsm4mkCtPAYOSixflhAL-34">
          <mxGeometry relative="1" as="geometry" />
        </mxCell>
        <mxCell id="nsm4mkCtPAYOSixflhAL-23" style="edgeStyle=none;rounded=0;orthogonalLoop=1;jettySize=auto;html=1;fontSize=14;" edge="1" parent="1" source="nsm4mkCtPAYOSixflhAL-25">
          <mxGeometry relative="1" as="geometry">
            <mxPoint x="590" y="365" as="targetPoint" />
          </mxGeometry>
        </mxCell>
        <mxCell id="nsm4mkCtPAYOSixflhAL-24" style="edgeStyle=none;rounded=0;orthogonalLoop=1;jettySize=auto;html=1;entryX=0.5;entryY=0;entryDx=0;entryDy=0;fontSize=14;" edge="1" parent="1" source="nsm4mkCtPAYOSixflhAL-25" target="nsm4mkCtPAYOSixflhAL-28">
          <mxGeometry relative="1" as="geometry" />
        </mxCell>
        <mxCell id="nsm4mkCtPAYOSixflhAL-25" value="&lt;font style=&quot;font-size: 14px;&quot;&gt;下订单&lt;/font&gt;" style="ellipse;whiteSpace=wrap;html=1;fontSize=18;" vertex="1" parent="1">
          <mxGeometry x="410" y="340" width="100" height="30" as="geometry" />
        </mxCell>
        <mxCell id="nsm4mkCtPAYOSixflhAL-26" style="edgeStyle=none;rounded=0;orthogonalLoop=1;jettySize=auto;html=1;entryX=0.5;entryY=1;entryDx=0;entryDy=0;fontSize=14;" edge="1" parent="1" source="nsm4mkCtPAYOSixflhAL-27" target="nsm4mkCtPAYOSixflhAL-38">
          <mxGeometry relative="1" as="geometry" />
        </mxCell>
        <mxCell id="nsm4mkCtPAYOSixflhAL-27" value="&lt;font style=&quot;font-size: 14px;&quot;&gt;计算价格&lt;/font&gt;" style="ellipse;whiteSpace=wrap;html=1;fontSize=18;" vertex="1" parent="1">
          <mxGeometry x="800" y="215" width="120" height="30" as="geometry" />
        </mxCell>
        <mxCell id="nsm4mkCtPAYOSixflhAL-28" value="&lt;span style=&quot;font-size: 14px;&quot;&gt;交易记账&lt;/span&gt;" style="ellipse;whiteSpace=wrap;html=1;fontSize=18;" vertex="1" parent="1">
          <mxGeometry x="425" y="570" width="100" height="30" as="geometry" />
        </mxCell>
        <mxCell id="nsm4mkCtPAYOSixflhAL-29" value="&lt;span style=&quot;font-size: 14px;&quot;&gt;扣减库存&lt;/span&gt;" style="ellipse;whiteSpace=wrap;html=1;fontSize=18;" vertex="1" parent="1">
          <mxGeometry x="787" y="350" width="100" height="30" as="geometry" />
        </mxCell>
        <mxCell id="QqsWfDUYxVh6Hhg0rBgq-25" value="" style="edgeStyle=none;rounded=0;orthogonalLoop=1;jettySize=auto;html=1;fontSize=14;" edge="1" parent="1" source="nsm4mkCtPAYOSixflhAL-30" target="nsm4mkCtPAYOSixflhAL-37">
          <mxGeometry relative="1" as="geometry" />
        </mxCell>
        <mxCell id="nsm4mkCtPAYOSixflhAL-30" value="&lt;font style=&quot;font-size: 14px;&quot;&gt;商家系统下单&lt;/font&gt;" style="ellipse;whiteSpace=wrap;html=1;fontSize=18;" vertex="1" parent="1">
          <mxGeometry x="594" y="415" width="100" height="30" as="geometry" />
        </mxCell>
        <mxCell id="nsm4mkCtPAYOSixflhAL-31" value="&lt;font style=&quot;font-size: 14px;&quot;&gt;计算库存&lt;/font&gt;" style="ellipse;whiteSpace=wrap;html=1;fontSize=18;" vertex="1" parent="1">
          <mxGeometry x="730" y="260" width="120" height="30" as="geometry" />
        </mxCell>
        <mxCell id="nsm4mkCtPAYOSixflhAL-32" style="edgeStyle=none;rounded=0;orthogonalLoop=1;jettySize=auto;html=1;entryX=0.089;entryY=0.768;entryDx=0;entryDy=0;fontSize=14;entryPerimeter=0;" edge="1" parent="1" source="nsm4mkCtPAYOSixflhAL-34" target="nsm4mkCtPAYOSixflhAL-31">
          <mxGeometry relative="1" as="geometry" />
        </mxCell>
        <mxCell id="k2UdKNeh1uZs6JgTt7-R-1" style="edgeStyle=orthogonalEdgeStyle;rounded=0;orthogonalLoop=1;jettySize=auto;html=1;entryX=0.5;entryY=1;entryDx=0;entryDy=0;fontSize=14;" edge="1" parent="1" source="nsm4mkCtPAYOSixflhAL-34" target="nsm4mkCtPAYOSixflhAL-27">
          <mxGeometry relative="1" as="geometry" />
        </mxCell>
        <mxCell id="nsm4mkCtPAYOSixflhAL-34" value="&lt;font style=&quot;font-size: 14px;&quot;&gt;验证订单&lt;/font&gt;" style="ellipse;whiteSpace=wrap;html=1;fontSize=18;" vertex="1" parent="1">
          <mxGeometry x="530" y="290" width="120" height="30" as="geometry" />
        </mxCell>
        <mxCell id="nsm4mkCtPAYOSixflhAL-35" style="edgeStyle=none;rounded=0;orthogonalLoop=1;jettySize=auto;html=1;entryX=0;entryY=0.5;entryDx=0;entryDy=0;fontSize=14;" edge="1" parent="1" source="nsm4mkCtPAYOSixflhAL-37" target="nsm4mkCtPAYOSixflhAL-29">
          <mxGeometry relative="1" as="geometry" />
        </mxCell>
        <mxCell id="nsm4mkCtPAYOSixflhAL-37" value="&lt;font style=&quot;font-size: 14px;&quot;&gt;提交订单&lt;/font&gt;" style="ellipse;whiteSpace=wrap;html=1;fontSize=18;" vertex="1" parent="1">
          <mxGeometry x="584" y="350" width="120" height="30" as="geometry" />
        </mxCell>
        <mxCell id="nsm4mkCtPAYOSixflhAL-38" value="&lt;font style=&quot;font-size: 14px;&quot;&gt;查询优惠&lt;/font&gt;" style="ellipse;whiteSpace=wrap;html=1;fontSize=18;" vertex="1" parent="1">
          <mxGeometry x="930" y="115" width="120" height="30" as="geometry" />
        </mxCell>
        <mxCell id="QqsWfDUYxVh6Hhg0rBgq-1" value="&lt;span style=&quot;font-size: 14px;&quot;&gt;维护商家资质&lt;/span&gt;" style="ellipse;whiteSpace=wrap;html=1;fontSize=18;" vertex="1" parent="1">
          <mxGeometry x="990" y="515" width="120" height="30" as="geometry" />
        </mxCell>
        <mxCell id="QqsWfDUYxVh6Hhg0rBgq-2" value="&lt;span style=&quot;font-size: 14px;&quot;&gt;维护商家业务线&lt;/span&gt;" style="ellipse;whiteSpace=wrap;html=1;fontSize=18;" vertex="1" parent="1">
          <mxGeometry x="1102" y="480" width="120" height="30" as="geometry" />
        </mxCell>
        <mxCell id="QqsWfDUYxVh6Hhg0rBgq-4" value="&lt;font style=&quot;font-size: 14px;&quot;&gt;录入正式合同&lt;/font&gt;" style="ellipse;whiteSpace=wrap;html=1;fontSize=18;" vertex="1" parent="1">
          <mxGeometry x="1120" y="585" width="120" height="30" as="geometry" />
        </mxCell>
        <mxCell id="QqsWfDUYxVh6Hhg0rBgq-5" style="edgeStyle=none;rounded=0;orthogonalLoop=1;jettySize=auto;html=1;entryX=1;entryY=0.5;entryDx=0;entryDy=0;fontSize=14;" edge="1" parent="1" source="QqsWfDUYxVh6Hhg0rBgq-10" target="QqsWfDUYxVh6Hhg0rBgq-2">
          <mxGeometry relative="1" as="geometry" />
        </mxCell>
        <mxCell id="QqsWfDUYxVh6Hhg0rBgq-6" style="edgeStyle=none;rounded=0;orthogonalLoop=1;jettySize=auto;html=1;entryX=1;entryY=0.5;entryDx=0;entryDy=0;fontSize=14;" edge="1" parent="1" source="QqsWfDUYxVh6Hhg0rBgq-10" target="QqsWfDUYxVh6Hhg0rBgq-1">
          <mxGeometry relative="1" as="geometry" />
        </mxCell>
        <mxCell id="QqsWfDUYxVh6Hhg0rBgq-7" style="edgeStyle=none;rounded=0;orthogonalLoop=1;jettySize=auto;html=1;entryX=1;entryY=0.5;entryDx=0;entryDy=0;fontSize=14;" edge="1" parent="1" source="QqsWfDUYxVh6Hhg0rBgq-10" target="QqsWfDUYxVh6Hhg0rBgq-4">
          <mxGeometry relative="1" as="geometry" />
        </mxCell>
        <mxCell id="QqsWfDUYxVh6Hhg0rBgq-9" style="rounded=0;orthogonalLoop=1;jettySize=auto;html=1;entryX=1;entryY=0.5;entryDx=0;entryDy=0;fontSize=14;" edge="1" parent="1" source="QqsWfDUYxVh6Hhg0rBgq-10" target="QqsWfDUYxVh6Hhg0rBgq-11">
          <mxGeometry relative="1" as="geometry" />
        </mxCell>
        <mxCell id="QqsWfDUYxVh6Hhg0rBgq-10" value="&lt;font style=&quot;font-size: 18px;&quot;&gt;同旅&lt;/font&gt;" style="shape=umlActor;verticalLabelPosition=bottom;verticalAlign=top;html=1;outlineConnect=0;fontSize=24;" vertex="1" parent="1">
          <mxGeometry x="1300.5" y="500" width="40" height="80" as="geometry" />
        </mxCell>
        <mxCell id="QqsWfDUYxVh6Hhg0rBgq-11" value="&lt;font style=&quot;font-size: 14px;&quot;&gt;发起合同签约&lt;/font&gt;" style="ellipse;whiteSpace=wrap;html=1;fontSize=18;" vertex="1" parent="1">
          <mxGeometry x="990" y="555" width="120" height="30" as="geometry" />
        </mxCell>
        <mxCell id="QqsWfDUYxVh6Hhg0rBgq-13" value="&lt;span style=&quot;font-size: 14px;&quot;&gt;商家系统的确认&lt;/span&gt;" style="ellipse;whiteSpace=wrap;html=1;fontSize=18;" vertex="1" parent="1">
          <mxGeometry x="600" y="510" width="120" height="30" as="geometry" />
        </mxCell>
        <mxCell id="QqsWfDUYxVh6Hhg0rBgq-22" style="edgeStyle=none;rounded=0;orthogonalLoop=1;jettySize=auto;html=1;entryX=1;entryY=0.5;entryDx=0;entryDy=0;fontSize=14;" edge="1" parent="1" source="QqsWfDUYxVh6Hhg0rBgq-14" target="QqsWfDUYxVh6Hhg0rBgq-13">
          <mxGeometry relative="1" as="geometry" />
        </mxCell>
        <mxCell id="QqsWfDUYxVh6Hhg0rBgq-23" style="edgeStyle=none;rounded=0;orthogonalLoop=1;jettySize=auto;html=1;entryX=0.986;entryY=0.233;entryDx=0;entryDy=0;entryPerimeter=0;fontSize=14;" edge="1" parent="1" source="QqsWfDUYxVh6Hhg0rBgq-14" target="QqsWfDUYxVh6Hhg0rBgq-21">
          <mxGeometry relative="1" as="geometry" />
        </mxCell>
        <mxCell id="QqsWfDUYxVh6Hhg0rBgq-24" style="edgeStyle=none;rounded=0;orthogonalLoop=1;jettySize=auto;html=1;entryX=0.5;entryY=0;entryDx=0;entryDy=0;fontSize=14;" edge="1" parent="1" source="QqsWfDUYxVh6Hhg0rBgq-14" target="QqsWfDUYxVh6Hhg0rBgq-15">
          <mxGeometry relative="1" as="geometry" />
        </mxCell>
        <mxCell id="QqsWfDUYxVh6Hhg0rBgq-14" value="&lt;span style=&quot;font-size: 14px;&quot;&gt;确认订单&lt;/span&gt;" style="ellipse;whiteSpace=wrap;html=1;fontSize=18;" vertex="1" parent="1">
          <mxGeometry x="760" y="510" width="120" height="30" as="geometry" />
        </mxCell>
        <mxCell id="QqsWfDUYxVh6Hhg0rBgq-15" value="&lt;font style=&quot;font-size: 14px;&quot;&gt;凭证发放&lt;/font&gt;" style="ellipse;whiteSpace=wrap;html=1;fontSize=18;" vertex="1" parent="1">
          <mxGeometry x="760" y="570" width="120" height="30" as="geometry" />
        </mxCell>
        <mxCell id="QqsWfDUYxVh6Hhg0rBgq-21" value="&lt;font style=&quot;font-size: 14px;&quot;&gt;手工确认&lt;/font&gt;" style="ellipse;whiteSpace=wrap;html=1;fontSize=18;" vertex="1" parent="1">
          <mxGeometry x="600" y="570" width="120" height="30" as="geometry" />
        </mxCell>
        <mxCell id="RbYQloZehkxUFso8y8Gy-8" value="&lt;font style=&quot;font-size: 14px;&quot;&gt;设置产品信息&lt;/font&gt;" style="ellipse;whiteSpace=wrap;html=1;fontSize=18;" vertex="1" parent="1">
          <mxGeometry x="1090" y="225" width="130" height="30" as="geometry" />
        </mxCell>
        <mxCell id="RbYQloZehkxUFso8y8Gy-9" value="&lt;span style=&quot;font-size: 14px;&quot;&gt;设置产品规则&lt;/span&gt;" style="ellipse;whiteSpace=wrap;html=1;fontSize=18;" vertex="1" parent="1">
          <mxGeometry x="940" y="290" width="140" height="30" as="geometry" />
        </mxCell>
        <mxCell id="RbYQloZehkxUFso8y8Gy-10" value="&lt;span style=&quot;font-size: 14px;&quot;&gt;设置产品价格&lt;/span&gt;" style="ellipse;whiteSpace=wrap;html=1;fontSize=18;" vertex="1" parent="1">
          <mxGeometry x="1105" y="290" width="100" height="30" as="geometry" />
        </mxCell>
        <mxCell id="RbYQloZehkxUFso8y8Gy-20" value="&lt;span style=&quot;font-size: 14px;&quot;&gt;设置产品库存&lt;/span&gt;" style="ellipse;whiteSpace=wrap;html=1;fontSize=18;" vertex="1" parent="1">
          <mxGeometry x="963.75" y="355" width="100" height="30" as="geometry" />
        </mxCell>
        <mxCell id="RbYQloZehkxUFso8y8Gy-21" value="&lt;span style=&quot;font-size: 14px;&quot;&gt;产品发布&lt;/span&gt;" style="ellipse;whiteSpace=wrap;html=1;fontSize=18;" vertex="1" parent="1">
          <mxGeometry x="1080" y="345" width="100" height="30" as="geometry" />
        </mxCell>
        <mxCell id="RbYQloZehkxUFso8y8Gy-22" value="&lt;span style=&quot;font-size: 14px;&quot;&gt;下架产品&lt;/span&gt;" style="ellipse;whiteSpace=wrap;html=1;fontSize=18;" vertex="1" parent="1">
          <mxGeometry x="960" y="225" width="100" height="30" as="geometry" />
        </mxCell>
        <mxCell id="NqteL0X-D_iYcfynw0BH-15" style="edgeStyle=none;rounded=0;orthogonalLoop=1;jettySize=auto;html=1;entryX=1;entryY=1;entryDx=0;entryDy=0;entryPerimeter=0;fontSize=14;elbow=vertical;" edge="1" parent="1" source="RbYQloZehkxUFso8y8Gy-24" target="RbYQloZehkxUFso8y8Gy-8">
          <mxGeometry relative="1" as="geometry" />
        </mxCell>
        <mxCell id="NqteL0X-D_iYcfynw0BH-16" style="edgeStyle=none;rounded=0;orthogonalLoop=1;jettySize=auto;html=1;entryX=1;entryY=0.5;entryDx=0;entryDy=0;fontSize=14;elbow=vertical;" edge="1" parent="1" source="RbYQloZehkxUFso8y8Gy-24" target="NqteL0X-D_iYcfynw0BH-3">
          <mxGeometry relative="1" as="geometry" />
        </mxCell>
        <mxCell id="NqteL0X-D_iYcfynw0BH-17" style="edgeStyle=none;rounded=0;orthogonalLoop=1;jettySize=auto;html=1;entryX=1;entryY=0.5;entryDx=0;entryDy=0;fontSize=14;elbow=vertical;" edge="1" parent="1" source="RbYQloZehkxUFso8y8Gy-24" target="RbYQloZehkxUFso8y8Gy-10">
          <mxGeometry relative="1" as="geometry" />
        </mxCell>
        <mxCell id="NqteL0X-D_iYcfynw0BH-18" style="edgeStyle=none;rounded=0;orthogonalLoop=1;jettySize=auto;html=1;entryX=1;entryY=0.5;entryDx=0;entryDy=0;fontSize=14;elbow=vertical;" edge="1" parent="1" source="RbYQloZehkxUFso8y8Gy-24" target="QqsWfDUYxVh6Hhg0rBgq-14">
          <mxGeometry relative="1" as="geometry" />
        </mxCell>
        <mxCell id="NqteL0X-D_iYcfynw0BH-19" style="edgeStyle=none;rounded=0;orthogonalLoop=1;jettySize=auto;html=1;entryX=1;entryY=0.5;entryDx=0;entryDy=0;fontSize=14;elbow=vertical;" edge="1" parent="1" source="RbYQloZehkxUFso8y8Gy-24" target="RbYQloZehkxUFso8y8Gy-21">
          <mxGeometry relative="1" as="geometry" />
        </mxCell>
        <mxCell id="RbYQloZehkxUFso8y8Gy-24" value="&lt;font style=&quot;font-size: 18px;&quot;&gt;商家&lt;/font&gt;" style="shape=umlActor;verticalLabelPosition=bottom;verticalAlign=top;html=1;outlineConnect=0;fontSize=24;" vertex="1" parent="1">
          <mxGeometry x="1290" y="275" width="40" height="80" as="geometry" />
        </mxCell>
        <mxCell id="NqteL0X-D_iYcfynw0BH-1" value="&lt;span style=&quot;font-size: 14px;&quot;&gt;设置产品优惠&lt;/span&gt;" style="ellipse;whiteSpace=wrap;html=1;fontSize=18;" vertex="1" parent="1">
          <mxGeometry x="1071.5" y="15" width="120" height="30" as="geometry" />
        </mxCell>
        <mxCell id="NqteL0X-D_iYcfynw0BH-2" value="&lt;span style=&quot;font-size: 14px;&quot;&gt;审核活动商家&lt;/span&gt;" style="ellipse;whiteSpace=wrap;html=1;fontSize=18;" vertex="1" parent="1">
          <mxGeometry x="920" y="50" width="120" height="30" as="geometry" />
        </mxCell>
        <mxCell id="NqteL0X-D_iYcfynw0BH-3" value="&lt;span style=&quot;font-size: 14px;&quot;&gt;运营活动提报&lt;/span&gt;" style="ellipse;whiteSpace=wrap;html=1;fontSize=18;" vertex="1" parent="1">
          <mxGeometry x="1088.75" y="130" width="120" height="30" as="geometry" />
        </mxCell>
        <mxCell id="NqteL0X-D_iYcfynw0BH-4" value="&lt;font style=&quot;font-size: 14px;&quot;&gt;产品活动运营&lt;/font&gt;" style="ellipse;whiteSpace=wrap;html=1;fontSize=18;" vertex="1" parent="1">
          <mxGeometry x="1071.5" y="75" width="120" height="30" as="geometry" />
        </mxCell>
        <mxCell id="NqteL0X-D_iYcfynw0BH-5" style="edgeStyle=none;rounded=0;orthogonalLoop=1;jettySize=auto;html=1;entryX=1;entryY=0.5;entryDx=0;entryDy=0;fontSize=14;" edge="1" parent="1" source="NqteL0X-D_iYcfynw0BH-9" target="NqteL0X-D_iYcfynw0BH-2">
          <mxGeometry relative="1" as="geometry" />
        </mxCell>
        <mxCell id="NqteL0X-D_iYcfynw0BH-6" style="edgeStyle=none;rounded=0;orthogonalLoop=1;jettySize=auto;html=1;entryX=1;entryY=0.5;entryDx=0;entryDy=0;fontSize=14;" edge="1" parent="1" source="NqteL0X-D_iYcfynw0BH-9" target="NqteL0X-D_iYcfynw0BH-1">
          <mxGeometry relative="1" as="geometry" />
        </mxCell>
        <mxCell id="NqteL0X-D_iYcfynw0BH-7" style="edgeStyle=none;rounded=0;orthogonalLoop=1;jettySize=auto;html=1;entryX=1;entryY=0.5;entryDx=0;entryDy=0;fontSize=14;" edge="1" parent="1" source="NqteL0X-D_iYcfynw0BH-9" target="NqteL0X-D_iYcfynw0BH-4">
          <mxGeometry relative="1" as="geometry" />
        </mxCell>
        <mxCell id="NqteL0X-D_iYcfynw0BH-9" value="&lt;font style=&quot;font-size: 18px;&quot;&gt;运营&lt;/font&gt;" style="shape=umlActor;verticalLabelPosition=bottom;verticalAlign=top;html=1;outlineConnect=0;fontSize=24;" vertex="1" parent="1">
          <mxGeometry x="1270" width="40" height="80" as="geometry" />
        </mxCell>
        <mxCell id="NqteL0X-D_iYcfynw0BH-23" value="&lt;b&gt;&lt;font style=&quot;font-size: 18px;&quot;&gt;订单&lt;/font&gt;&lt;/b&gt;" style="text;html=1;strokeColor=none;fillColor=none;align=center;verticalAlign=middle;whiteSpace=wrap;rounded=0;dashed=1;fontSize=14;" vertex="1" parent="1">
          <mxGeometry x="350" y="210" width="60" height="30" as="geometry" />
        </mxCell>
        <mxCell id="NqteL0X-D_iYcfynw0BH-26" value="&lt;b&gt;&lt;font style=&quot;font-size: 18px;&quot;&gt;支付&lt;/font&gt;&lt;/b&gt;" style="text;html=1;strokeColor=none;fillColor=none;align=center;verticalAlign=middle;whiteSpace=wrap;rounded=0;dashed=1;fontSize=14;" vertex="1" parent="1">
          <mxGeometry x="350" y="510" width="60" height="30" as="geometry" />
        </mxCell>
        <mxCell id="NqteL0X-D_iYcfynw0BH-28" value="&lt;b&gt;&lt;font style=&quot;font-size: 18px;&quot;&gt;结算&lt;/font&gt;&lt;/b&gt;" style="text;html=1;strokeColor=none;fillColor=none;align=center;verticalAlign=middle;whiteSpace=wrap;rounded=0;dashed=1;fontSize=14;" vertex="1" parent="1">
          <mxGeometry x="365" y="590" width="60" height="30" as="geometry" />
        </mxCell>
        <mxCell id="NqteL0X-D_iYcfynw0BH-32" value="&lt;b&gt;&lt;font style=&quot;font-size: 18px;&quot;&gt;履约&lt;/font&gt;&lt;/b&gt;" style="text;html=1;strokeColor=none;fillColor=none;align=center;verticalAlign=middle;whiteSpace=wrap;rounded=0;dashed=1;fontSize=14;" vertex="1" parent="1">
          <mxGeometry x="570" y="480" width="60" height="30" as="geometry" />
        </mxCell>
        <mxCell id="NqteL0X-D_iYcfynw0BH-35" value="&lt;b&gt;&lt;font style=&quot;font-size: 18px;&quot;&gt;履约&lt;/font&gt;&lt;/b&gt;" style="text;html=1;strokeColor=none;fillColor=none;align=center;verticalAlign=middle;whiteSpace=wrap;rounded=0;dashed=1;fontSize=14;" vertex="1" parent="1">
          <mxGeometry x="920" y="480" width="60" height="30" as="geometry" />
        </mxCell>
        <mxCell id="NqteL0X-D_iYcfynw0BH-37" value="&lt;b&gt;&lt;font style=&quot;font-size: 18px;&quot;&gt;履约&lt;/font&gt;&lt;/b&gt;" style="text;html=1;strokeColor=none;fillColor=none;align=center;verticalAlign=middle;whiteSpace=wrap;rounded=0;dashed=1;fontSize=14;" vertex="1" parent="1">
          <mxGeometry x="920" y="10" width="60" height="30" as="geometry" />
        </mxCell>
        <mxCell id="NqteL0X-D_iYcfynw0BH-39" value="&lt;b&gt;&lt;font style=&quot;font-size: 18px;&quot;&gt;商品&lt;/font&gt;&lt;/b&gt;" style="text;html=1;strokeColor=none;fillColor=none;align=center;verticalAlign=middle;whiteSpace=wrap;rounded=0;dashed=1;fontSize=14;" vertex="1" parent="1">
          <mxGeometry x="406" y="25" width="60" height="30" as="geometry" />
        </mxCell>
      </root>
    </mxGraphModel>
  </diagram>
  <diagram id="j9y84IVWTTx6c2lF7wk4" name="第 13 页">
    <mxGraphModel dx="1209" dy="714" grid="1" gridSize="10" guides="1" tooltips="1" connect="1" arrows="1" fold="1" page="1" pageScale="1" pageWidth="827" pageHeight="1169" math="0" shadow="0">
      <root>
        <mxCell id="0" />
        <mxCell id="1" parent="0" />
        <mxCell id="xiesc6Nni0HSi29fwwEH-29" value="" style="ellipse;whiteSpace=wrap;html=1;fontSize=14;" vertex="1" parent="1">
          <mxGeometry x="660" y="90" width="500" height="320" as="geometry" />
        </mxCell>
        <mxCell id="xiesc6Nni0HSi29fwwEH-1" style="edgeStyle=none;rounded=0;orthogonalLoop=1;jettySize=auto;html=1;fontSize=14;" edge="1" parent="1" target="xiesc6Nni0HSi29fwwEH-5">
          <mxGeometry relative="1" as="geometry">
            <mxPoint x="175" y="224.2508710801394" as="sourcePoint" />
          </mxGeometry>
        </mxCell>
        <mxCell id="xiesc6Nni0HSi29fwwEH-2" value="基于通用语言沟通" style="edgeLabel;html=1;align=center;verticalAlign=middle;resizable=0;points=[];fontSize=14;" vertex="1" connectable="0" parent="xiesc6Nni0HSi29fwwEH-1">
          <mxGeometry x="0.0501" y="-3" relative="1" as="geometry">
            <mxPoint as="offset" />
          </mxGeometry>
        </mxCell>
        <mxCell id="xiesc6Nni0HSi29fwwEH-3" style="edgeStyle=none;rounded=0;orthogonalLoop=1;jettySize=auto;html=1;fontSize=14;" edge="1" parent="1" source="xiesc6Nni0HSi29fwwEH-4">
          <mxGeometry relative="1" as="geometry">
            <mxPoint x="163" y="210" as="targetPoint" />
          </mxGeometry>
        </mxCell>
        <mxCell id="xiesc6Nni0HSi29fwwEH-4" value="问题域+业务愿景" style="ellipse;shape=cloud;whiteSpace=wrap;html=1;fontSize=14;" vertex="1" parent="1">
          <mxGeometry x="80" y="80" width="165" height="80" as="geometry" />
        </mxCell>
        <mxCell id="xiesc6Nni0HSi29fwwEH-5" value="通用语言" style="whiteSpace=wrap;html=1;shape=mxgraph.basic.oval_callout;fontSize=14;" vertex="1" parent="1">
          <mxGeometry x="382" y="80" width="130" height="80" as="geometry" />
        </mxCell>
        <mxCell id="xiesc6Nni0HSi29fwwEH-6" style="edgeStyle=none;rounded=0;orthogonalLoop=1;jettySize=auto;html=1;entryX=0.5;entryY=0.84;entryDx=0;entryDy=0;entryPerimeter=0;fontSize=14;" edge="1" parent="1" source="xiesc6Nni0HSi29fwwEH-8" target="xiesc6Nni0HSi29fwwEH-5">
          <mxGeometry relative="1" as="geometry" />
        </mxCell>
        <mxCell id="xiesc6Nni0HSi29fwwEH-7" value="知识提炼产物" style="edgeLabel;html=1;align=center;verticalAlign=middle;resizable=0;points=[];fontSize=14;" vertex="1" connectable="0" parent="xiesc6Nni0HSi29fwwEH-6">
          <mxGeometry x="0.0547" y="-2" relative="1" as="geometry">
            <mxPoint as="offset" />
          </mxGeometry>
        </mxCell>
        <mxCell id="xiesc6Nni0HSi29fwwEH-31" value="精炼" style="rounded=0;orthogonalLoop=1;jettySize=auto;html=1;entryX=0.004;entryY=0.552;entryDx=0;entryDy=0;entryPerimeter=0;fontSize=14;elbow=vertical;" edge="1" parent="1" source="xiesc6Nni0HSi29fwwEH-8" target="xiesc6Nni0HSi29fwwEH-29">
          <mxGeometry relative="1" as="geometry" />
        </mxCell>
        <mxCell id="xiesc6Nni0HSi29fwwEH-8" value="领域知识" style="shape=delay;whiteSpace=wrap;html=1;fontSize=14;" vertex="1" parent="1">
          <mxGeometry x="394" y="280" width="118" height="50" as="geometry" />
        </mxCell>
        <mxCell id="xiesc6Nni0HSi29fwwEH-9" value="" style="shape=actor;whiteSpace=wrap;html=1;fontSize=14;" vertex="1" parent="1">
          <mxGeometry x="102.5" y="230" width="40" height="60" as="geometry" />
        </mxCell>
        <mxCell id="xiesc6Nni0HSi29fwwEH-10" value="" style="shape=actor;whiteSpace=wrap;html=1;fontSize=14;" vertex="1" parent="1">
          <mxGeometry x="142.5" y="230" width="40" height="60" as="geometry" />
        </mxCell>
        <mxCell id="xiesc6Nni0HSi29fwwEH-11" style="edgeStyle=none;rounded=0;orthogonalLoop=1;jettySize=auto;html=1;entryX=0;entryY=0.5;entryDx=0;entryDy=0;fontSize=14;" edge="1" parent="1" source="xiesc6Nni0HSi29fwwEH-13" target="xiesc6Nni0HSi29fwwEH-8">
          <mxGeometry relative="1" as="geometry" />
        </mxCell>
        <mxCell id="xiesc6Nni0HSi29fwwEH-12" value="知识提炼" style="edgeLabel;html=1;align=center;verticalAlign=middle;resizable=0;points=[];fontSize=14;" vertex="1" connectable="0" parent="xiesc6Nni0HSi29fwwEH-11">
          <mxGeometry x="-0.0643" y="-1" relative="1" as="geometry">
            <mxPoint as="offset" />
          </mxGeometry>
        </mxCell>
        <mxCell id="xiesc6Nni0HSi29fwwEH-13" value="" style="shape=actor;whiteSpace=wrap;html=1;fontSize=14;" vertex="1" parent="1">
          <mxGeometry x="182.5" y="230" width="40" height="60" as="geometry" />
        </mxCell>
        <mxCell id="xiesc6Nni0HSi29fwwEH-14" value="业务、产品、技术团队" style="text;html=1;strokeColor=none;fillColor=none;align=center;verticalAlign=middle;whiteSpace=wrap;rounded=0;fontSize=14;" vertex="1" parent="1">
          <mxGeometry x="86.5" y="300" width="152" height="30" as="geometry" />
        </mxCell>
        <mxCell id="xiesc6Nni0HSi29fwwEH-15" value="用例分析" style="text;html=1;strokeColor=#b85450;fillColor=#f8cecc;align=center;verticalAlign=middle;whiteSpace=wrap;rounded=0;fontSize=14;" vertex="1" parent="1">
          <mxGeometry x="417" y="350" width="60" height="30" as="geometry" />
        </mxCell>
        <mxCell id="xiesc6Nni0HSi29fwwEH-16" value="场景分析" style="text;html=1;align=center;verticalAlign=middle;whiteSpace=wrap;rounded=0;fontSize=14;" vertex="1" parent="1">
          <mxGeometry x="417" y="380" width="60" height="30" as="geometry" />
        </mxCell>
        <mxCell id="xiesc6Nni0HSi29fwwEH-17" value="模型草图" style="text;html=1;align=center;verticalAlign=middle;whiteSpace=wrap;rounded=0;fontSize=14;" vertex="1" parent="1">
          <mxGeometry x="417" y="410" width="60" height="30" as="geometry" />
        </mxCell>
        <mxCell id="xiesc6Nni0HSi29fwwEH-19" value="商品域" style="ellipse;whiteSpace=wrap;html=1;fontSize=18;fillColor=#f8cecc;strokeColor=#b85450;" vertex="1" parent="1">
          <mxGeometry x="700" y="160" width="120" height="80" as="geometry" />
        </mxCell>
        <mxCell id="xiesc6Nni0HSi29fwwEH-20" value="订单域" style="ellipse;whiteSpace=wrap;html=1;fontSize=18;fillColor=#f8cecc;strokeColor=#b85450;" vertex="1" parent="1">
          <mxGeometry x="860" y="160" width="120" height="80" as="geometry" />
        </mxCell>
        <mxCell id="xiesc6Nni0HSi29fwwEH-22" value="营销域" style="ellipse;whiteSpace=wrap;html=1;fontSize=18;" vertex="1" parent="1">
          <mxGeometry x="1000" y="160" width="120" height="80" as="geometry" />
        </mxCell>
        <mxCell id="xiesc6Nni0HSi29fwwEH-23" value="商家域" style="ellipse;whiteSpace=wrap;html=1;fontSize=18;" vertex="1" parent="1">
          <mxGeometry x="1000" y="260" width="120" height="80" as="geometry" />
        </mxCell>
        <mxCell id="xiesc6Nni0HSi29fwwEH-24" value="结算域" style="ellipse;whiteSpace=wrap;html=1;fontSize=18;" vertex="1" parent="1">
          <mxGeometry x="860" y="280" width="120" height="80" as="geometry" />
        </mxCell>
        <mxCell id="xiesc6Nni0HSi29fwwEH-25" value="支付域" style="ellipse;whiteSpace=wrap;html=1;fontSize=18;" vertex="1" parent="1">
          <mxGeometry x="700" y="270" width="120" height="80" as="geometry" />
        </mxCell>
        <mxCell id="xiesc6Nni0HSi29fwwEH-26" value="履约域" style="text;html=1;strokeColor=none;fillColor=none;align=center;verticalAlign=middle;whiteSpace=wrap;rounded=0;fontSize=18;" vertex="1" parent="1">
          <mxGeometry x="800" y="230" width="60" height="30" as="geometry" />
        </mxCell>
        <mxCell id="xiesc6Nni0HSi29fwwEH-27" value="&lt;b&gt;&lt;font style=&quot;font-size: 14px;&quot;&gt;核心子域&lt;/font&gt;&lt;/b&gt;" style="text;html=1;strokeColor=none;fillColor=none;align=center;verticalAlign=middle;whiteSpace=wrap;rounded=0;fontSize=18;" vertex="1" parent="1">
          <mxGeometry x="770" y="150" width="60" height="30" as="geometry" />
        </mxCell>
        <mxCell id="xiesc6Nni0HSi29fwwEH-28" value="&lt;b&gt;核心子域&lt;/b&gt;" style="text;whiteSpace=wrap;html=1;fontSize=14;" vertex="1" parent="1">
          <mxGeometry x="930" y="150" width="80" height="30" as="geometry" />
        </mxCell>
        <mxCell id="xiesc6Nni0HSi29fwwEH-30" value="&lt;b&gt;旅游电商系统&lt;/b&gt;" style="text;html=1;strokeColor=none;fillColor=none;align=center;verticalAlign=middle;whiteSpace=wrap;rounded=0;fontSize=14;" vertex="1" parent="1">
          <mxGeometry x="850" y="110" width="110" height="30" as="geometry" />
        </mxCell>
        <mxCell id="xiesc6Nni0HSi29fwwEH-33" value="&lt;ul&gt;&lt;li&gt;不同的能力区域&lt;/li&gt;&lt;li&gt;不同的业务过程&lt;br&gt;&lt;/li&gt;&lt;/ul&gt;" style="text;html=1;strokeColor=none;fillColor=none;align=center;verticalAlign=middle;whiteSpace=wrap;rounded=0;fontSize=14;" vertex="1" parent="1">
          <mxGeometry x="477" y="365" width="210" height="30" as="geometry" />
        </mxCell>
        <mxCell id="xiesc6Nni0HSi29fwwEH-35" value="&lt;ul&gt;&lt;li&gt;用子域逻辑划分整个业务领域&lt;/li&gt;&lt;li&gt;理解大型复杂项目的问题空间&lt;/li&gt;&lt;/ul&gt;" style="text;html=1;strokeColor=none;fillColor=none;align=center;verticalAlign=middle;whiteSpace=wrap;rounded=0;fontSize=14;" vertex="1" parent="1">
          <mxGeometry x="760" y="440" width="260" height="30" as="geometry" />
        </mxCell>
        <mxCell id="xiesc6Nni0HSi29fwwEH-36" value="&lt;b&gt;产品&amp;nbsp; &amp;nbsp; &amp;nbsp;订单&amp;nbsp; &amp;nbsp; &amp;nbsp;履约&amp;nbsp; &amp;nbsp; &amp;nbsp;优惠&lt;br&gt;&amp;nbsp; &amp;nbsp; &amp;nbsp;买家&amp;nbsp; &amp;nbsp; &amp;nbsp;卖家&amp;nbsp; &amp;nbsp; &amp;nbsp;支付&amp;nbsp; &amp;nbsp; &amp;nbsp;结算&amp;nbsp; &amp;nbsp;&amp;nbsp;&lt;/b&gt;" style="text;html=1;strokeColor=none;fillColor=none;align=center;verticalAlign=middle;whiteSpace=wrap;rounded=0;fontSize=14;" vertex="1" parent="1">
          <mxGeometry x="690" y="30" width="360" height="30" as="geometry" />
        </mxCell>
        <mxCell id="4iXmlhi6oVl_Zngej7_v-1" value="&lt;ul&gt;&lt;li&gt;&lt;span style=&quot;font-size: 18px; background-color: initial;&quot;&gt;&lt;b&gt;为用户提供休闲度假的旅游产品购买和服务&lt;/b&gt;&lt;/span&gt;&lt;/li&gt;&lt;li&gt;&lt;span style=&quot;font-size: 18px; background-color: initial;&quot;&gt;&lt;b&gt;为景区和旅游商家提供度假旅游产品一体化售卖平台&lt;/b&gt;&lt;/span&gt;&lt;/li&gt;&lt;/ul&gt;" style="text;html=1;strokeColor=none;fillColor=none;align=left;verticalAlign=middle;whiteSpace=wrap;rounded=0;dashed=1;fontSize=12;fontColor=#121212;" vertex="1" parent="1">
          <mxGeometry x="90" y="10" width="477" height="50" as="geometry" />
        </mxCell>
      </root>
    </mxGraphModel>
  </diagram>
  <diagram id="bA-20s303eCLYz0JcwPU" name="第 14 页">
    <mxGraphModel dx="873" dy="516" grid="1" gridSize="10" guides="1" tooltips="1" connect="1" arrows="1" fold="1" page="1" pageScale="1" pageWidth="827" pageHeight="1169" math="0" shadow="0">
      <root>
        <mxCell id="0" />
        <mxCell id="1" parent="0" />
        <mxCell id="UtdI_v7GAHEvXApj7LUF-2" value="" style="shape=actor;whiteSpace=wrap;html=1;fontSize=14;" vertex="1" parent="1">
          <mxGeometry x="120" y="140" width="40" height="60" as="geometry" />
        </mxCell>
        <mxCell id="Y-9wUC8QHCsyon8m6x9B-1" value="&lt;div&gt;买家提交特定旅游产品售卖单元的购买数量;&lt;/div&gt;&lt;div&gt;系统验证数量限购规则和购买时间限制规则;系统验证优惠信息;&lt;/div&gt;&lt;div&gt;计算订单价格、验证可用库存;&lt;/div&gt;&lt;div&gt;用户提交特定日期某票种的购买数量、系统验证 生成交易订单和订单项信息;&amp;nbsp;&lt;/div&gt;&lt;div&gt;每单最多和最少购买限制，验证手机号购买限制，&lt;/div&gt;&lt;div&gt;验证入园时间;验证抵用券信息，计算订单价格、 根据库存扣减策略操作所有订单项对应的售卖单&amp;nbsp;&lt;/div&gt;&lt;div&gt;成订单。等待用户支付结果消息。&lt;/div&gt;" style="whiteSpace=wrap;html=1;shape=mxgraph.basic.rectCallout;dx=30;dy=15;boundedLbl=1;fontSize=14;align=left;" vertex="1" parent="1">
          <mxGeometry x="220" y="100" width="630" height="140" as="geometry" />
        </mxCell>
        <mxCell id="Y-9wUC8QHCsyon8m6x9B-2" value="&lt;div&gt;验证剩余库存;验证订单通过后扣减库存，并生元库存;&lt;/div&gt;&lt;div&gt;门票业务人员 根据用户支付结果执行相关订单动作。&amp;nbsp;&lt;/div&gt;&lt;div&gt;用户提交酒景产品特定日期的某个套餐购买份数;&lt;/div&gt;&lt;div&gt;系统验证每套餐的最多和最少购买限制，验证套餐可使用时间;计算订单价格;验证剩&lt;/div&gt;&lt;div&gt;酒景业务人员 余库存;验证订单通过后;生成订单;锁定 场景1:订单满足限购规则 平台统一语言&amp;nbsp;&lt;/div&gt;&lt;div&gt;库存;收到用户成功支付后，扣减库存。&amp;nbsp;&lt;/div&gt;" style="whiteSpace=wrap;html=1;shape=mxgraph.basic.rectCallout;dx=30;dy=15;boundedLbl=1;fontSize=14;align=left;" vertex="1" parent="1">
          <mxGeometry x="220" y="290" width="630" height="140" as="geometry" />
        </mxCell>
        <mxCell id="Y-9wUC8QHCsyon8m6x9B-3" value="" style="shape=actor;whiteSpace=wrap;html=1;fontSize=14;" vertex="1" parent="1">
          <mxGeometry x="120" y="320" width="40" height="60" as="geometry" />
        </mxCell>
        <mxCell id="Y-9wUC8QHCsyon8m6x9B-4" value="&lt;font style=&quot;font-size: 14px;&quot;&gt;门票业务人员&lt;/font&gt;" style="text;html=1;strokeColor=none;fillColor=none;align=center;verticalAlign=middle;whiteSpace=wrap;rounded=0;dashed=1;fontSize=18;fontColor=#121212;" vertex="1" parent="1">
          <mxGeometry x="95" y="210" width="90" height="30" as="geometry" />
        </mxCell>
        <mxCell id="Y-9wUC8QHCsyon8m6x9B-5" value="&lt;font style=&quot;font-size: 14px;&quot;&gt;酒景业务人员&lt;/font&gt;" style="text;html=1;strokeColor=none;fillColor=none;align=center;verticalAlign=middle;whiteSpace=wrap;rounded=0;dashed=1;fontSize=18;fontColor=#121212;" vertex="1" parent="1">
          <mxGeometry x="95" y="390" width="90" height="30" as="geometry" />
        </mxCell>
        <mxCell id="Y-9wUC8QHCsyon8m6x9B-7" value="&lt;div&gt;买家提交特定旅游产品&lt;font color=&quot;#ff6666&quot;&gt;售卖单元&lt;/font&gt;的购买数量;&lt;/div&gt;&lt;div&gt;系统验证数量限购规则和购买时间&lt;font color=&quot;#ff6666&quot;&gt;限制规则&lt;/font&gt;;&lt;/div&gt;&lt;div&gt;系统验证优惠信息;&lt;/div&gt;&lt;div&gt;&lt;br&gt;&lt;/div&gt;&lt;div&gt;计算订单价格、验证可用库存;&lt;/div&gt;&lt;div&gt;&lt;br&gt;&lt;/div&gt;&lt;div&gt;生成交易订单和订单项信息;&lt;/div&gt;&lt;div&gt;&lt;br&gt;&lt;/div&gt;&lt;div&gt;根据&lt;font color=&quot;#ff6666&quot;&gt;库存扣减策略&lt;/font&gt;操作所有订单项对应的售卖单元库存;&lt;/div&gt;&lt;div&gt;&lt;br&gt;&lt;/div&gt;&lt;div&gt;根据用户支付结果执行相关订单动作。&lt;/div&gt;" style="text;html=1;strokeColor=none;fillColor=none;align=left;verticalAlign=middle;whiteSpace=wrap;rounded=0;dashed=1;fontSize=14;fontColor=#121212;" vertex="1" parent="1">
          <mxGeometry x="960" y="109" width="350" height="251" as="geometry" />
        </mxCell>
        <mxCell id="Y-9wUC8QHCsyon8m6x9B-8" value="&lt;font color=&quot;#121212&quot;&gt;&lt;b&gt;下订单业务抽象&lt;/b&gt;&lt;/font&gt;" style="text;html=1;strokeColor=none;fillColor=none;align=center;verticalAlign=middle;whiteSpace=wrap;rounded=0;dashed=1;fontSize=14;fontColor=#FF6666;" vertex="1" parent="1">
          <mxGeometry x="1070" y="70" width="110" height="30" as="geometry" />
        </mxCell>
        <mxCell id="Y-9wUC8QHCsyon8m6x9B-9" value="&lt;div&gt;&lt;b&gt;场景1:订单满足限购规则&lt;/b&gt;&lt;/div&gt;&lt;div&gt;&lt;b&gt;场景2:订单不满足限购规则场景3:产品库存不足&lt;/b&gt;&lt;/div&gt;&lt;div&gt;&lt;b&gt;场景&lt;span style=&quot;background-color: initial;&quot;&gt;4:…&lt;/span&gt;&lt;/b&gt;&lt;/div&gt;" style="text;html=1;strokeColor=none;fillColor=none;align=left;verticalAlign=middle;whiteSpace=wrap;rounded=0;dashed=1;fontSize=14;fontColor=#121212;" vertex="1" parent="1">
          <mxGeometry x="960" y="350" width="180" height="100" as="geometry" />
        </mxCell>
        <mxCell id="Y-9wUC8QHCsyon8m6x9B-10" value="平台统一语言" style="shape=callout;whiteSpace=wrap;html=1;perimeter=calloutPerimeter;dashed=1;fontSize=14;fontColor=#121212;" vertex="1" parent="1">
          <mxGeometry x="1260" y="100" width="120" height="80" as="geometry" />
        </mxCell>
      </root>
    </mxGraphModel>
  </diagram>
  <diagram id="Imds1LSt9BUBdBX0zym5" name="第 15 页">
    <mxGraphModel dx="1429" dy="844" grid="1" gridSize="10" guides="1" tooltips="1" connect="1" arrows="1" fold="1" page="1" pageScale="1" pageWidth="827" pageHeight="1169" math="0" shadow="0">
      <root>
        <mxCell id="0" />
        <mxCell id="1" parent="0" />
        <mxCell id="HY2_Z8JWW91-4Ul5rWW5-1" value="&lt;font style=&quot;font-size: 18px;&quot;&gt;订单&lt;/font&gt;" style="rounded=0;whiteSpace=wrap;html=1;fontSize=14;" vertex="1" parent="1">
          <mxGeometry x="130" y="67" width="80" height="50" as="geometry" />
        </mxCell>
        <mxCell id="HY2_Z8JWW91-4Ul5rWW5-2" value="&lt;font style=&quot;font-size: 18px;&quot;&gt;订单项&lt;/font&gt;" style="rounded=0;whiteSpace=wrap;html=1;fontSize=14;" vertex="1" parent="1">
          <mxGeometry x="130" y="177" width="80" height="50" as="geometry" />
        </mxCell>
        <mxCell id="HY2_Z8JWW91-4Ul5rWW5-3" value="&lt;font style=&quot;font-size: 18px;&quot;&gt;消费项&lt;/font&gt;" style="rounded=0;whiteSpace=wrap;html=1;fontSize=14;" vertex="1" parent="1">
          <mxGeometry x="130" y="290" width="80" height="50" as="geometry" />
        </mxCell>
        <mxCell id="HY2_Z8JWW91-4Ul5rWW5-4" value="&lt;font style=&quot;font-size: 18px;&quot;&gt;产品&lt;/font&gt;" style="rounded=0;whiteSpace=wrap;html=1;fontSize=14;" vertex="1" parent="1">
          <mxGeometry x="290" y="180" width="80" height="50" as="geometry" />
        </mxCell>
        <mxCell id="HY2_Z8JWW91-4Ul5rWW5-5" value="&lt;font style=&quot;font-size: 18px;&quot;&gt;售卖单元&lt;/font&gt;" style="rounded=0;whiteSpace=wrap;html=1;fontSize=14;" vertex="1" parent="1">
          <mxGeometry x="290" y="290" width="80" height="50" as="geometry" />
        </mxCell>
        <mxCell id="HY2_Z8JWW91-4Ul5rWW5-6" value="&lt;font style=&quot;font-size: 18px;&quot;&gt;扣减规则&lt;/font&gt;" style="rounded=0;whiteSpace=wrap;html=1;fontSize=14;" vertex="1" parent="1">
          <mxGeometry x="290" y="395" width="80" height="50" as="geometry" />
        </mxCell>
        <mxCell id="HY2_Z8JWW91-4Ul5rWW5-7" value="&lt;span style=&quot;font-size: 18px;&quot;&gt;售卖规则&lt;/span&gt;" style="rounded=0;whiteSpace=wrap;html=1;fontSize=14;" vertex="1" parent="1">
          <mxGeometry x="450" y="290" width="80" height="50" as="geometry" />
        </mxCell>
        <mxCell id="HY2_Z8JWW91-4Ul5rWW5-8" value="&lt;font style=&quot;font-size: 18px;&quot;&gt;库存操作单元&lt;/font&gt;" style="rounded=0;whiteSpace=wrap;html=1;fontSize=14;" vertex="1" parent="1">
          <mxGeometry x="630" y="80" width="130" height="50" as="geometry" />
        </mxCell>
        <mxCell id="HY2_Z8JWW91-4Ul5rWW5-9" value="&lt;font style=&quot;font-size: 18px;&quot;&gt;售卖单元&lt;/font&gt;" style="rounded=0;whiteSpace=wrap;html=1;fontSize=14;" vertex="1" parent="1">
          <mxGeometry x="830" y="80" width="80" height="50" as="geometry" />
        </mxCell>
        <mxCell id="HY2_Z8JWW91-4Ul5rWW5-10" value="&lt;font style=&quot;font-size: 18px;&quot;&gt;产品&lt;/font&gt;" style="rounded=0;whiteSpace=wrap;html=1;fontSize=14;" vertex="1" parent="1">
          <mxGeometry x="1000" y="80" width="80" height="50" as="geometry" />
        </mxCell>
        <mxCell id="HY2_Z8JWW91-4Ul5rWW5-11" value="&lt;font style=&quot;font-size: 18px;&quot;&gt;扣减策略&lt;/font&gt;" style="rounded=0;whiteSpace=wrap;html=1;fontSize=14;" vertex="1" parent="1">
          <mxGeometry x="780" y="190" width="80" height="50" as="geometry" />
        </mxCell>
        <mxCell id="HY2_Z8JWW91-4Ul5rWW5-12" value="&lt;font style=&quot;font-size: 18px;&quot;&gt;库存单元&lt;/font&gt;" style="rounded=0;whiteSpace=wrap;html=1;fontSize=14;" vertex="1" parent="1">
          <mxGeometry x="910" y="190" width="80" height="50" as="geometry" />
        </mxCell>
        <mxCell id="HY2_Z8JWW91-4Ul5rWW5-14" value="&lt;font style=&quot;font-size: 18px;&quot;&gt;库存操作单元&lt;/font&gt;" style="rounded=0;whiteSpace=wrap;html=1;fontSize=14;" vertex="1" parent="1">
          <mxGeometry x="630" y="335" width="130" height="50" as="geometry" />
        </mxCell>
        <mxCell id="HY2_Z8JWW91-4Ul5rWW5-15" value="&lt;font style=&quot;font-size: 18px;&quot;&gt;售卖单元&lt;/font&gt;" style="rounded=0;whiteSpace=wrap;html=1;fontSize=14;" vertex="1" parent="1">
          <mxGeometry x="840" y="335" width="80" height="50" as="geometry" />
        </mxCell>
        <mxCell id="HY2_Z8JWW91-4Ul5rWW5-16" value="&lt;font style=&quot;font-size: 18px;&quot;&gt;产品&lt;/font&gt;" style="rounded=0;whiteSpace=wrap;html=1;fontSize=14;" vertex="1" parent="1">
          <mxGeometry x="1010" y="335" width="80" height="50" as="geometry" />
        </mxCell>
        <mxCell id="HY2_Z8JWW91-4Ul5rWW5-17" value="&lt;font style=&quot;font-size: 18px;&quot;&gt;扣减策略&lt;/font&gt;" style="rounded=0;whiteSpace=wrap;html=1;fontSize=14;" vertex="1" parent="1">
          <mxGeometry x="780" y="445" width="80" height="50" as="geometry" />
        </mxCell>
        <mxCell id="HY2_Z8JWW91-4Ul5rWW5-18" value="&lt;font style=&quot;font-size: 18px;&quot;&gt;订单项&lt;/font&gt;" style="rounded=0;whiteSpace=wrap;html=1;fontSize=14;" vertex="1" parent="1">
          <mxGeometry x="930" y="445" width="80" height="50" as="geometry" />
        </mxCell>
        <mxCell id="HY2_Z8JWW91-4Ul5rWW5-19" value="" style="endArrow=none;html=1;rounded=0;fontSize=18;elbow=vertical;entryX=0.5;entryY=1;entryDx=0;entryDy=0;exitX=0.5;exitY=0;exitDx=0;exitDy=0;" edge="1" parent="1" source="HY2_Z8JWW91-4Ul5rWW5-2" target="HY2_Z8JWW91-4Ul5rWW5-1">
          <mxGeometry width="50" height="50" relative="1" as="geometry">
            <mxPoint x="160" y="187" as="sourcePoint" />
            <mxPoint x="210" y="137" as="targetPoint" />
          </mxGeometry>
        </mxCell>
        <mxCell id="HY2_Z8JWW91-4Ul5rWW5-21" value="*" style="edgeLabel;html=1;align=center;verticalAlign=middle;resizable=0;points=[];fontSize=18;" vertex="1" connectable="0" parent="HY2_Z8JWW91-4Ul5rWW5-19">
          <mxGeometry x="-0.5" y="-3" relative="1" as="geometry">
            <mxPoint as="offset" />
          </mxGeometry>
        </mxCell>
        <mxCell id="HY2_Z8JWW91-4Ul5rWW5-22" value="1" style="edgeLabel;html=1;align=center;verticalAlign=middle;resizable=0;points=[];fontSize=18;" vertex="1" connectable="0" parent="HY2_Z8JWW91-4Ul5rWW5-19">
          <mxGeometry x="0.5667" y="-4" relative="1" as="geometry">
            <mxPoint as="offset" />
          </mxGeometry>
        </mxCell>
        <mxCell id="HY2_Z8JWW91-4Ul5rWW5-23" value="" style="endArrow=none;html=1;rounded=0;fontSize=18;elbow=vertical;entryX=0.5;entryY=1;entryDx=0;entryDy=0;exitX=0.5;exitY=0;exitDx=0;exitDy=0;" edge="1" parent="1">
          <mxGeometry width="50" height="50" relative="1" as="geometry">
            <mxPoint x="169.5" y="290" as="sourcePoint" />
            <mxPoint x="169.5" y="230" as="targetPoint" />
          </mxGeometry>
        </mxCell>
        <mxCell id="HY2_Z8JWW91-4Ul5rWW5-24" value="*" style="edgeLabel;html=1;align=center;verticalAlign=middle;resizable=0;points=[];fontSize=18;" vertex="1" connectable="0" parent="HY2_Z8JWW91-4Ul5rWW5-23">
          <mxGeometry x="-0.5" y="-3" relative="1" as="geometry">
            <mxPoint as="offset" />
          </mxGeometry>
        </mxCell>
        <mxCell id="HY2_Z8JWW91-4Ul5rWW5-29" value="1" style="edgeLabel;html=1;align=center;verticalAlign=middle;resizable=0;points=[];fontSize=18;" vertex="1" connectable="0" parent="HY2_Z8JWW91-4Ul5rWW5-23">
          <mxGeometry x="0.6333" relative="1" as="geometry">
            <mxPoint x="1" as="offset" />
          </mxGeometry>
        </mxCell>
        <mxCell id="HY2_Z8JWW91-4Ul5rWW5-26" value="" style="endArrow=none;html=1;rounded=0;fontSize=18;elbow=vertical;entryX=0.5;entryY=1;entryDx=0;entryDy=0;exitX=0.5;exitY=0;exitDx=0;exitDy=0;" edge="1" parent="1">
          <mxGeometry width="50" height="50" relative="1" as="geometry">
            <mxPoint x="330" y="290" as="sourcePoint" />
            <mxPoint x="330" y="230" as="targetPoint" />
          </mxGeometry>
        </mxCell>
        <mxCell id="HY2_Z8JWW91-4Ul5rWW5-27" value="*" style="edgeLabel;html=1;align=center;verticalAlign=middle;resizable=0;points=[];fontSize=18;" vertex="1" connectable="0" parent="HY2_Z8JWW91-4Ul5rWW5-26">
          <mxGeometry x="-0.5" y="-3" relative="1" as="geometry">
            <mxPoint as="offset" />
          </mxGeometry>
        </mxCell>
        <mxCell id="HY2_Z8JWW91-4Ul5rWW5-28" value="1" style="edgeLabel;html=1;align=center;verticalAlign=middle;resizable=0;points=[];fontSize=18;" vertex="1" connectable="0" parent="HY2_Z8JWW91-4Ul5rWW5-26">
          <mxGeometry x="0.5667" y="-4" relative="1" as="geometry">
            <mxPoint x="-4" y="7" as="offset" />
          </mxGeometry>
        </mxCell>
        <mxCell id="HY2_Z8JWW91-4Ul5rWW5-30" value="" style="endArrow=none;html=1;rounded=0;fontSize=18;elbow=vertical;entryX=0.5;entryY=1;entryDx=0;entryDy=0;exitX=0.5;exitY=0;exitDx=0;exitDy=0;" edge="1" parent="1">
          <mxGeometry width="50" height="50" relative="1" as="geometry">
            <mxPoint x="330" y="400" as="sourcePoint" />
            <mxPoint x="330" y="340" as="targetPoint" />
          </mxGeometry>
        </mxCell>
        <mxCell id="HY2_Z8JWW91-4Ul5rWW5-31" value="*" style="edgeLabel;html=1;align=center;verticalAlign=middle;resizable=0;points=[];fontSize=18;" vertex="1" connectable="0" parent="HY2_Z8JWW91-4Ul5rWW5-30">
          <mxGeometry x="-0.5" y="-3" relative="1" as="geometry">
            <mxPoint y="5" as="offset" />
          </mxGeometry>
        </mxCell>
        <mxCell id="HY2_Z8JWW91-4Ul5rWW5-32" value="1" style="edgeLabel;html=1;align=center;verticalAlign=middle;resizable=0;points=[];fontSize=18;" vertex="1" connectable="0" parent="HY2_Z8JWW91-4Ul5rWW5-30">
          <mxGeometry x="0.5667" y="-4" relative="1" as="geometry">
            <mxPoint as="offset" />
          </mxGeometry>
        </mxCell>
        <mxCell id="HY2_Z8JWW91-4Ul5rWW5-33" value="" style="endArrow=none;html=1;rounded=0;fontSize=18;elbow=vertical;entryX=1;entryY=0.5;entryDx=0;entryDy=0;exitX=0;exitY=0.5;exitDx=0;exitDy=0;" edge="1" parent="1" source="HY2_Z8JWW91-4Ul5rWW5-7" target="HY2_Z8JWW91-4Ul5rWW5-5">
          <mxGeometry width="50" height="50" relative="1" as="geometry">
            <mxPoint x="420" y="340" as="sourcePoint" />
            <mxPoint x="420" y="280" as="targetPoint" />
          </mxGeometry>
        </mxCell>
        <mxCell id="HY2_Z8JWW91-4Ul5rWW5-34" value="*" style="edgeLabel;html=1;align=center;verticalAlign=middle;resizable=0;points=[];fontSize=18;" vertex="1" connectable="0" parent="HY2_Z8JWW91-4Ul5rWW5-33">
          <mxGeometry x="-0.5" y="-3" relative="1" as="geometry">
            <mxPoint as="offset" />
          </mxGeometry>
        </mxCell>
        <mxCell id="HY2_Z8JWW91-4Ul5rWW5-35" value="1" style="edgeLabel;html=1;align=center;verticalAlign=middle;resizable=0;points=[];fontSize=18;" vertex="1" connectable="0" parent="HY2_Z8JWW91-4Ul5rWW5-33">
          <mxGeometry x="0.5667" y="-4" relative="1" as="geometry">
            <mxPoint as="offset" />
          </mxGeometry>
        </mxCell>
        <mxCell id="HY2_Z8JWW91-4Ul5rWW5-36" value="" style="endArrow=none;html=1;rounded=0;fontSize=18;elbow=vertical;" edge="1" parent="1">
          <mxGeometry width="50" height="50" relative="1" as="geometry">
            <mxPoint x="910" y="100" as="sourcePoint" />
            <mxPoint x="1000" y="100" as="targetPoint" />
          </mxGeometry>
        </mxCell>
        <mxCell id="HY2_Z8JWW91-4Ul5rWW5-37" value="*" style="edgeLabel;html=1;align=center;verticalAlign=middle;resizable=0;points=[];fontSize=18;" vertex="1" connectable="0" parent="HY2_Z8JWW91-4Ul5rWW5-36">
          <mxGeometry x="-0.5" y="-3" relative="1" as="geometry">
            <mxPoint as="offset" />
          </mxGeometry>
        </mxCell>
        <mxCell id="HY2_Z8JWW91-4Ul5rWW5-45" value="1" style="edgeLabel;html=1;align=center;verticalAlign=middle;resizable=0;points=[];fontSize=18;" vertex="1" connectable="0" parent="HY2_Z8JWW91-4Ul5rWW5-36">
          <mxGeometry x="0.6444" relative="1" as="geometry">
            <mxPoint as="offset" />
          </mxGeometry>
        </mxCell>
        <mxCell id="HY2_Z8JWW91-4Ul5rWW5-39" value="" style="endArrow=none;html=1;rounded=0;fontSize=18;elbow=vertical;exitX=0.5;exitY=0;exitDx=0;exitDy=0;" edge="1" parent="1">
          <mxGeometry width="50" height="50" relative="1" as="geometry">
            <mxPoint x="830" y="104.5" as="sourcePoint" />
            <mxPoint x="760" y="104.5" as="targetPoint" />
          </mxGeometry>
        </mxCell>
        <mxCell id="HY2_Z8JWW91-4Ul5rWW5-40" value="*" style="edgeLabel;html=1;align=center;verticalAlign=middle;resizable=0;points=[];fontSize=18;" vertex="1" connectable="0" parent="HY2_Z8JWW91-4Ul5rWW5-39">
          <mxGeometry x="-0.5" y="-3" relative="1" as="geometry">
            <mxPoint as="offset" />
          </mxGeometry>
        </mxCell>
        <mxCell id="HY2_Z8JWW91-4Ul5rWW5-41" value="1" style="edgeLabel;html=1;align=center;verticalAlign=middle;resizable=0;points=[];fontSize=18;" vertex="1" connectable="0" parent="HY2_Z8JWW91-4Ul5rWW5-39">
          <mxGeometry x="0.5667" y="-4" relative="1" as="geometry">
            <mxPoint as="offset" />
          </mxGeometry>
        </mxCell>
        <mxCell id="HY2_Z8JWW91-4Ul5rWW5-42" value="" style="endArrow=none;html=1;rounded=0;fontSize=18;elbow=vertical;exitX=0.5;exitY=0;exitDx=0;exitDy=0;" edge="1" parent="1">
          <mxGeometry width="50" height="50" relative="1" as="geometry">
            <mxPoint x="830" y="359.5" as="sourcePoint" />
            <mxPoint x="760" y="359.5" as="targetPoint" />
          </mxGeometry>
        </mxCell>
        <mxCell id="HY2_Z8JWW91-4Ul5rWW5-43" value="*" style="edgeLabel;html=1;align=center;verticalAlign=middle;resizable=0;points=[];fontSize=18;" vertex="1" connectable="0" parent="HY2_Z8JWW91-4Ul5rWW5-42">
          <mxGeometry x="-0.5" y="-3" relative="1" as="geometry">
            <mxPoint as="offset" />
          </mxGeometry>
        </mxCell>
        <mxCell id="HY2_Z8JWW91-4Ul5rWW5-44" value="1" style="edgeLabel;html=1;align=center;verticalAlign=middle;resizable=0;points=[];fontSize=18;" vertex="1" connectable="0" parent="HY2_Z8JWW91-4Ul5rWW5-42">
          <mxGeometry x="0.5667" y="-4" relative="1" as="geometry">
            <mxPoint as="offset" />
          </mxGeometry>
        </mxCell>
        <mxCell id="HY2_Z8JWW91-4Ul5rWW5-46" value="" style="endArrow=none;html=1;rounded=0;fontSize=18;elbow=vertical;exitX=0.5;exitY=0;exitDx=0;exitDy=0;entryX=0.363;entryY=1.02;entryDx=0;entryDy=0;entryPerimeter=0;" edge="1" parent="1" source="HY2_Z8JWW91-4Ul5rWW5-11" target="HY2_Z8JWW91-4Ul5rWW5-9">
          <mxGeometry width="50" height="50" relative="1" as="geometry">
            <mxPoint x="590" y="180" as="sourcePoint" />
            <mxPoint x="520" y="180" as="targetPoint" />
          </mxGeometry>
        </mxCell>
        <mxCell id="HY2_Z8JWW91-4Ul5rWW5-47" value="*" style="edgeLabel;html=1;align=center;verticalAlign=middle;resizable=0;points=[];fontSize=18;" vertex="1" connectable="0" parent="HY2_Z8JWW91-4Ul5rWW5-46">
          <mxGeometry x="-0.5" y="-3" relative="1" as="geometry">
            <mxPoint as="offset" />
          </mxGeometry>
        </mxCell>
        <mxCell id="HY2_Z8JWW91-4Ul5rWW5-48" value="1" style="edgeLabel;html=1;align=center;verticalAlign=middle;resizable=0;points=[];fontSize=18;" vertex="1" connectable="0" parent="HY2_Z8JWW91-4Ul5rWW5-46">
          <mxGeometry x="0.5667" y="-4" relative="1" as="geometry">
            <mxPoint as="offset" />
          </mxGeometry>
        </mxCell>
        <mxCell id="HY2_Z8JWW91-4Ul5rWW5-49" value="" style="endArrow=none;html=1;rounded=0;fontSize=18;elbow=vertical;exitX=0.4;exitY=-0.06;exitDx=0;exitDy=0;entryX=0.638;entryY=1;entryDx=0;entryDy=0;entryPerimeter=0;exitPerimeter=0;" edge="1" parent="1" source="HY2_Z8JWW91-4Ul5rWW5-12" target="HY2_Z8JWW91-4Ul5rWW5-9">
          <mxGeometry width="50" height="50" relative="1" as="geometry">
            <mxPoint x="930" y="160" as="sourcePoint" />
            <mxPoint x="860" y="160" as="targetPoint" />
          </mxGeometry>
        </mxCell>
        <mxCell id="HY2_Z8JWW91-4Ul5rWW5-50" value="*" style="edgeLabel;html=1;align=center;verticalAlign=middle;resizable=0;points=[];fontSize=18;" vertex="1" connectable="0" parent="HY2_Z8JWW91-4Ul5rWW5-49">
          <mxGeometry x="-0.5" y="-3" relative="1" as="geometry">
            <mxPoint as="offset" />
          </mxGeometry>
        </mxCell>
        <mxCell id="HY2_Z8JWW91-4Ul5rWW5-51" value="1" style="edgeLabel;html=1;align=center;verticalAlign=middle;resizable=0;points=[];fontSize=18;" vertex="1" connectable="0" parent="HY2_Z8JWW91-4Ul5rWW5-49">
          <mxGeometry x="0.5667" y="-4" relative="1" as="geometry">
            <mxPoint as="offset" />
          </mxGeometry>
        </mxCell>
        <mxCell id="HY2_Z8JWW91-4Ul5rWW5-52" value="" style="endArrow=none;html=1;rounded=0;fontSize=18;elbow=vertical;" edge="1" parent="1">
          <mxGeometry width="50" height="50" relative="1" as="geometry">
            <mxPoint x="930" y="359.5" as="sourcePoint" />
            <mxPoint x="1010" y="359.5" as="targetPoint" />
          </mxGeometry>
        </mxCell>
        <mxCell id="HY2_Z8JWW91-4Ul5rWW5-53" value="*" style="edgeLabel;html=1;align=center;verticalAlign=middle;resizable=0;points=[];fontSize=18;" vertex="1" connectable="0" parent="HY2_Z8JWW91-4Ul5rWW5-52">
          <mxGeometry x="-0.5" y="-3" relative="1" as="geometry">
            <mxPoint as="offset" />
          </mxGeometry>
        </mxCell>
        <mxCell id="HY2_Z8JWW91-4Ul5rWW5-54" value="1" style="edgeLabel;html=1;align=center;verticalAlign=middle;resizable=0;points=[];fontSize=18;" vertex="1" connectable="0" parent="HY2_Z8JWW91-4Ul5rWW5-52">
          <mxGeometry x="0.5667" y="-4" relative="1" as="geometry">
            <mxPoint as="offset" />
          </mxGeometry>
        </mxCell>
        <mxCell id="HY2_Z8JWW91-4Ul5rWW5-55" value="" style="endArrow=none;html=1;rounded=0;fontSize=18;elbow=vertical;entryX=0.25;entryY=1;entryDx=0;entryDy=0;" edge="1" parent="1" target="HY2_Z8JWW91-4Ul5rWW5-15">
          <mxGeometry width="50" height="50" relative="1" as="geometry">
            <mxPoint x="820" y="440" as="sourcePoint" />
            <mxPoint x="610" y="430" as="targetPoint" />
          </mxGeometry>
        </mxCell>
        <mxCell id="HY2_Z8JWW91-4Ul5rWW5-56" value="*" style="edgeLabel;html=1;align=center;verticalAlign=middle;resizable=0;points=[];fontSize=18;" vertex="1" connectable="0" parent="HY2_Z8JWW91-4Ul5rWW5-55">
          <mxGeometry x="-0.5" y="-3" relative="1" as="geometry">
            <mxPoint as="offset" />
          </mxGeometry>
        </mxCell>
        <mxCell id="HY2_Z8JWW91-4Ul5rWW5-57" value="1" style="edgeLabel;html=1;align=center;verticalAlign=middle;resizable=0;points=[];fontSize=18;" vertex="1" connectable="0" parent="HY2_Z8JWW91-4Ul5rWW5-55">
          <mxGeometry x="0.5667" y="-4" relative="1" as="geometry">
            <mxPoint as="offset" />
          </mxGeometry>
        </mxCell>
        <mxCell id="HY2_Z8JWW91-4Ul5rWW5-58" value="" style="endArrow=none;html=1;rounded=0;fontSize=18;elbow=vertical;exitX=0.75;exitY=1;exitDx=0;exitDy=0;" edge="1" parent="1" source="HY2_Z8JWW91-4Ul5rWW5-15">
          <mxGeometry width="50" height="50" relative="1" as="geometry">
            <mxPoint x="940" y="420" as="sourcePoint" />
            <mxPoint x="970" y="440" as="targetPoint" />
          </mxGeometry>
        </mxCell>
        <mxCell id="HY2_Z8JWW91-4Ul5rWW5-59" value="*" style="edgeLabel;html=1;align=center;verticalAlign=middle;resizable=0;points=[];fontSize=18;" vertex="1" connectable="0" parent="HY2_Z8JWW91-4Ul5rWW5-58">
          <mxGeometry x="-0.5" y="-3" relative="1" as="geometry">
            <mxPoint as="offset" />
          </mxGeometry>
        </mxCell>
        <mxCell id="HY2_Z8JWW91-4Ul5rWW5-60" value="1" style="edgeLabel;html=1;align=center;verticalAlign=middle;resizable=0;points=[];fontSize=18;" vertex="1" connectable="0" parent="HY2_Z8JWW91-4Ul5rWW5-58">
          <mxGeometry x="0.5667" y="-4" relative="1" as="geometry">
            <mxPoint as="offset" />
          </mxGeometry>
        </mxCell>
        <mxCell id="HY2_Z8JWW91-4Ul5rWW5-61" value="" style="endArrow=none;html=1;rounded=0;fontSize=18;elbow=vertical;exitX=0.5;exitY=0;exitDx=0;exitDy=0;" edge="1" parent="1">
          <mxGeometry width="50" height="50" relative="1" as="geometry">
            <mxPoint x="280" y="204" as="sourcePoint" />
            <mxPoint x="210" y="204" as="targetPoint" />
          </mxGeometry>
        </mxCell>
        <mxCell id="HY2_Z8JWW91-4Ul5rWW5-62" value="1" style="edgeLabel;html=1;align=center;verticalAlign=middle;resizable=0;points=[];fontSize=18;" vertex="1" connectable="0" parent="HY2_Z8JWW91-4Ul5rWW5-61">
          <mxGeometry x="-0.5" y="-3" relative="1" as="geometry">
            <mxPoint as="offset" />
          </mxGeometry>
        </mxCell>
        <mxCell id="HY2_Z8JWW91-4Ul5rWW5-63" value="1" style="edgeLabel;html=1;align=center;verticalAlign=middle;resizable=0;points=[];fontSize=18;" vertex="1" connectable="0" parent="HY2_Z8JWW91-4Ul5rWW5-61">
          <mxGeometry x="0.5667" y="-4" relative="1" as="geometry">
            <mxPoint as="offset" />
          </mxGeometry>
        </mxCell>
        <mxCell id="HY2_Z8JWW91-4Ul5rWW5-64" value="" style="endArrow=none;html=1;rounded=0;fontSize=18;elbow=vertical;exitX=0.5;exitY=0;exitDx=0;exitDy=0;" edge="1" parent="1">
          <mxGeometry width="50" height="50" relative="1" as="geometry">
            <mxPoint x="280" y="314" as="sourcePoint" />
            <mxPoint x="210" y="314" as="targetPoint" />
          </mxGeometry>
        </mxCell>
        <mxCell id="HY2_Z8JWW91-4Ul5rWW5-65" value="1" style="edgeLabel;html=1;align=center;verticalAlign=middle;resizable=0;points=[];fontSize=18;" vertex="1" connectable="0" parent="HY2_Z8JWW91-4Ul5rWW5-64">
          <mxGeometry x="-0.5" y="-3" relative="1" as="geometry">
            <mxPoint as="offset" />
          </mxGeometry>
        </mxCell>
        <mxCell id="HY2_Z8JWW91-4Ul5rWW5-66" value="1" style="edgeLabel;html=1;align=center;verticalAlign=middle;resizable=0;points=[];fontSize=18;" vertex="1" connectable="0" parent="HY2_Z8JWW91-4Ul5rWW5-64">
          <mxGeometry x="0.5667" y="-4" relative="1" as="geometry">
            <mxPoint as="offset" />
          </mxGeometry>
        </mxCell>
      </root>
    </mxGraphModel>
  </diagram>
  <diagram id="C8_2c-AuqMTWLcOKduQ4" name="第 16 页">
    <mxGraphModel dx="983" dy="1749" grid="1" gridSize="10" guides="1" tooltips="1" connect="1" arrows="1" fold="1" page="1" pageScale="1" pageWidth="827" pageHeight="1169" math="0" shadow="0">
      <root>
        <mxCell id="0" />
        <mxCell id="1" parent="0" />
        <mxCell id="Az7R7pBubAlA8pvgEYId-37" value="" style="rounded=0;whiteSpace=wrap;html=1;fontSize=12;fontColor=#121212;dashed=1;" vertex="1" parent="1">
          <mxGeometry x="765" y="17.5" width="210" height="62.5" as="geometry" />
        </mxCell>
        <mxCell id="Az7R7pBubAlA8pvgEYId-36" value="" style="rounded=0;whiteSpace=wrap;html=1;fontSize=12;fontColor=#121212;dashed=1;" vertex="1" parent="1">
          <mxGeometry x="765" y="-42.5" width="210" height="55" as="geometry" />
        </mxCell>
        <mxCell id="Az7R7pBubAlA8pvgEYId-1" value="" style="ellipse;whiteSpace=wrap;html=1;fontSize=14;" vertex="1" parent="1">
          <mxGeometry x="640" y="110" width="500" height="320" as="geometry" />
        </mxCell>
        <mxCell id="Az7R7pBubAlA8pvgEYId-2" style="edgeStyle=none;rounded=0;orthogonalLoop=1;jettySize=auto;html=1;fontSize=14;" edge="1" parent="1" target="Az7R7pBubAlA8pvgEYId-6">
          <mxGeometry relative="1" as="geometry">
            <mxPoint x="155" y="244.2508710801394" as="sourcePoint" />
          </mxGeometry>
        </mxCell>
        <mxCell id="Az7R7pBubAlA8pvgEYId-3" value="基于通用语言沟通" style="edgeLabel;html=1;align=center;verticalAlign=middle;resizable=0;points=[];fontSize=14;" vertex="1" connectable="0" parent="Az7R7pBubAlA8pvgEYId-2">
          <mxGeometry x="0.0501" y="-3" relative="1" as="geometry">
            <mxPoint as="offset" />
          </mxGeometry>
        </mxCell>
        <mxCell id="Az7R7pBubAlA8pvgEYId-4" style="edgeStyle=none;rounded=0;orthogonalLoop=1;jettySize=auto;html=1;fontSize=14;" edge="1" parent="1" source="Az7R7pBubAlA8pvgEYId-5">
          <mxGeometry relative="1" as="geometry">
            <mxPoint x="143" y="230.0000000000001" as="targetPoint" />
          </mxGeometry>
        </mxCell>
        <mxCell id="Az7R7pBubAlA8pvgEYId-5" value="问题域+业务愿景" style="ellipse;shape=cloud;whiteSpace=wrap;html=1;fontSize=14;" vertex="1" parent="1">
          <mxGeometry x="60" y="100" width="165" height="80" as="geometry" />
        </mxCell>
        <mxCell id="Az7R7pBubAlA8pvgEYId-6" value="通用语言" style="whiteSpace=wrap;html=1;shape=mxgraph.basic.oval_callout;fontSize=14;" vertex="1" parent="1">
          <mxGeometry x="362" y="100" width="130" height="80" as="geometry" />
        </mxCell>
        <mxCell id="Az7R7pBubAlA8pvgEYId-7" style="edgeStyle=none;rounded=0;orthogonalLoop=1;jettySize=auto;html=1;entryX=0.5;entryY=0.84;entryDx=0;entryDy=0;entryPerimeter=0;fontSize=14;" edge="1" parent="1" source="Az7R7pBubAlA8pvgEYId-10" target="Az7R7pBubAlA8pvgEYId-6">
          <mxGeometry relative="1" as="geometry" />
        </mxCell>
        <mxCell id="Az7R7pBubAlA8pvgEYId-8" value="知识提炼产物" style="edgeLabel;html=1;align=center;verticalAlign=middle;resizable=0;points=[];fontSize=14;" vertex="1" connectable="0" parent="Az7R7pBubAlA8pvgEYId-7">
          <mxGeometry x="0.0547" y="-2" relative="1" as="geometry">
            <mxPoint as="offset" />
          </mxGeometry>
        </mxCell>
        <mxCell id="Az7R7pBubAlA8pvgEYId-9" value="精炼" style="rounded=0;orthogonalLoop=1;jettySize=auto;html=1;entryX=0.004;entryY=0.552;entryDx=0;entryDy=0;entryPerimeter=0;fontSize=14;elbow=vertical;" edge="1" parent="1" source="Az7R7pBubAlA8pvgEYId-10" target="Az7R7pBubAlA8pvgEYId-1">
          <mxGeometry relative="1" as="geometry" />
        </mxCell>
        <mxCell id="Az7R7pBubAlA8pvgEYId-10" value="领域知识" style="shape=delay;whiteSpace=wrap;html=1;fontSize=14;" vertex="1" parent="1">
          <mxGeometry x="374" y="300" width="118" height="50" as="geometry" />
        </mxCell>
        <mxCell id="Az7R7pBubAlA8pvgEYId-11" value="" style="shape=actor;whiteSpace=wrap;html=1;fontSize=14;" vertex="1" parent="1">
          <mxGeometry x="82.5" y="250" width="40" height="60" as="geometry" />
        </mxCell>
        <mxCell id="Az7R7pBubAlA8pvgEYId-12" value="" style="shape=actor;whiteSpace=wrap;html=1;fontSize=14;" vertex="1" parent="1">
          <mxGeometry x="122.5" y="250" width="40" height="60" as="geometry" />
        </mxCell>
        <mxCell id="Az7R7pBubAlA8pvgEYId-13" style="edgeStyle=none;rounded=0;orthogonalLoop=1;jettySize=auto;html=1;entryX=0;entryY=0.5;entryDx=0;entryDy=0;fontSize=14;" edge="1" parent="1" source="Az7R7pBubAlA8pvgEYId-15" target="Az7R7pBubAlA8pvgEYId-10">
          <mxGeometry relative="1" as="geometry" />
        </mxCell>
        <mxCell id="Az7R7pBubAlA8pvgEYId-14" value="知识提炼" style="edgeLabel;html=1;align=center;verticalAlign=middle;resizable=0;points=[];fontSize=14;" vertex="1" connectable="0" parent="Az7R7pBubAlA8pvgEYId-13">
          <mxGeometry x="-0.0643" y="-1" relative="1" as="geometry">
            <mxPoint as="offset" />
          </mxGeometry>
        </mxCell>
        <mxCell id="Az7R7pBubAlA8pvgEYId-15" value="" style="shape=actor;whiteSpace=wrap;html=1;fontSize=14;" vertex="1" parent="1">
          <mxGeometry x="162.5" y="250" width="40" height="60" as="geometry" />
        </mxCell>
        <mxCell id="Az7R7pBubAlA8pvgEYId-16" value="业务、产品、技术团队" style="text;html=1;strokeColor=none;fillColor=none;align=center;verticalAlign=middle;whiteSpace=wrap;rounded=0;fontSize=14;" vertex="1" parent="1">
          <mxGeometry x="66.5" y="320" width="152" height="30" as="geometry" />
        </mxCell>
        <mxCell id="Az7R7pBubAlA8pvgEYId-17" value="用例分析" style="text;html=1;strokeColor=#b85450;fillColor=#f8cecc;align=center;verticalAlign=middle;whiteSpace=wrap;rounded=0;fontSize=14;" vertex="1" parent="1">
          <mxGeometry x="397" y="370" width="60" height="30" as="geometry" />
        </mxCell>
        <mxCell id="Az7R7pBubAlA8pvgEYId-18" value="场景分析" style="text;html=1;align=center;verticalAlign=middle;whiteSpace=wrap;rounded=0;fontSize=14;" vertex="1" parent="1">
          <mxGeometry x="397" y="400" width="60" height="30" as="geometry" />
        </mxCell>
        <mxCell id="Az7R7pBubAlA8pvgEYId-19" value="模型草图" style="text;html=1;align=center;verticalAlign=middle;whiteSpace=wrap;rounded=0;fontSize=14;" vertex="1" parent="1">
          <mxGeometry x="397" y="430" width="60" height="30" as="geometry" />
        </mxCell>
        <mxCell id="Az7R7pBubAlA8pvgEYId-20" value="商品域" style="ellipse;whiteSpace=wrap;html=1;fontSize=18;fillColor=#f8cecc;strokeColor=#b85450;" vertex="1" parent="1">
          <mxGeometry x="680" y="180" width="120" height="80" as="geometry" />
        </mxCell>
        <mxCell id="Az7R7pBubAlA8pvgEYId-21" value="订单域" style="ellipse;whiteSpace=wrap;html=1;fontSize=18;fillColor=#f8cecc;strokeColor=#b85450;" vertex="1" parent="1">
          <mxGeometry x="840" y="180" width="120" height="80" as="geometry" />
        </mxCell>
        <mxCell id="Az7R7pBubAlA8pvgEYId-22" value="营销域" style="ellipse;whiteSpace=wrap;html=1;fontSize=18;" vertex="1" parent="1">
          <mxGeometry x="980" y="180" width="120" height="80" as="geometry" />
        </mxCell>
        <mxCell id="Az7R7pBubAlA8pvgEYId-23" value="商家域" style="ellipse;whiteSpace=wrap;html=1;fontSize=18;" vertex="1" parent="1">
          <mxGeometry x="980" y="280" width="120" height="80" as="geometry" />
        </mxCell>
        <mxCell id="Az7R7pBubAlA8pvgEYId-24" value="结算域" style="ellipse;whiteSpace=wrap;html=1;fontSize=18;" vertex="1" parent="1">
          <mxGeometry x="840" y="300" width="120" height="80" as="geometry" />
        </mxCell>
        <mxCell id="Az7R7pBubAlA8pvgEYId-25" value="支付域" style="ellipse;whiteSpace=wrap;html=1;fontSize=18;" vertex="1" parent="1">
          <mxGeometry x="680" y="290" width="120" height="80" as="geometry" />
        </mxCell>
        <mxCell id="Az7R7pBubAlA8pvgEYId-26" value="履约域" style="text;html=1;strokeColor=none;fillColor=none;align=center;verticalAlign=middle;whiteSpace=wrap;rounded=0;fontSize=18;" vertex="1" parent="1">
          <mxGeometry x="780" y="250" width="60" height="30" as="geometry" />
        </mxCell>
        <mxCell id="Az7R7pBubAlA8pvgEYId-27" value="&lt;b&gt;&lt;font style=&quot;font-size: 14px;&quot;&gt;核心子域&lt;/font&gt;&lt;/b&gt;" style="text;html=1;strokeColor=none;fillColor=none;align=center;verticalAlign=middle;whiteSpace=wrap;rounded=0;fontSize=18;" vertex="1" parent="1">
          <mxGeometry x="750" y="170" width="60" height="30" as="geometry" />
        </mxCell>
        <mxCell id="Az7R7pBubAlA8pvgEYId-28" value="&lt;b&gt;核心子域&lt;/b&gt;" style="text;whiteSpace=wrap;html=1;fontSize=14;" vertex="1" parent="1">
          <mxGeometry x="910" y="170" width="80" height="30" as="geometry" />
        </mxCell>
        <mxCell id="Az7R7pBubAlA8pvgEYId-29" value="&lt;b&gt;旅游电商系统&lt;/b&gt;" style="text;html=1;strokeColor=none;fillColor=none;align=center;verticalAlign=middle;whiteSpace=wrap;rounded=0;fontSize=14;" vertex="1" parent="1">
          <mxGeometry x="830" y="130" width="110" height="30" as="geometry" />
        </mxCell>
        <mxCell id="Az7R7pBubAlA8pvgEYId-30" value="&lt;ul&gt;&lt;li&gt;不同的能力区域&lt;/li&gt;&lt;li&gt;不同的业务过程&lt;br&gt;&lt;/li&gt;&lt;/ul&gt;" style="text;html=1;strokeColor=none;fillColor=none;align=center;verticalAlign=middle;whiteSpace=wrap;rounded=0;fontSize=14;" vertex="1" parent="1">
          <mxGeometry x="457" y="385" width="210" height="30" as="geometry" />
        </mxCell>
        <mxCell id="Az7R7pBubAlA8pvgEYId-31" value="&lt;ul&gt;&lt;li&gt;用子域逻辑划分整个业务领域&lt;/li&gt;&lt;li&gt;理解大型复杂项目的问题空间&lt;/li&gt;&lt;/ul&gt;" style="text;html=1;strokeColor=none;fillColor=none;align=center;verticalAlign=middle;whiteSpace=wrap;rounded=0;fontSize=14;" vertex="1" parent="1">
          <mxGeometry x="740" y="460" width="260" height="30" as="geometry" />
        </mxCell>
        <mxCell id="Az7R7pBubAlA8pvgEYId-32" value="&lt;b&gt;&lt;font color=&quot;#ff9933&quot;&gt;产品&lt;/font&gt;&amp;nbsp; &amp;nbsp; &amp;nbsp;&lt;font color=&quot;#3333ff&quot;&gt;订单&lt;/font&gt;&amp;nbsp; &amp;nbsp; &amp;nbsp;履约&amp;nbsp; &amp;nbsp; &amp;nbsp;优惠&lt;br&gt;&amp;nbsp; &amp;nbsp; &amp;nbsp;买家&amp;nbsp; &amp;nbsp; &amp;nbsp;卖家&amp;nbsp; &amp;nbsp; &amp;nbsp;支付&amp;nbsp; &amp;nbsp; &amp;nbsp;结算&amp;nbsp; &amp;nbsp;&amp;nbsp;&lt;/b&gt;" style="text;html=1;strokeColor=none;fillColor=none;align=center;verticalAlign=middle;whiteSpace=wrap;rounded=0;fontSize=14;" vertex="1" parent="1">
          <mxGeometry x="690" y="-30" width="360" height="30" as="geometry" />
        </mxCell>
        <mxCell id="Az7R7pBubAlA8pvgEYId-33" value="&lt;b&gt;&lt;font color=&quot;#ff9933&quot;&gt;售卖单元&lt;/font&gt;&amp;nbsp; &amp;nbsp; &amp;nbsp;&lt;font color=&quot;#3333ff&quot;&gt;订单项&lt;/font&gt;&amp;nbsp; &amp;nbsp; &amp;nbsp;&lt;font color=&quot;#33ff33&quot;&gt;签约人&lt;/font&gt;&lt;br&gt;&amp;nbsp; &amp;nbsp;&lt;font color=&quot;#ff9933&quot;&gt;售卖规则&lt;/font&gt;&amp;nbsp; &amp;nbsp; &lt;font color=&quot;#3333ff&quot;&gt;消费项&lt;/font&gt;&amp;nbsp; &amp;nbsp; &amp;nbsp;交易流水&lt;br&gt;&lt;font color=&quot;#ff9933&quot;&gt;限购&lt;/font&gt;&amp;nbsp; &amp;nbsp; &amp;nbsp;扣减策略&amp;nbsp; &amp;nbsp; &amp;nbsp; &amp;nbsp; &amp;nbsp; &amp;nbsp; &amp;nbsp; &amp;nbsp; &amp;nbsp; &amp;nbsp;&amp;nbsp;&lt;/b&gt;" style="text;html=1;strokeColor=none;fillColor=none;align=center;verticalAlign=middle;whiteSpace=wrap;rounded=0;fontSize=14;" vertex="1" parent="1">
          <mxGeometry x="690" y="30" width="360" height="50" as="geometry" />
        </mxCell>
        <mxCell id="Az7R7pBubAlA8pvgEYId-34" value="&lt;font color=&quot;#121212&quot; style=&quot;font-size: 12px;&quot;&gt;用例分析&lt;/font&gt;" style="text;html=1;strokeColor=none;fillColor=none;align=center;verticalAlign=middle;whiteSpace=wrap;rounded=0;fontSize=18;fontColor=#33FF33;" vertex="1" parent="1">
          <mxGeometry x="1010" y="-30" width="60" height="30" as="geometry" />
        </mxCell>
        <mxCell id="Az7R7pBubAlA8pvgEYId-35" value="&lt;font color=&quot;#121212&quot; style=&quot;font-size: 12px;&quot;&gt;场景分析&lt;/font&gt;" style="text;html=1;strokeColor=none;fillColor=none;align=center;verticalAlign=middle;whiteSpace=wrap;rounded=0;fontSize=18;fontColor=#33FF33;" vertex="1" parent="1">
          <mxGeometry x="1010" y="30" width="60" height="30" as="geometry" />
        </mxCell>
        <mxCell id="Az7R7pBubAlA8pvgEYId-38" value="&lt;ul&gt;&lt;li&gt;&lt;span style=&quot;font-size: 18px; background-color: initial;&quot;&gt;&lt;b&gt;为用户提供休闲度假的旅游产品购买和服务&lt;/b&gt;&lt;/span&gt;&lt;/li&gt;&lt;li&gt;&lt;span style=&quot;font-size: 18px; background-color: initial;&quot;&gt;&lt;b&gt;为景区和旅游商家提供度假旅游产品一体化售卖平台&lt;/b&gt;&lt;/span&gt;&lt;/li&gt;&lt;/ul&gt;" style="text;html=1;strokeColor=none;fillColor=none;align=left;verticalAlign=middle;whiteSpace=wrap;rounded=0;dashed=1;fontSize=12;fontColor=#121212;" vertex="1" parent="1">
          <mxGeometry x="90" y="-20" width="477" height="50" as="geometry" />
        </mxCell>
      </root>
    </mxGraphModel>
  </diagram>
  <diagram id="4GwLfVorihiv_JOLNQHE" name="第 17 页">
    <mxGraphModel dx="476" dy="281" grid="1" gridSize="10" guides="1" tooltips="1" connect="1" arrows="1" fold="1" page="1" pageScale="1" pageWidth="827" pageHeight="1169" math="0" shadow="0">
      <root>
        <mxCell id="0" />
        <mxCell id="1" parent="0" />
      </root>
    </mxGraphModel>
  </diagram>
  <diagram id="VWDHkOpp_htpnaZ9JW9V" name="第 18 页">
    <mxGraphModel dx="786" dy="464" grid="1" gridSize="10" guides="1" tooltips="1" connect="1" arrows="1" fold="1" page="1" pageScale="1" pageWidth="827" pageHeight="1169" math="0" shadow="0">
      <root>
        <mxCell id="0" />
        <mxCell id="1" parent="0" />
        <mxCell id="stWhrhVUFXHR4EWJ84Fd-3" value="&lt;h1&gt;&lt;font style=&quot;font-size: 24px;&quot;&gt;围绕语言定义边界&lt;/font&gt;&lt;/h1&gt;&lt;p style=&quot;&quot;&gt;&lt;font style=&quot;font-size: 18px;&quot;&gt;加强语言边界以保护领域术语的有效性。&lt;/font&gt;&lt;/p&gt;&lt;p style=&quot;&quot;&gt;&lt;font style=&quot;font-size: 18px;&quot;&gt;语言边界是有界语境边界&lt;/font&gt;&lt;/p&gt;" style="text;html=1;strokeColor=none;fillColor=none;spacing=5;spacingTop=-20;whiteSpace=wrap;overflow=hidden;rounded=0;dashed=1;fontSize=18;fontColor=#121212;" vertex="1" parent="1">
          <mxGeometry x="130" y="40" width="230" height="180" as="geometry" />
        </mxCell>
        <mxCell id="stWhrhVUFXHR4EWJ84Fd-4" value="&lt;h1&gt;&lt;span style=&quot;font-size: 24px;&quot;&gt;与业务能力保持一致&lt;/span&gt;&lt;/h1&gt;&lt;p style=&quot;&quot;&gt;业务能力往往是语言界限的有力指标&lt;br&gt;&lt;/p&gt;" style="text;html=1;strokeColor=none;fillColor=none;spacing=5;spacingTop=-20;whiteSpace=wrap;overflow=hidden;rounded=0;dashed=1;fontSize=18;fontColor=#121212;" vertex="1" parent="1">
          <mxGeometry x="130" y="230" width="230" height="180" as="geometry" />
        </mxCell>
        <mxCell id="stWhrhVUFXHR4EWJ84Fd-5" value="&lt;h1&gt;&lt;span style=&quot;font-size: 24px;&quot;&gt;围绕团队创建上下文&lt;/span&gt;&lt;/h1&gt;&lt;p style=&quot;&quot;&gt;一个界限上下文有一个特征团队负责：2PTS&lt;/p&gt;" style="text;html=1;strokeColor=none;fillColor=none;spacing=5;spacingTop=-20;whiteSpace=wrap;overflow=hidden;rounded=0;dashed=1;fontSize=18;fontColor=#121212;" vertex="1" parent="1">
          <mxGeometry x="130" y="450" width="230" height="180" as="geometry" />
        </mxCell>
        <mxCell id="stWhrhVUFXHR4EWJ84Fd-6" value="&lt;h1&gt;&lt;span style=&quot;font-size: 24px;&quot;&gt;业务边界&lt;/span&gt;&lt;/h1&gt;&lt;p style=&quot;&quot;&gt;识别业务主题：利用语义相关性和功能相关性对用例归类&lt;/p&gt;&lt;p style=&quot;&quot;&gt;单一抽象层次原则+正交原则&lt;/p&gt;" style="text;html=1;strokeColor=none;fillColor=none;spacing=5;spacingTop=-20;whiteSpace=wrap;overflow=hidden;rounded=0;dashed=1;fontSize=18;fontColor=#121212;" vertex="1" parent="1">
          <mxGeometry x="450" y="40" width="270" height="180" as="geometry" />
        </mxCell>
        <mxCell id="stWhrhVUFXHR4EWJ84Fd-7" value="&lt;h1&gt;&lt;span style=&quot;font-size: 24px;&quot;&gt;工作边界&lt;/span&gt;&lt;/h1&gt;&lt;p style=&quot;&quot;&gt;避免限界山下文工作边界过大：2PTS&lt;/p&gt;&lt;p style=&quot;&quot;&gt;限界上下文允许并行开发的程度&lt;/p&gt;" style="text;html=1;strokeColor=none;fillColor=none;spacing=5;spacingTop=-20;whiteSpace=wrap;overflow=hidden;rounded=0;dashed=1;fontSize=18;fontColor=#121212;" vertex="1" parent="1">
          <mxGeometry x="450" y="225" width="230" height="190" as="geometry" />
        </mxCell>
        <mxCell id="stWhrhVUFXHR4EWJ84Fd-8" value="&lt;h1&gt;&lt;span style=&quot;font-size: 24px;&quot;&gt;应用边界&lt;/span&gt;&lt;/h1&gt;&lt;p style=&quot;&quot;&gt;从技术角度考虑重用和变化的应对，遗留系统的集成&lt;/p&gt;" style="text;html=1;strokeColor=none;fillColor=none;spacing=5;spacingTop=-20;whiteSpace=wrap;overflow=hidden;rounded=0;dashed=1;fontSize=18;fontColor=#121212;" vertex="1" parent="1">
          <mxGeometry x="450" y="440" width="230" height="190" as="geometry" />
        </mxCell>
      </root>
    </mxGraphModel>
  </diagram>
</mxfile>
